<?xml version="1.0" standalone="no"?>
<svg version="1.1" id="Layer_1" xmlns="http://www.w3.org/2000/svg" xmlns:xlink="http://www.w3.org/1999/xlink" x="0px" y="0px" width="595.28px" height="595.28px" viewBox="0 0 595.28 595.28" enable-background="new 0 0 595.28 595.28" xml:space="preserve">
<path id="color_x5F_2" fill="#FBC02D" d="M48.388,360.842c-0.025,0.125-0.018,0.239,0.025,0.34l-0.504,0.288L48.388,360.842z
	 M192.68,307.586l0.848-11.967c-0.08,0.536-0.149,1.075-0.199,1.619C193.017,300.675,192.816,304.128,192.68,307.586z
	 M198.268,273.809c0,0.692-0.022,1.388-0.071,2.088c-0.221,3.136-1.009,6.119-1.893,9.077c1.68-4.055,3.413-9.26,2.105-11.004
	C198.362,273.907,198.314,273.865,198.268,273.809z M230.681,260.201c-3.189-1.875-7.654-4.533-11.485-6.821
	c3.273,2.77,6.781,5.109,10.373,6.449C229.944,259.969,230.313,260.089,230.681,260.201z M227.764,289.174
	c-1.562-0.173-3.095-0.474-4.603-0.875c1.966,0.813,4.654,1.41,7.943,0.921C229.969,289.29,228.848,289.294,227.764,289.174z
	 M169.222,287.098c2.238-4.621,4.891-9.065,6.185-14.146c0.876-3.44,1.988-7.487,0.59-10.95c-1.331-3.296-3.754-5.862-6.132-8.438
	c-0.424-0.46,0.289-0.999,1.107-1.243c-0.154-0.053-0.143-0.164,0.182-0.365c9.798-6.075,4.791-15.185,2.773-24.08
	c-0.022-0.098,0.041-0.198,0.152-0.296c-1.358,0.204-2.705,0.341-4.057,0.378c-0.272,11.82-2.014,23.554-1.441,35.399
	C168.964,271.275,169.407,279.191,169.222,287.098z M164.148,296.82c-10.252-12.714-27.271-26.262-17.48-43.954
	c-0.271,0.076-0.538,0.101-0.769,0.05c-4.681-1.023-9.77-2.937-11.776-7.699c-2.037-4.837-1.552-10.412-1.345-15.53
	c0.007-0.178,0.075-0.338,0.179-0.48c-2.354-0.592-4.712-1.166-7.096-1.171c-2.817,0.15-5.274,1.125-8.702,2.684
	c-0.212,0.096-0.418,0.19-0.625,0.285c-1.907,1.305-3.658,2.938-5.449,4.705c-0.194,0.192-0.736,0.36-1.286,0.457
	c-6.667,8.209-8.34,18.675-11.698,28.608c-3.987,11.797-8.936,22.626-14.531,33.707c-6.023,11.928-12.637,23.493-17.955,35.771
	c-3.795,8.764-7.18,18.038-13.257,25.519c3.669,3.509,8.724,4.759,13.663,5.679c0.082,0.015,0.149,0.037,0.22,0.058
	c0.069-0.02,0.139-0.038,0.21-0.054c11.064-15.385,19.665-32.4,30.96-47.642c5.773-7.791,13.234-15.18,16.661-24.471
	c2.799-7.588,3.968-15.585,5.961-23.384c-0.271-1.552-0.533-3.086-0.774-4.596c-0.125-0.786,2.794-1.429,2.898-0.776
	c0.004,0.024,0.008,0.049,0.012,0.074c0.895-0.306,2.181-0.346,2.052,0.062c-0.479,1.512-0.888,3.055-1.263,4.616
	c3.54,20.227,8.931,43.708,0.085,62.767c0.215,0.161,0.233,0.425-0.127,0.81c-0.75,0.8-0.958,1.69-0.769,2.627
	c0.353,0.751,0.759,1.571,1.188,2.361c3.401,4.476,12.71,9.224,14.938,10.333c3.886,1.934,8.841,4.508,13.304,3.798
	c0.567-0.09,1.113-0.229,1.65-0.389c2.803-1.591,6.148-3.945,8.964-6.042c0.988-0.985,1.942-1.998,2.884-2.982
	c0-0.232,0-0.465,0-0.697c-0.054-0.133-0.048-0.265,0-0.392c0-14.63,0-29.259,0-43.889c0-0.224,0.254-0.415,0.608-0.564
	C165.089,297.232,164.45,297.194,164.148,296.82z M50.432,358.202c0.438-0.56,0.862-1.129,1.274-1.708l-1.301,1.705
	C50.414,358.2,50.423,358.201,50.432,358.202z M233.983,263.379c-9.079-1.078-16.031-7.597-22.291-13.733
	c-6.118-5.996-10.478-14.135-17.098-19.512c-2.467-2.004-4.881-3.079-7.385-3.547c-0.705,0.18-1.581,0.129-1.783-0.228
	c-2.676-0.21-5.487,0.157-8.6,0.747c1.093,4.816,3.762,10.152,3.355,15.176c-0.372,4.592-3.048,7.332-6.832,9.678
	c-0.164,0.102-0.613,0.218-1.085,0.3c0.116,0.04,0.218,0.095,0.292,0.175c4.874,5.281,8.1,9.917,6.425,17.322
	c-2.25,9.951-9.45,18.04-10.488,28.354c-0.024,0.244-0.23,0.461-0.521,0.632c0,14.013,0,28.025,0,42.038
	c0.807-0.009,1.453,0.285,0.76,0.984c-0.021,0.021-0.043,0.043-0.063,0.065c7.342,7.875,15.659,3.381,22.504-3.072
	c-1.868-4.836-1.456-11.249-1.531-16.189c-0.114-7.437,0.016-14.905,0.587-22.323c0.186-2.412,0.18-5.131,0.887-7.467
	c1.256-4.144,3.086-8.285,3.763-12.579c0.38-2.408,0.481-4.764,0.35-7.063c-0.78,0.405-1.401,1.074-1.671,1.397l1.621-2.025
	c-0.698-9.123-5.182-17.326-11.785-24.177c-0.652-0.677,2.079-1.728,2.707-1.077c5.666,5.879,10.173,13.099,11.646,21.062
	c2.529,2.504,5.182,5.008,7.97,7.363l3.192,2.29l4.865,3.707c2.153,1.375,4.381,2.609,6.69,3.642
	c6.898,3.082,13.05,3.364,19.792,0.227c3.467-1.944,6.313-3.736,8.534-5.235c1.921-1.512,3.657-3.236,5.142-5.229
	c0-6.608,0-13.217,0-19.825C247.854,259.037,241.388,264.258,233.983,263.379z M143.358,229.806
	c-1.568,0.504-3.245,0.705-4.959,0.517c-0.904-0.1-1.807-0.271-2.708-0.466c-0.203,4.482-0.747,9.653,1.027,13.866
	c1.938,4.604,6.264,6.271,10.862,7.277c0.551,0.121,0.708,0.38,0.629,0.672c0.943-0.175,1.946,0.077,1.461,0.914
	c-9.752,16.833,6.287,29.971,16.301,41.99c0.014-0.172,0.029-0.344,0.041-0.517c-0.86-11.701-3.91-23.716-8.393-34.517
	C153.397,249.369,147.311,240.098,143.358,229.806z M193.745,337.053l-1.187-12.005
	C192.558,329.002,192.584,333.387,193.745,337.053z M494.142,275.787c0.092-0.199,0.33-0.366,0.631-0.496
	c-1.178-3.949-2.838-8.533-6.348-10.72c0.303,1.765,0.563,3.534,0.637,5.326c0.029,0.72-0.863,1.178-1.672,1.181
	c-2.13,1.919-4.637,3.321-6.953,4.951c-1.541,1.437-3.105,2.815-4.127,3.701c-0.267,0.331-0.523,0.674-0.764,1.038
	c2.902,3.899,5.684,7.859,8.047,12.101C487.847,287.626,491.284,281.969,494.142,275.787z M472.143,281.443
	c-0.427-0.048-0.79-0.243-0.923-0.634c-0.865-2.551-1.715-4.828-1.751-7.557c-0.005-0.318,0.186-0.586,0.469-0.784
	c0.134-1.663,0.357-3.311,0.597-4.958c-0.543,0.266-1.135,0.545-1.696,0.807c-2.29,2.434-3.209,6.421-4.116,9.399
	c-0.046,0.152-0.224,0.284-0.465,0.396c-0.037,0.057-0.074,0.115-0.129,0.177c-0.409,0.471-0.851,0.916-1.306,1.348
	c0.589,4.614,2.334,8.812,5.454,12.221C469.812,288.493,470.53,284.786,472.143,281.443z M531.589,318.029
	c0.025-5.596-0.355-11.021-2.105-15.713c-0.471-0.117-0.508-0.432-0.305-0.773c-1.889-4.571-5.178-8.392-10.822-10.908
	c-7.227-3.221-17.813-5.576-22.74-12.411c-3.051,6.042-6.699,11.572-11.207,16.724c-0.424,0.484-2.358,1.245-2.776,0.44
	c-2.196-4.234-4.853-8.163-7.658-12.004c-1.351,3.526-2.117,7.297-4.135,10.556c-0.393,0.634-2.092,1.089-2.688,0.56
	c-3.821-3.392-6.1-7.765-7.006-12.649c-4.228,3.056-9.406,5.235-13.602,7.944c-3.273,2.114-7.056,4.428-8.961,7.96
	c-1.572,2.915-2.745,6.028-3.797,9.164c-2.418,7.215-4.383,14.577-6.212,21.961c-0.746,3.012-1.116,6.68-2.194,9.747
	c1.61-0.537,3.646-0.448,4.938-0.201c4.976,0.956,9.194,4.63,14.181,5.43c-3.449-2.564-8.688-3.94-9.117-8.722
	c-0.234-2.616,2.879-3.873,5.043-3.57c1.283,0.179,2.507,0.586,3.695,1.106c-3.085-8.063,0.931-16.609,4.961-23.91
	c0.565-1.024,3.505-1.123,2.748,0.248c-4.142,7.503-8.689,16.703-3.859,24.945c0.171,0.291,0.142,0.568-0.002,0.811
	c1.201,0.759,2.374,1.555,3.528,2.29c3.998,2.542,8.762,5.305,11.467,9.353c0.408-0.065,0.783-0.045,0.994,0.123
	c2.814,2.243,6.939,3.27,10.298,4.356c5.06,1.638,10.175,3.101,15.307,4.492c4.394,1.191,8.831,2.258,13.256,3.37
	c0.239-15.441,1.411-30.916,0.337-46.352c-0.054-0.774,2.863-1.281,2.898-0.776c1.085,15.605-0.128,31.25-0.348,46.859
	c-0.005,0.323-0.457,0.579-1.002,0.744c3.033,0.774,6.058,1.58,9.052,2.474c1.055,0.314-1.558,1.515-2.338,1.281
	c-8.333-2.487-16.882-4.304-25.268-6.612c-5.36-1.475-10.731-2.971-15.989-4.784c-2.541-0.877-5.416-1.712-7.763-3.181
	c-0.07,0.072-0.155,0.147-0.259,0.225c-2.216,1.656-3.573,3.82-4.407,6.22c-0.173,0.609-0.349,1.212-0.51,1.765
	c-0.592,2.46-0.753,5.084-0.789,7.622c0.189-0.047,1.083,0.621,1.433,0.807c13.151,6.964,27.27,12.718,41.299,17.629
	c5.489,1.921,11.393,4.179,17.291,5.013c0.376-0.044,0.709-0.014,0.9,0.119c0.833,0.097,1.666,0.166,2.496,0.197
	c6.098,0.228,7.014-9.101,7.848-13.652c0.616-3.363,1.132-6.75,1.568-10.153c-0.343-0.2-0.222-0.595,0.118-0.962
	C531.231,348.271,531.521,333.013,531.589,318.029z M526.435,387.256c-0.277,0.39-0.577,0.75-0.904,1.073
	C526.061,387.997,526.318,387.603,526.435,387.256z M508.29,283.912c-4.355-2.528-7.541-4.804-9.547-6.368
	C501.118,280.417,504.642,282.351,508.29,283.912z M462.06,369.913c-1.73-0.821-6.141-2.127-7.931-3.922
	c-0.361-0.098-0.62-0.325-0.618-0.723c0-0.043,0.002-0.086,0.002-0.129c-0.01-0.022-0.012-0.043-0.02-0.065
	c-0.154,0.013-0.291,0.008-0.393-0.024c-0.449-0.142-0.902-0.268-1.355-0.399c0.548,2.79,1.102,5.685,0.965,8.521
	c-0.083,1.734-0.672,4.271-0.254,6.002c0.648,2.678,9.507,1.528,11.851,1.554c7.812,0.086,15.624,0.227,23.437,0.277
	c-1.378-0.544-2.753-1.093-4.123-1.651C476.355,376.393,469.146,373.279,462.06,369.913z"></path>
<path id="color_x5F_1" d="M459.97,245.34c-0.526,0.532-1.34,0.684-2.05,0.549c-1.588-0.302-3.577-1.061-3.938-2.869
	c-0.399-1.996,0.498-3.979,1.355-5.733c0.48-0.984,3.4-1.187,2.73,0.185c-0.619,1.27-1.539,3.023-1.242,4.503
	c0.293,1.469,1.468,1.909,2.823,2.167C460.295,244.265,460.391,244.914,459.97,245.34z M467.309,235.536
	c0.692,0.221,1.556-0.025,2.05-0.549c0.84-0.893,1.279-2.068,1.303-3.288c0.029-1.453-2.902-0.969-2.926,0.254
	c-0.017,0.837-0.191,1.644-0.779,2.267C466.501,234.705,466.687,235.337,467.309,235.536z M485.739,244.995
	c0.641,0.274,1.472,0.015,2.047-0.292c0.896-0.477,1.711-1.214,2.191-2.114c0.621-1.164-2.268-0.782-2.684-0.005
	c-0.303,0.568-0.707,1.052-1.279,1.356C485.641,244.14,485.118,244.728,485.739,244.995z M474.388,246.174
	c0.808-1.3-2.141-1.204-2.744-0.232c-1.201,1.934-3.303,2.247-5.415,2.274c-1.581,0.02-2.287,1.957-0.309,1.932
	C469.226,250.105,472.561,249.114,474.388,246.174z M347.856,329.491C348.21,329.428,348.251,329.354,347.856,329.491
	L347.856,329.491z M562.129,300.8c0,20.826,0,41.652,0,62.479c0,1.003-1.6,1.483-2.438,1.039c-0.027,0.002-0.057,0.007-0.083,0.007
	c-6.622,0-13.244,0-19.866,0c0,26.269,0,52.538,0,78.807c2.637,0,5.273,0,7.91,0c1.276,0,0.967,0.801,0.254,1.361
	c0.099,0.134,0.16,0.299,0.16,0.507c0.001,1.831-0.035,3.691,0.505,5.459c0.304,0.998-1.397,1.695-2.343,1.335
	c-2.162,0-4.324,0-6.486,0c0,10.064,0,20.129,0,30.193c0,1.36-2.941,1.765-2.941,0.198c0-10.13,0-20.261,0-30.392
	c-1.275,0-2.552,0-3.827,0c0,10.064,0,20.129,0,30.193c0,1.36-2.941,1.765-2.941,0.198c0-10.13,0-20.261,0-30.392
	c-25.92,0-51.84,0-77.76,0c0,10.064,0,20.129,0,30.193c0,1.36-2.941,1.765-2.941,0.198c0-10.13,0-20.261,0-30.392
	c-1.276,0-2.552,0-3.827,0c0,10.064,0,20.129,0,30.193c0,1.36-2.941,1.765-2.941,0.198c0-10.13,0-20.261,0-30.392
	c-0.958,0-1.916,0-2.873,0c-0.423,0.124-0.88,0.135-1.234,0c-0.053,0-0.105,0-0.159,0c-1.087,0-1.024-0.583-0.54-1.102
	c-0.424-1.741-0.396-3.581-0.395-5.362c-0.574-0.06-1.101-0.126-1.581-0.199c0.525,6.353,0.416,12.86,0.52,19.203
	c0.069,4.292,0.158,8.601-0.042,12.89c-0.064,1.374,0.225,4.001-0.989,4.97c-0.564,0.451-3.462,0.748-2.254-0.217
	c0.574-0.459,0.407-5.558,0.425-6.886c0.059-4.308,0.003-8.616-0.096-12.923c-0.139-6.04-0.005-12.239-0.643-18.255
	c0-0.013-0.007-0.024-0.007-0.037c0.009-0.451,0.577-0.661,0.924-0.808c0.001,0,0.003-0.001,0.004-0.002
	c0.254-0.107,1.91-0.572,1.974,0.031c0.001,0.008,0.001,0.016,0.002,0.023c0.23,2.356,45.27,0.73,48.932,0.476
	c1.868-0.13,3.738-0.278,5.607-0.444c0.083-0.015,0.165-0.022,0.244-0.022c0.001,0,0.002,0,0.003,0
	c3.338-0.3,6.669-0.678,9.966-1.259c7.548-1.333,13.006-5.69,15.676-12.964c2.36-6.433,2.22-13.086,1.874-19.842
	c-0.334-6.541-1.021-13.047-2.983-19.308c-2.515-0.463-4.999-1.202-7.271-1.853c-5.07-1.452-10.066-3.161-15.008-5.014
	c-0.252,0.194-0.589,0.324-0.996,0.323c-11.568-0.016-23.143-0.202-34.709-0.347c-0.975-0.012-2.579,0.075-4.039-0.157
	c-0.292,5.125-1.689,9.918-4.187,14.46c-0.04,0.072-0.093,0.138-0.153,0.2c7.773,0,15.547,0,23.321,0c0.373,0,0.593,0.053,0.7,0.138
	c0.291-0.037,0.57-0.026,0.77,0.096c2.256,1.387,2.977,4.205,0.633,5.907c-0.555,0.403-1.266,0.61-1.943,0.677
	c-0.151,0.015-0.873-0.012-0.813-0.246c-0.07,0.011-0.138,0.019-0.197,0.019c-12.873,0-25.747,0-38.621,0
	c-0.203,0.071-0.4,0.116-0.57,0.116c-4.986,0-9.973,0-14.959,0c-0.268,0.32-0.771,0.619-1.334,0.677
	c-17.212,1.775-21.61,23.846-20.69,37.894c0.831,12.695,1.66,25.884,4.298,38.355c0.211,1.001-2.697,1.729-2.898,0.776
	c-1.425-6.74-2.002-13.729-2.721-20.57c-0.811-7.708-1.792-15.532-1.813-23.295c-0.037-13.444,6.416-29.728,19.992-33.838
	c-12.74,0-25.48,0-38.222,0c-0.268,0.32-0.771,0.619-1.334,0.677c-17.212,1.774-21.611,23.846-20.69,37.894
	c0.831,12.695,1.66,25.884,4.298,38.355c0.212,1.001-2.696,1.729-2.898,0.776c-1.425-6.74-2.003-13.729-2.722-20.57
	c-0.81-7.709-1.791-15.532-1.813-23.295c-0.038-13.444,6.418-29.728,19.994-33.838c-11.11,0-22.22,0-33.33,0
	c-0.447,0-0.676-0.084-0.763-0.21c-2.87-1.322-3.154-4.551-1.041-6.805c0.478-0.509,1.233-0.751,1.921-0.759
	c0.169-0.002,0.472,0.051,0.678,0.166c0.1-0.04,0.199-0.076,0.296-0.102c-1.303-4.475-3.375-8.886-5.349-13.253
	c-17.609,0-35.219,0-52.828,0c0.125,0.076,0.236,0.17,0.307,0.305c0.141,0.271,0.159,0.387,0.166,0.695
	c0.003,0.126-0.025,0.241-0.066,0.35c0.146-0.008-0.177,0.602-0.284,1.291c-0.179,1.148-0.347,2.299-0.511,3.45
	c-0.569,3.992-1.113,7.987-1.654,11.983c-1.517,11.193-3.004,22.391-4.514,33.585c-1.435,10.634-2.859,21.27-4.412,31.887
	c-0.478,3.267-0.939,6.541-1.523,9.792c-0.214,1.185-0.236,2.763-1.384,3.438c-1.474,0.866-3.01-0.859-1.322-1.852
	c-1.129,0.664-0.527,0.19-0.299-1.081c0.218-1.214,0.418-2.431,0.608-3.649c0.602-3.837,1.156-7.681,1.701-11.526
	c1.585-11.194,3.092-22.399,4.596-33.604c1.427-10.621,2.833-21.244,4.291-31.86c0.431-3.141,0.855-6.283,1.329-9.417
	c0.163-1.077,0.124-2.747,0.979-3.549c0.099-0.092,0.239-0.17,0.394-0.237c-2.938,0-5.875,0-8.813,0
	c0.125,0.076,0.235,0.17,0.306,0.305c0.142,0.271,0.159,0.387,0.167,0.695c0.003,0.126-0.025,0.241-0.066,0.35
	c0.145-0.007-0.178,0.603-0.285,1.291c-0.178,1.148-0.346,2.299-0.511,3.45c-0.569,3.992-1.113,7.987-1.655,11.983
	c-1.516,11.193-3.003,22.391-4.513,33.585c-1.435,10.634-2.86,21.27-4.412,31.887c-0.478,3.267-0.939,6.541-1.524,9.792
	c-0.213,1.185-0.235,2.763-1.383,3.438c-1.474,0.866-3.01-0.859-1.322-1.852c-1.129,0.664-0.527,0.19-0.299-1.081
	c0.219-1.214,0.418-2.431,0.608-3.649c0.602-3.837,1.156-7.681,1.701-11.526c1.585-11.194,3.092-22.399,4.597-33.604
	c1.426-10.621,2.832-21.244,4.289-31.86c0.432-3.141,0.856-6.283,1.33-9.417c0.163-1.077,0.125-2.747,0.979-3.549
	c0.099-0.092,0.238-0.17,0.394-0.237c-3.476,0-6.95,0-10.425,0c-0.002,0-0.003,0-0.005,0c-0.75,0.183-1.528,0.132-1.528-0.258
	c0-35.003,0-70.007,0-105.011c-5.827,5.894-14.811,10.876-22.828,11.375c-1.136,0.071-2.257,0.075-3.341-0.045
	c-1.562-0.173-3.095-0.474-4.603-0.875c-9.439-2.514-17.819-9.177-24.941-15.916c0.023,0.474,0.047,0.948,0.048,1.426
	c0,0.692-0.022,1.388-0.071,2.088c-0.221,3.136-1.009,6.119-1.893,9.077c-1.051,3.515-2.234,6.994-2.776,10.645
	c-0.08,0.536-0.149,1.075-0.199,1.619c-0.312,3.438-0.512,6.891-0.648,10.349c-0.187,4.736-0.237,9.48-0.14,14.208
	c0.021,1.031,0.02,2.125,0.019,3.254c-0.001,3.954,0.025,8.339,1.187,12.005c0.065,0.208,0.142,0.41,0.215,0.613
	c0.544,0.118,0.843,0.43,0.381,0.948c0.063,0.142,0.119,0.287,0.187,0.426c0.098,0.202-0.063,0.424-0.349,0.618
	c4.564,3.438,10.59,18.631,10.933,19.654c5.125,15.341,5.249,30.422,4.54,46.333c-0.613,13.745-0.898,27.915-3.783,41.411
	c-1.272,5.955-2.221,11.987-3.178,17.999c-0.507,3.179-1.01,6.358-1.457,9.546c-0.154,1.104-0.688,2.803-0.498,3.92
	c0.152,0.171,0.124,0.417-0.23,0.746c-0.01,0.009-0.02,0.019-0.029,0.028c-0.448,0.416-2.41,1.146-2.628,0.085
	c-0.645-3.131,0.948-7.754,1.431-10.834c0.92-5.88,1.859-11.763,2.969-17.611c2.056-10.836,3.191-21.595,3.851-32.621
	c0.777-12.998,2.282-26.805,0.472-39.766c-1.189-8.521-3.369-16.965-6.813-24.868c-1.39-3.189-2.867-6.402-4.816-9.295
	c-0.526-0.781-1.052-1.582-1.683-2.283c-1.494-1.66-0.614-0.104,0.141-1.555c-0.269,0.518-1.279,0.817-2.016,0.761
	c-7.557,6.314-16.903,9.989-24.629,2.497c-4.019,4.177-8.478,8.754-14.304,9.681c-5.52,0.878-10.72-0.958-15.604-3.388
	c-2.86-1.423-12.468-6.044-16.139-10.995c-0.468,0.162-1.012,0.217-1.426,0.09c-0.077,0.078-0.226,0.234-0.476,0.538
	c-0.374,0.449-0.726,0.915-1.056,1.396c-0.654,0.971-1.286,1.956-1.855,2.98c-1.507,2.709-2.865,5.505-4.02,8.384
	c-3.417,8.52-5.863,17.615-6.584,26.788c-1.01,12.861,0.14,26.081,0.985,38.923c0.712,10.815,2.106,21.243,4.021,31.88
	c1.067,5.931,2.046,11.88,2.95,17.838c0.383,2.52,1.662,6.27,1.135,8.831c-0.21,1.018-2.097,1.395-2.794,0.749
	c-0.011-0.009-0.021-0.019-0.03-0.028c-0.223-0.206-0.212-0.433-0.059-0.644c0.173-1.365-0.429-3.263-0.616-4.548
	c-0.479-3.288-0.987-6.571-1.519-9.85c-0.941-5.812-1.761-11.708-3.123-17.441c-3.209-13.509-3.142-28.248-3.714-42.054
	c-0.681-16.404-0.458-32.224,5.538-47.835c0.362-0.942,7.26-16.745,11.47-18.149c-0.396-1.163-0.362-2.321,0.248-3.439
	c-0.006-0.026-0.003-0.054,0.013-0.085c8.294-16.95,4.888-37.606,1.513-56.327c-1.194,5.994-2.44,11.988-5.135,17.373
	c-4.519,9.03-11.135,16.215-16.998,24.313c-11.213,15.488-19.861,32.657-31.229,48.03c-0.663,8.259-9.027,11.854-10.873,19.701
	c-0.008,4.17,0.013,8.804-1.363,12.775c-0.876,2.529-3.143,4.433-5.608,3.63c-1.808,3.202-5.695,3.325-9.116,1.77
	c-0.071-0.032-0.126-0.069-0.184-0.104c-0.037,0.018-0.065,0.041-0.104,0.058c-5.085,2.308-6.948-4.179-6.877-8.253
	c-0.141-0.004-0.279,0.004-0.419-0.013c-5.229-0.654-4.176-5.713-1.47-10.963c-0.134-0.067-0.221-0.166-0.225-0.305
	c-0.205-8.777,8.588-20.837,16.967-23.448c0.092-0.029,0.164-0.032,0.248-0.05c-0.242-0.097-0.431-0.241-0.512-0.428
	c-0.043-0.101-0.051-0.215-0.025-0.34c0.033-0.157,0.12-0.331,0.291-0.522c0.053-0.059,0.101-0.121,0.152-0.18
	c-0.086-0.098-0.176-0.189-0.26-0.29c-0.728-0.871,0.736-1.75,1.834-1.65c0.009,0,0.018,0.002,0.026,0.003
	c0.438-0.56,0.862-1.129,1.274-1.708c5.688-7.993,9.063-17.747,12.942-26.624c5.228-11.964,11.711-23.415,17.923-34.885
	c5.986-11.053,10.739-23.041,14.148-35.142c2.355-8.363,4.646-16.783,9.887-23.658c-0.089-0.064-0.171-0.138-0.236-0.232
	c-10.41-15.006-17.643-34.002-4.399-49.862c5.384-6.447,12.393-10.725,19.162-15.537c3.739-2.659,7.558-5.468,10.46-9.064
	c2.445-3.029,4.805-6.106,7.538-8.886c3.216-3.269,7.091-5.548,11.671-6.184c3.159-0.439,6.346-0.433,9.528-0.355
	c4.723,0.115,8.783-0.723,13.399-1.525c1.9-0.33,3.813-0.46,5.649-0.324c0.11-0.03,0.28,0.003,0.28,0.003s-0.029,0.008-0.04,0.011
	c4.327,0.377,8.194,2.296,10.36,6.824c2.11,4.411-1.047,8.894-4.703,11.398c1.347,4.652,2.27,9.925,2.553,15.276
	c4.795,7.569,9.691,16.275,9.85,25.465c0.142,8.235-2.926,15.03-8.032,21.118c0.852,0.247,1.694,0.578,2.525,1.021
	c6.779,3.617,10.735,9.945,15.413,15.784c3.174,3.96,7.176,8.508,11.61,12.261c3.273,2.77,6.781,5.109,10.373,6.449
	c0.376,0.14,0.745,0.261,1.112,0.372c9.122,2.765,15.677-3.187,23.252-7.562c0-33.767,0-67.533,0-101.299
	c0-0.59,0.959-1.006,1.774-1.11c0.356-0.157,0.731-0.269,0.981-0.269c50.677,0,101.354,0,152.03,0c0.688,0,0.834,0.164,0.706,0.374
	c0.083,0.057,0.132,0.132,0.132,0.229c0,60.6,0,121.201,0,181.802c4.356,3.096,5.953,9.393,7.766,14.404
	c0.647,1.79,1.262,3.59,1.862,5.396c0.184-0.392,1.27-0.73,2.053-0.802c0.174-0.123,0.397-0.231,0.641-0.318
	c-1.059-0.637-2.385-1.54-2.521-2.687c-0.127-1.064,0.521-1.778,1.324-2.32c-1.101-0.938-0.971-2.985-0.043-3.983
	c0.549-0.591,1.271-0.919,2.043-1.088c-0.561-0.06-0.942-0.341-0.662-0.918c1.857-3.82,2.332-9.681,3.425-13.944
	c1.883-7.344,3.802-14.754,6.493-21.852c2.328-6.139,5.135-10.38,10.682-14.094c5.27-3.528,12.318-6.199,17.215-10.522
	c-0.02-0.188-0.053-0.372-0.067-0.561c-0.046-0.586,0.938-1.027,1.771-1.13c0.077-0.085,0.16-0.166,0.235-0.252
	c0.09-0.103,0.213-0.191,0.357-0.264c1.512-4.935,3.213-9.793,8.621-11.484c0.099-0.729,0.193-1.459,0.264-2.194
	c0.423-4.406-4.972-2.95-7.964-3.265c-3.75-0.395-8.012-1.232-10.421-4.467c-2.172-2.917-3.249-6.288-3.565-9.833
	c-0.017-0.032-0.048-0.05-0.06-0.086c-4.352-13.936-1.406-35.331,13.361-41.984c0.264-0.119,0.539-0.17,0.8-0.174
	c5.831-2.929,12.563-4.124,18.996-2.905c1.314,0.249,2.651,0.561,3.993,0.936c0.278-3.06,1.955-5.669,4.341-7.574
	c0.381-0.404,0.869-0.737,1.436-1.01c4.472-2.767,10.589-3.356,14.909-0.508c8.022,5.289,10.557,20.195,0.149,24.22
	c-0.004,0.001-0.007,0.002-0.011,0.003c0.393,0.805,0.755,1.63,1.044,2.499c4.61,13.854-0.995,28.801-13.25,34.07
	c-2.583,1.568-5.902,2.366-7.363,2.659c-0.033,1.156,0.027,2.312,0.201,3.483c0.097,0.649,0.206,1.296,0.318,1.942
	c0.056,0.007,0.112,0.014,0.165,0.03c6.099,1.808,8.381,8.574,9.974,14.081c0.067,0.234,0.021,0.451-0.1,0.642
	c0.242,0.358,0.499,0.703,0.774,1.035c2.375,2.873,5.898,4.807,9.547,6.368c2.6,1.111,5.256,2.039,7.596,2.992
	c5.579,2.274,11.506,5.054,14.775,10.419c0.623,1.022,1.142,2.075,1.586,3.149c9.037,0,18.075,0,27.113,0
	C559.983,299.565,562.129,299.461,562.129,300.8z M119.134,339.13c-0.17-0.079-0.312-0.192-0.396-0.356
	C118.872,339.034,119.017,339.11,119.134,339.13z M532.936,302.367c2.048,6.362,1.646,13.405,1.546,20.064
	c-0.143,9.666-0.467,19.338-1.178,28.98c-0.27,3.65-0.549,7.339-0.928,11.02c8.938,0,17.875,0,26.812,0c0-20.021,0-40.043,0-60.064
	C550.437,302.367,541.687,302.367,532.936,302.367z M495.616,278.224c-3.051,6.042-6.699,11.572-11.207,16.724
	c-0.424,0.484-2.358,1.245-2.776,0.44c-2.196-4.234-4.853-8.163-7.658-12.004c-1.351,3.526-2.117,7.297-4.135,10.556
	c-0.393,0.634-2.092,1.089-2.688,0.56c-3.821-3.392-6.1-7.765-7.006-12.649c-4.228,3.056-9.406,5.235-13.602,7.944
	c-3.273,2.114-7.056,4.428-8.961,7.96c-1.572,2.915-2.745,6.028-3.797,9.164c-2.418,7.215-4.383,14.577-6.212,21.961
	c-0.746,3.012-1.116,6.68-2.194,9.747c1.61-0.537,3.646-0.448,4.938-0.201c4.976,0.956,9.194,4.63,14.181,5.43
	c-3.449-2.564-8.688-3.94-9.117-8.722c-0.234-2.616,2.879-3.873,5.043-3.57c1.283,0.179,2.507,0.586,3.695,1.106
	c-3.085-8.063,0.931-16.609,4.961-23.91c0.565-1.024,3.505-1.123,2.748,0.248c-4.142,7.503-8.689,16.703-3.859,24.945
	c0.171,0.291,0.142,0.568-0.002,0.811c1.201,0.759,2.374,1.555,3.528,2.29c3.998,2.542,8.762,5.305,11.467,9.353
	c0.408-0.065,0.783-0.045,0.994,0.123c2.814,2.243,6.939,3.27,10.298,4.356c5.06,1.638,10.175,3.101,15.307,4.492
	c4.394,1.191,8.831,2.258,13.256,3.37c0.239-15.441,1.411-30.916,0.337-46.352c-0.054-0.774,2.863-1.281,2.898-0.776
	c1.085,15.605-0.128,31.25-0.348,46.859c-0.005,0.323-0.457,0.579-1.002,0.744c3.033,0.774,6.058,1.58,9.052,2.474
	c1.055,0.314-1.558,1.515-2.338,1.281c-8.333-2.487-16.882-4.304-25.268-6.612c-5.36-1.475-10.731-2.971-15.989-4.784
	c-2.541-0.877-5.416-1.712-7.763-3.181c-0.07,0.072-0.155,0.147-0.259,0.225c-2.216,1.656-3.573,3.82-4.407,6.22
	c-0.2,0.576-0.366,1.166-0.51,1.765c-0.592,2.46-0.753,5.084-0.789,7.622c0.189-0.047,1.083,0.621,1.433,0.807
	c13.151,6.964,27.27,12.718,41.299,17.629c5.489,1.921,11.393,4.179,17.291,5.013c0.376-0.044,0.709-0.014,0.9,0.119
	c0.833,0.097,1.666,0.166,2.496,0.197c6.098,0.228,7.014-9.101,7.848-13.652c0.616-3.363,1.132-6.75,1.568-10.153
	c-0.343-0.2-0.222-0.595,0.118-0.962c1.847-14.958,2.137-30.216,2.204-45.2c0.025-5.596-0.355-11.021-2.105-15.713
	c-0.471-0.117-0.508-0.432-0.305-0.773c-1.889-4.571-5.178-8.392-10.822-10.908C511.13,287.414,500.543,285.059,495.616,278.224z
	 M487.743,381.004c-1.378-0.544-2.753-1.093-4.123-1.651c-7.265-2.96-14.475-6.074-21.561-9.439
	c-1.73-0.821-6.141-2.127-7.931-3.922c-0.361-0.098-0.62-0.325-0.618-0.723c0-0.043,0.002-0.086,0.002-0.129
	c-0.01-0.022-0.012-0.043-0.02-0.065c-0.154,0.013-0.291,0.008-0.393-0.024c-0.449-0.142-0.902-0.268-1.355-0.399
	c0.548,2.79,1.102,5.685,0.965,8.521c-0.083,1.734-0.672,4.271-0.254,6.002c0.648,2.678,9.507,1.528,11.851,1.554
	C472.118,380.813,479.931,380.954,487.743,381.004z M453.56,363.229c0.246-6.038,1.573-11.781,6.724-15.635
	c-3.59-5.372-10.649-8.758-16.017-11.998c-1.123-0.678-2.253-1.503-3.547-1.824c-3.376-0.839-2.326,2.993-0.51,4.261
	c2.355,1.643,5.029,2.894,7.209,4.771c0.738,0.636,0.066,1.361-0.771,1.662c0.123,0.599-0.99,1.549-1.921,1.499
	c-3.562-0.192-6.782-1.936-9.959-3.405c-2.088-0.965-4.674-2.391-7.05-2.404c-2.174-0.012-1.947,0.742-0.612,1.563
	c4.137,2.544,9.149,3.801,13.788,5.122c1.725,0.491-0.561,2.163-1.705,1.837c-2.002-0.57-12.328-2.918-15.363-5.862
	c-1.967,0.018-0.449,2.122,0.86,2.637c1.004,0.395,2.022,0.753,3.009,1.191c3.465,1.541,7.145,2.58,10.77,3.669
	c1.721,0.517-0.564,2.177-1.705,1.834c-3.457-1.039-7.518-1.834-10.688-3.594c-1.142-0.634-2.452-0.969-3.657-1.492
	c-1.016,1.497,4.408,4.004,5.226,4.363c2.51,1.104,5.099,2.062,7.732,2.825c1.646,0.477-0.83,1.869-1.768,1.597
	c-3.129-0.907-6.374-1.975-9.321-3.463c2.43,4.549,10.721,6.245,15.004,7.397C444.001,361.048,448.857,361.901,453.56,363.229z
	 M480.437,276.029c-1.513,1.064-2.939,2.23-4.127,3.701c-0.267,0.331-0.523,0.674-0.764,1.038c2.902,3.899,5.684,7.859,8.047,12.101
	c4.254-5.243,7.691-10.9,10.549-17.083c0.092-0.199,0.33-0.366,0.631-0.496c-1.178-3.949-2.838-8.533-6.348-10.72
	c0.303,1.765,0.563,3.534,0.637,5.326c0.029,0.72-0.863,1.178-1.672,1.181C485.26,272.998,482.753,274.4,480.437,276.029z
	 M473.589,259.626c0.108,0.006,0.535,0.076,0.528,0.274c-0.167,4.433-1.222,8.755-1.388,13.189c-0.007,0.184-0.122,0.348-0.3,0.489
	c0.13,2.005,0.767,3.802,1.422,5.683c0.194-0.066,0.405-0.119,0.616-0.154c3.472-3.558,8.277-5.329,11.647-9.141
	c-0.222-4.351-2.348-9.696-1.815-14.321c-0.032,0-0.064,0.002-0.097,0.001c-0.692-0.016-0.379-0.294,0.185-0.569
	c0.141-0.837,0.364-1.651,0.725-2.424c0.736-1.579,1.807-3.207,3.536-3.848c4.813-1.784,6.115-6.532,1.979-9.044
	c-0.137,0.318-0.451,0.603-1.025,0.72c-6.493,1.331-11.742-5.477-14.833-10.239c-0.52-0.8-1.073-1.666-1.634-2.574
	c-0.48,0.142-0.974,0.18-1.268,0.021c-1.713-0.923-3.781-0.575-5.653-0.558c-0.491,0.004-1.17-0.341-0.802-0.912
	c0.39-0.603,1.244-0.8,1.909-0.807c1.5-0.014,3.042-0.134,4.519,0.091c-2.133-3.703-4.105-7.939-4.549-11.976
	c-4.398,3.061-7.548,6.847-9.828,11.127c0.609-0.046,1.224-0.055,1.843-0.056c0.579,0,1.171,0.504,0.853,1.1
	c-0.359,0.672-1.205,0.855-1.896,0.856c-0.614,0-1.215,0.022-1.808,0.139c-0.664,1.457-1.239,2.963-1.74,4.511
	c0.85-0.554,2.448-0.56,2.406,0.484c-0.033,0.83-0.401,1.624-0.961,2.231c-0.481,0.522-1.373,0.752-2.049,0.549
	c-0.117-0.035-0.201-0.097-0.285-0.157c-0.918,3.593-1.516,7.363-1.921,11.228c-0.008,0.077-0.054,0.147-0.093,0.22
	c0.184,1.783,0.586,3.5,1.26,5.105C456.858,259.877,465.216,259.127,473.589,259.626z M468.838,268.318
	c-2.29,2.434-3.209,6.421-4.116,9.399c-0.046,0.152-0.224,0.284-0.465,0.396c-0.037,0.057-0.074,0.115-0.129,0.177
	c-0.409,0.471-0.851,0.916-1.306,1.348c0.589,4.614,2.334,8.812,5.454,12.221c1.535-3.366,2.254-7.073,3.866-10.416
	c-0.427-0.048-0.79-0.243-0.923-0.634c-0.865-2.551-1.715-4.828-1.751-7.557c-0.005-0.318,0.186-0.586,0.469-0.784
	c0.134-1.663,0.357-3.311,0.597-4.958c0.027-0.188,0.055-0.375,0.081-0.563C469.944,267.308,469.354,267.77,468.838,268.318z
	 M420.755,357.044c2.04,6.563,3.853,13.2,5.62,19.84c0.702,2.636,1.313,5.383,1.987,8.121c6.229-5.6,12.296-13.402,13.354-21.586
	c0.06-0.458,0.924-0.731,1.693-0.84c-3.26-0.733-6.521-1.469-9.707-2.481c-3.471-1.103-9.118-2.616-11.681-5.933
	C421.832,355.178,421.419,356.133,420.755,357.044z M173.927,227.875c-0.022-0.098,0.041-0.198,0.152-0.296
	c-1.358,0.204-2.705,0.341-4.057,0.378c-0.272,11.82-2.014,23.554-1.441,35.399c0.383,7.918,0.826,15.833,0.641,23.741
	c2.238-4.621,4.891-9.065,6.185-14.146c0.876-3.44,1.988-7.487,0.59-10.95c-1.331-3.296-3.754-5.862-6.132-8.438
	c-0.424-0.46,0.289-0.999,1.107-1.243c-0.154-0.053-0.143-0.164,0.182-0.365C180.951,245.881,175.944,236.771,173.927,227.875z
	 M149.671,252.586c-9.752,16.833,6.287,29.971,16.301,41.99c0.014-0.172,0.029-0.344,0.041-0.517
	c-0.86-11.701-3.91-23.716-8.393-34.517c-4.223-10.173-10.31-19.445-14.262-29.737c-1.568,0.504-3.245,0.705-4.959,0.517
	c-0.904-0.1-1.807-0.271-2.708-0.466c-0.203,4.482-0.747,9.653,1.027,13.866c1.938,4.604,6.264,6.271,10.862,7.277
	c0.551,0.121,0.708,0.38,0.629,0.672C149.153,251.497,150.156,251.749,149.671,252.586z M154.917,161.983
	c0.215-0.451,0.444-0.895,0.688-1.334c-0.102-0.118-0.204-0.232-0.304-0.356L154.917,161.983z M140.204,181.851
	c0.01-0.002,0.015-0.003,0.024-0.004c-0.001,0-0.002,0-0.003-0.001C140.217,181.848,140.215,181.849,140.204,181.851z
	 M182.421,163.386c-0.284-0.133-0.498-0.348-0.598-0.599c-1.764,0.143-6.028,0.492-9.936,0.837
	c-5.254,1.06-10.391,1.755-14.44-1.245c-3.74,7.94-3.514,16.668-12.052,21.595c0.065,0.144,0.13,0.287,0.19,0.431
	c0.456,1.077-2.407,1.935-2.898,0.776c-0.45-1.063-1.05-2.518-2.092-3.155c-0.116-0.071-0.188-0.113-0.272-0.146
	c-0.047,0.029-0.1,0.065-0.146,0.111c-1.458,1.436-2.084,3.754-2.381,5.716c-0.295,1.942-0.489,4.585,0.747,6.276
	c1.411,1.93,3.571,0.668,5.184-0.368c0.551-0.354,1.478-0.328,2.01-0.075c0.434-0.047,0.793,0.007,0.891,0.235
	c3.541,8.284,9.014,23.825,2.554,31.992c-0.396,0.501-0.838,0.954-1.299,1.381c-0.427,0.627-1.029,1.128-1.773,1.517
	c4.147,10.968,11.04,20.672,15.031,31.695c1.896,5.234,3.601,10.565,4.948,15.977c-0.202-5.313-0.489-10.633-0.552-15.987
	c-0.129-10.863,1.412-21.641,1.597-32.492c-0.708-0.07-1.419-0.163-2.138-0.312c-1.492-0.309-0.975-1.645,0.025-2.087
	c-0.209-4.708-1.141-11.017,2.371-14.553c4.226-4.256,11.154-4.796,13.886-10.668C186.303,189.437,185.662,174.693,182.421,163.386z
	 M149.401,177.035c-0.251,0.421-0.5,0.822-0.742,1.185c-0.263,0.394-0.525,0.788-0.783,1.175
	C148.457,178.647,148.956,177.856,149.401,177.035z M100.569,219.361c-0.929-2.837-1.799-5.984-2.5-9.387
	C98.495,213.142,99.37,216.278,100.569,219.361z M40.669,401.532c0.58-2.896,0.036-5.845-0.203-8.768
	c-1.15,1.144-2.403,2.186-3.694,2.862c-0.113,1.814,0.168,3.761,0.896,5.42c0.302,0.688,0.735,1.706,1.452,2.087
	C39.823,403.506,40.576,401.997,40.669,401.532z M64.76,369.459c-0.69,0.08-1.297,0.036-1.191-0.102
	c0.46-0.603,0.907-1.214,1.358-1.823c-5.258-0.983-10.572-2.328-14.58-5.868c-0.111,0.03-0.225,0.052-0.34,0.065
	c0.342,0.32,0.074,0.956-0.969,1.281c-4.324,1.347-7.896,6.342-10.192,10c-1.274,2.032-2.599,4.28-3.422,6.647
	c2.034-2.965,4.039-5.403,4.926-6.321c0.929-0.962,3.712-0.417,2.438,0.903c-2.924,3.028-5.512,6.715-7.509,10.405
	c-1.037,1.917-2.282,4.108-2.49,6.322c-0.176,1.876,0.689,4.061,2.779,2.597c3.788-2.652,6.836-6.481,9.573-10.164
	c2.188-2.944,4.905-6.216,5.972-9.794c0.38-1.276,3.267-1.27,2.779,0.366c-1.509,5.063-5.884,10.076-9.229,14.004
	c-0.499,0.586-1.099,1.326-1.769,2.119c0.229,0.129,0.384,0.335,0.39,0.642c0.069,3.433,1.681,8.911-0.428,12.098
	c1.707,0.769,3.782,1.562,4.698-0.628c0.697-1.667,0.853-3.529,0.864-5.322c0.021-3.163-0.463-6.29-0.508-9.445
	c-0.019-1.286,2.912-1.74,2.934-0.227c0.065,4.598,1.163,9.305-0.024,13.841c0.283-0.018,0.533,0.016,0.694,0.133
	c0.152,0.131,0.318,0.238,0.493,0.332c0.015-0.014,0.017-0.021,0.033-0.037c0.348-0.541,0.606-1.144,0.793-1.759
	c0.429-1.411,0.708-2.86,0.885-4.324c0.327-2.724,0.453-5.463,0.458-8.206c0-0.031,0.011-0.06,0.017-0.09
	c0-0.02-0.006-0.037-0.001-0.059C55.837,379.923,63.077,376.281,64.76,369.459z M162.191,345.603
	c0.988-0.985,1.942-1.998,2.884-2.982c0-0.232,0-0.465,0-0.697c-0.054-0.133-0.048-0.265,0-0.392c0-14.63,0-29.259,0-43.889
	c0-0.224,0.254-0.415,0.608-0.564c-0.595,0.153-1.233,0.115-1.535-0.259c-10.252-12.714-27.271-26.262-17.48-43.954
	c-0.271,0.076-0.538,0.101-0.769,0.05c-4.681-1.023-9.77-2.937-11.776-7.699c-2.037-4.837-1.552-10.412-1.345-15.53
	c0.007-0.178,0.075-0.338,0.179-0.48c-2.354-0.592-4.712-1.166-7.096-1.171c-2.817,0.15-5.274,1.125-8.702,2.684
	c-0.212,0.096-0.418,0.19-0.625,0.285c-1.907,1.305-3.658,2.938-5.449,4.705c-0.194,0.192-0.736,0.36-1.286,0.457
	c-6.667,8.209-8.34,18.675-11.698,28.608c-3.987,11.797-8.936,22.626-14.531,33.707c-6.023,11.928-12.637,23.493-17.955,35.771
	c-3.795,8.764-7.18,18.038-13.257,25.519c3.669,3.509,8.724,4.759,13.663,5.679c0.082,0.015,0.149,0.037,0.22,0.058
	c0.069-0.02,0.139-0.038,0.21-0.054c11.064-15.385,19.665-32.4,30.96-47.642c5.773-7.791,13.234-15.18,16.661-24.471
	c2.799-7.588,3.968-15.585,5.961-23.384c-0.271-1.552-0.533-3.086-0.774-4.596c-0.125-0.786,2.794-1.429,2.898-0.776
	c0.004,0.024,0.008,0.049,0.012,0.074c0.895-0.306,2.181-0.346,2.052,0.062c-0.479,1.512-0.888,3.055-1.263,4.616
	c3.54,20.227,8.931,43.708,0.085,62.767c0.215,0.161,0.233,0.425-0.127,0.81c-0.75,0.8-0.958,1.69-0.769,2.627
	c0.155,0.763,0.577,1.558,1.188,2.361c3.401,4.476,12.71,9.224,14.938,10.333c3.886,1.934,8.841,4.508,13.304,3.798
	c0.567-0.09,1.113-0.229,1.65-0.389C156.705,350.61,159.569,348.219,162.191,345.603z M248.791,280.31
	c1.921-1.512,3.657-3.236,5.142-5.229c0-6.608,0-13.217,0-19.825c-6.078,3.781-12.545,9.002-19.949,8.124
	c-9.079-1.078-16.031-7.597-22.291-13.733c-6.118-5.996-10.478-14.135-17.098-19.512c-2.467-2.004-4.881-3.079-7.385-3.547
	c-0.705,0.18-1.581,0.129-1.783-0.228c-2.676-0.21-5.487,0.157-8.6,0.747c1.093,4.816,3.762,10.152,3.355,15.176
	c-0.372,4.592-3.048,7.332-6.832,9.678c-0.164,0.102-0.613,0.218-1.085,0.3c0.116,0.04,0.218,0.095,0.292,0.175
	c4.874,5.281,8.1,9.917,6.425,17.322c-2.25,9.951-9.45,18.04-10.488,28.354c-0.024,0.244-0.23,0.461-0.521,0.632
	c0,14.013,0,28.025,0,42.038c0.807-0.009,1.453,0.285,0.76,0.984c-0.021,0.021-0.043,0.043-0.063,0.065
	c7.342,7.875,15.659,3.381,22.504-3.072c-1.868-4.836-1.456-11.249-1.531-16.189c-0.114-7.437,0.016-14.905,0.587-22.323
	c0.186-2.412,0.18-5.131,0.887-7.467c1.256-4.144,3.086-8.285,3.763-12.579c0.38-2.408,0.481-4.764,0.35-7.063
	c-0.012-0.21-0.034-0.419-0.05-0.628c-0.698-9.123-5.182-17.326-11.785-24.177c-0.652-0.677,2.079-1.728,2.707-1.077
	c5.666,5.879,10.173,13.099,11.646,21.062c2.529,2.504,5.182,5.008,7.97,7.363c2.565,2.167,5.247,4.203,8.058,5.997
	c2.153,1.375,4.381,2.609,6.69,3.642c6.898,3.082,13.05,3.364,19.792,0.227c0.525-0.244,1.053-0.502,1.585-0.789
	C244.284,283.445,246.644,282,248.791,280.31z M330.152,381.823c-0.677-1.519-1.333-3.032-1.924-4.541
	c-4.101-10.465-8.316-21.133-10.801-32.123c-0.696-3.079-1.725-6.812-0.978-9.98c0.627-2.657,3.723-3.605,6.103-4.149
	c3.63-0.831,7.34-1.194,11.056-1.365c0.156-0.045,0.306-0.071,0.44-0.071c0.479,0,0.959,0,1.438,0
	c0.448-0.014,0.896-0.027,1.344-0.037c2.642-0.057,5.283-0.063,7.925-0.035c0.8,0.008,1.599,0.021,2.398,0.023
	c0.298,0.001,0.533-0.026,0.702-0.056c-0.071,0.024-0.171,0.064-0.271,0.104c12.68,0,25.359,0,38.039,0
	c0.376-0.096,0.725-0.126,0.944-0.021c0.017,0.008,0.037,0.013,0.054,0.021c2.839,0,5.678,0,8.517,0
	c0.214,0,0.372,0.022,0.498,0.057c3.558,0.137,7.28,0.28,10.729,1.204c0.102,0.027,0.192,0.068,0.292,0.099
	c0-59.872,0-119.743,0-179.615c0-0.031,0.011-0.06,0.016-0.09c-49.947,0-99.896,0-149.843,0c0,33.734,0,67.467,0,101.201
	c0.165,0.267,0.19,0.591,0,0.905c0,6.701,0,13.402,0,20.103c0.42-0.014,0.718,0.022,0.67,0.094c-0.206,0.308-0.443,0.614-0.67,0.921
	c0,35.784,0,71.567,0,107.35C281.271,381.823,305.712,381.823,330.152,381.823z M339.096,395.964
	c0.03,0.109-0.046,0.225-0.188,0.338c29.976,0,59.952,0,89.928,0c-1.278-2.854-2.2-5.925-3-9.038
	c-0.004-0.019-0.01-0.038-0.015-0.058c-0.821-3.205-1.517-6.452-2.343-9.546c-1.757-6.581-3.528-13.178-5.547-19.692
	c-0.15-0.035-0.236-0.1-0.142-0.223c0.019-0.023,0.032-0.048,0.05-0.071c-0.939-3.02-1.929-6.023-3.004-8.995
	c-1.482-4.098-3.033-8.232-5.109-12.074c-0.451-0.836-0.93-1.526-1.445-2.109c-0.777,0.21-1.622,0.173-1.622-0.234
	c0-0.39,0-0.78,0-1.17c-1.438-0.928-3.173-1.37-5.396-1.682c-2.035-0.287-4.081-0.464-6.131-0.572
	c-0.369,0.217-0.796,0.374-1.128,0.374c-20.363,0-40.727,0-61.09,0c-0.688,0-0.878-0.201-0.796-0.46
	c-1.945,0.091-3.886,0.243-5.812,0.492c-4.915,0.636-7.568,1.612-7.069,6.792c0.373,3.882,1.337,7.704,2.416,11.443
	c3.002,10.412,6.869,20.576,10.9,30.627c0.229,0.571,0.473,1.144,0.719,1.718c0.158,0,0.315,0,0.473,0
	c1.27,0,0.712,0.555-0.063,0.937C335.6,387.093,337.839,391.496,339.096,395.964z M430.692,402.512
	c0.918-1.628,1.028-4.339-0.971-4.72c-31.465,0-62.93,0-94.395,0c-0.016,0-0.025-0.002-0.041-0.002
	c-1.025,1.686-0.727,3.758,1.218,4.722C367.899,402.512,399.296,402.512,430.692,402.512z M434.205,398.805
	c0.217,1.308-0.161,2.635-0.896,3.727c0.146,0.019,0.245,0.054,0.322,0.096c12.868,0,25.734,0,38.603,0
	c0.035,0,0.059,0.003,0.092,0.004c0.607-1.331-0.116-2.903-1.409-3.851c-0.081,0.014-0.157,0.024-0.227,0.024
	C458.528,398.805,446.366,398.805,434.205,398.805z M450.078,381.329c-0.175-0.24-0.31-0.514-0.388-0.834
	c-0.327-1.353-0.184-2.715-0.089-4.092c0.278-4.083-0.167-7.945-0.943-11.942c-0.044-0.229,0.001-0.438,0.098-0.625
	c-1.387-0.349-2.78-0.674-4.177-0.99c-1.292,9.293-8.722,18.009-15.81,23.785c0.8,3.097,1.722,6.152,3.002,8.988
	c0.085,0.187-0.357,0.468-0.919,0.685c0.133,0,0.268,0,0.401,0c0.449,0,0.675,0.081,0.755,0.203c0.599,0.155,1.146,0.43,1.551,0.867
	c4.092,0,8.184,0,12.276,0c-0.01-0.127,0.026-0.276,0.121-0.448c2.645-4.811,3.985-9.879,4.077-15.363
	C450.036,381.479,450.052,381.402,450.078,381.329z M500.055,443.132c9.992,0,19.984,0,29.977,0c0-22.021,0-44.042,0-66.063
	c-0.128,0.543-0.243,1.09-0.383,1.629c-0.623,2.417-1.444,6.067-3.214,8.558c-0.277,0.39-0.577,0.75-0.904,1.073
	c-0.73,0.724-1.588,1.267-2.615,1.509c-1.531,0.36-3.131,0.439-4.749,0.338c2.272,7.879,2.735,16.208,2.797,24.373
	c0.05,6.641-0.771,13.319-4.683,18.932C512.182,439.362,506.396,441.864,500.055,443.132z M538.873,445.025
	c-0.507,0.203-1.125,0.22-1.556,0c-1.737,0-3.475,0-5.213,0c-0.507,0.203-1.125,0.22-1.555,0c-13.744,0-27.486,0-41.23,0
	c-0.656,0-0.889-0.214-0.867-0.497c-0.148,0.013-0.299,0.025-0.447,0.038c-3.023,0.254-33.273,1.844-47.713,0.994
	c-0.001,1.458,0.037,2.921,0.376,4.34c34.899,0,69.799,0,104.698,0c-0.258-1.531-0.23-3.119-0.23-4.66
	c0-0.075,0.012-0.146,0.031-0.215C543.069,445.025,540.971,445.025,538.873,445.025z M536.8,364.325c-1.275,0-2.552,0-3.827,0
	c0,26.269,0,52.538,0,78.807c1.275,0,2.552,0,3.827,0C536.8,416.863,536.8,390.594,536.8,364.325z M314.704,300.516
	c-0.569,0.137-1.68,0.208-1.667-0.632c0.033-2.168,1.165-5.48-2.619-6.176c-1.017-0.186-2.037-0.337-3.063-0.454
	c-2.172-0.273-2.117,0.215-3.227,1.278c-1.359,1.301-3.325,1.303-5.071,1.154c-2.749-0.234-5.425-2.25-7.172-4.271
	c-0.523-0.606-2.718-2.408-2.451-3.339c0.538-1.878,4.769-4.902,4.718-5.791c-0.279-4.883-0.466-8.615-6.994-7.735
	c-0.736,0.099-3.549,0.736-3.521-0.772c0.06-3.232,0.663-6.73,0.005-9.913c-0.166-0.804,1.073-1.164,1.629-1.258
	c2.606-0.441,7.083,0.704,8.339-2.144c0.232-0.528,2.137-3.854,1.47-4.25c-1.154-0.687-2.244-1.438-3.22-2.367
	c-2.856-2.718-2.982-3.175-0.336-6.35c1.6-1.919,4.141-5.868,6.928-6.181c1.813-0.204,4.072,2.216,5.18,3.422
	c0.604,0.658,1.189,1.331,1.739,2.035c0.464-0.121,1.263-0.25,2.412-0.385c0.338-0.176,0.677-0.353,1.016-0.528
	c-0.589-2.921,0.06-7.451,2.824-8.646c3.373-1.458,9.259-1.922,12.354,0.378c0.981,0.729,1.811,2.261,2.105,3.446
	c0.099,0.397,0.619,5.112,0.517,5.07c2.228,0.899,5.192,3.216,6.819,0.527c0.855-1.412,1.655-2.766,2.895-3.871
	c1.528-1.364,3.874-1.514,5.655-0.624c3.248,1.625,6.707,4.363,8.462,7.593c1.631,3,0.532,4.561-1.684,6.744
	c-0.996,0.981-1.451,5.255-1.36,5.49c1.103,2.878,2.28,2.233,4.831,2.277c2.698,0.047,4.163,1.483,4.11,4.271
	c-0.049,2.588-0.129,7.209-3.011,8.468c-1.324,0.578-3.167,0.285-4.553,0.293c-1.693,0.01-6.732,2.943-3.822,4.466
	c1.709,0.894,5.931,2.634,4.073,5.12c-1.612,2.159-5.051,6.276-7.526,7.357c-2.431,1.061-4.117-1.194-5.679-2.749
	c-1.53-1.524-0.978-1.701-2.948-1.25c-3.593,0.821-2.388,3.492-1.717,5.652C332.521,300.305,316.419,300.103,314.704,300.516z
	 M326.79,293.407c0.141-2.43,2.417-4.04,4.654-4.552c1.257-0.288,3.223-1.596,4.535-0.728c0.935,0.618,1.722,1.375,2.51,2.171
	c1.195,1.206,1.604,2.628,2.497,1.724c1.427-1.445,2.831-2.915,4.277-4.34c2.103-2.069-0.065-3.137-1.859-4.075
	c-1.043-0.546-3.134-1.128-2.356-2.601c0.951-1.799,2.42-4.708,4.704-5.144c1.378-0.263,2.7-0.367,4.104-0.352
	c2.772,0.03,3.11-1.289,3.38-3.849c0.184-1.749,1.035-6.011-2.623-5.586c-0.958,0.111-2.3,0.389-3.255,0.066
	c-3.742-1.266-3.887-7.949-0.963-10.24c3.83-3.002,0.73-6.615-2.118-9.097c-1.365-1.19-2.88-2.514-4.598-3.191
	c-1.988-0.784-3.208,2.881-4.042,3.898c-3.437,4.195-7.139,1.352-11.374,0.073c-0.22-0.067-0.523-0.183-0.575-0.449
	c-0.343-1.761,0.162-3.548-0.506-5.323c-1.399-3.725-4.093-4.392-8.114-3.63c-3.346,0.634-4.143,4.618-3.183,7.669
	c0.219,0.695-0.918,1.276-1.84,1.299c-1.681,0.875-4.973,2.506-6.639,1.616c-0.672-0.359-1.198-1.486-1.695-2.028
	c-0.816-0.889-4.003-2.893-3.074-3.732c-2.149,1.944-4.551,4.239-6.002,6.763c-1.072,1.865,4.302,4.808,5.765,5.367
	c0.337,0.128,0.388,0.529,0.215,0.802c-1.466,2.324-2.06,6.272-4.812,7.473c-2.137,0.933-4.704,0.677-7.09,0.771
	c0.297,2.48-0.031,5.104-0.121,7.559c-0.081,2.203,3.178,0.653,4.985,0.906c1.959,0.275,4.291,1.02,4.941,3.167
	c0.635,2.096-0.026,4.577,0.665,6.537c0.122,0.347-0.275,0.731-0.534,0.879c-5.005,2.848-4.386,5.379-0.685,8.398
	c1.592,1.3,4.968,3.72,6.467,1.275c0.358-0.585,1.01-0.995,1.623-1.263c2.673-1.167,6.596-0.049,9.238,0.725
	c3.255,0.953,2.848,3.579,2.691,6.24c2.131-0.314,4.33-0.344,6.456-0.549c0.668-0.064,6.763-0.292,5.412-2.311
	C327.423,295.103,326.742,294.24,326.79,293.407z M331.989,278.088c-6.15,5.913-16.718,7.915-22.894,0.741
	c-5.86-6.807-3.998-14.655,3.159-19.499c0.162-0.11,0.578-0.226,1.023-0.306c6.104-2.329,14.042-3.258,18.891,2.095
	C336.563,265.97,336.89,273.375,331.989,278.088z M331.426,275.493c5.476-11.358-6.971-20.071-17.352-15.769
	c-0.027,0.011-0.063,0.021-0.096,0.032c-5.094,3.729-7.571,10.048-3.862,15.796c1.844,2.856,4.721,5.583,8.161,6.345
	C323.342,283.02,329.146,280.22,331.426,275.493z M334.054,223.488c0.043-1.503,0.209-3.027,0.005-4.525
	c-0.107-0.793,1.023-1.191,1.629-1.258c1.076-0.12,5.331-0.868,3.204-2.585c-0.524-0.422-2.346-1.467-2.152-2.411
	c0.35-1.698,2.881-4.013,4.354-4.774c0.439-0.227,1.289-0.374,1.734-0.073c0.893,0.602,1.564,0.988,2.266,1.819
	c0.223,0.562,0.483,0.803,0.781,0.74c-0.541-4.333,2.537-5.095,6.412-5.104c2.27-0.005,3.077,1.913,3.441,3.78
	c0.537,2.76,1.794,1.042,3.155-0.381c2.499-2.612,7.312,1.032,8.167,3.494c0.632,1.816-0.912,3.799-1.515,5.417
	c-0.337,0.905,3.013,0.796,3.564,1.417c1.049,1.181,0.694,4.188-0.249,5.281c-1.081,1.254-4.011,0.633-4.604,1.644
	c-0.674,1.148,1.553,1.433,2.235,2.697c0.482,0.895-2.696,3.354-3.128,3.777c-0.807,0.791-2.054,1.562-3.226,0.936
	c-1.492-0.798-2.587-3.829-2.351-0.086c0.213,3.369-6.354,2.691-8.28,3.059c-0.53,0.101-1.729,0.231-1.667-0.632
	c0.369-5.118-3.891-1.457-5.507-1.537c-2.51-0.124-3.953-1.772-5.439-3.574c-0.182-0.22-0.123-0.417-0.018-0.652
	c0.788-1.759,2.574-1.978,2.087-4.09c-0.538-2.33-3.169-1.24-4.589-1.807C334.11,223.96,334.047,223.729,334.054,223.488z
	 M337.047,219.253c0.041,1.033-0.032,2.068-0.063,3.107c-0.004,0.131,1.797-0.047,2.575,0.143c2.548,0.624,2.061,2.693,2.386,4.709
	c0.063,0.392-0.233,0.68-0.534,0.879c-4.297,2.848,2.141,3.539,1.619,4.113c0.596-0.655,1.353-0.972,2.24-1.072
	c3.203-0.36,5.364,0.629,5.478,3.519c1.927-0.04,4.236-0.055,3.531-1.74c-0.742-1.775,2.681-2.744,3.619-3.123
	c1.769-0.714,2.555,0.432,3.698,1.457c0.037-0.03,0.065-0.054,0.106-0.085c0.252-0.257,0.504-0.513,0.756-0.77
	c0.952-0.511,0.944-1.136-0.024-1.877c-0.516-0.272-1.11-0.494-1.485-0.958c-0.173-0.215-0.135-0.423-0.018-0.652
	c0.58-1.131,1.292-2.284,2.508-2.814c1.396-0.609,3.145,0.223,3.26-1.88c0.158-2.904-1.414-1.258-3.09-2.154
	c-0.415-0.222-1.263-1.343-1.052-1.909c0.253-0.681,1.563-5.321,1.209-5.735c-0.806-0.94-1.721-2-2.867-2.535
	c-0.242-0.113-1.021,1.326-1.168,1.477c-1.981,2.05-3.982,1.091-6.333,0.223c-0.182-0.067-0.567-0.183-0.575-0.449
	c-0.061-2.018,0.117-4.587-3.574-3.901c-0.778,0.145-0.488,2.472-0.416,2.886c0.116,0.664-0.8,1.179-1.634,1.291
	c-0.893,0.387-1.747,0.68-2.753,0.806c-0.342,0.043-0.925,0.032-1.161-0.284c-1.142-1.532-0.477-3.331-2.155-1.431
	c-1.757,1.987-1.417,2.492,1.222,3.783c0.335,0.164,0.383,0.5,0.215,0.802C340.66,218.522,340.003,218.903,337.047,219.253z
	 M346.029,226.029c-2.864-3.33-1.853-7.066,1.618-9.415c0.111-0.076,0.346-0.154,0.625-0.222c3.142-1.223,7.484-1.983,10.021,0.817
	c2.13,2.351,2.255,5.872-0.114,8.15C355.071,228.347,349.205,229.72,346.029,226.029z M348.004,224.027
	c0.827,1.284,2.14,2.542,3.688,2.884c1.959,0.434,3.914-0.797,4.769-2.569c2.111-4.38-2.258-9.335-6.899-7.44
	C347.306,218.611,346.362,221.48,348.004,224.027z M368.736,243.084c0.893,0.602,1.564,0.988,2.267,1.819
	c0.223,0.562,0.483,0.803,0.781,0.74c-0.541-4.333,2.537-5.095,6.412-5.103c2.27-0.005,3.076,1.913,3.441,3.779
	c0.468,2.399,1.836,0.999,3.155-0.381c2.499-2.612,7.312,1.031,8.167,3.494c0.631,1.816-0.913,3.8-1.516,5.418
	c-0.337,0.904,3.013,0.796,3.564,1.416c1.049,1.181,0.693,4.188-0.248,5.282c-1.082,1.256-4.01,0.631-4.604,1.643
	c-0.675,1.148,1.552,1.432,2.234,2.697c0.482,0.895-2.696,3.354-3.128,3.778c-0.807,0.791-2.053,1.562-3.225,0.936
	c-1.495-0.799-2.586-3.828-2.351-0.086c0.211,3.37-6.353,2.691-8.28,3.059c-0.531,0.102-1.729,0.231-1.667-0.632
	c0.367-5.118-3.891-1.457-5.507-1.537c-2.512-0.124-3.953-1.772-5.439-3.573c-0.182-0.22-0.123-0.417-0.018-0.652
	c0.788-1.759,2.574-1.978,2.086-4.09c-0.537-2.328-3.168-1.241-4.589-1.807c-0.254-0.101-0.317-0.333-0.311-0.573
	c0.043-1.503,0.209-3.027,0.005-4.525c-0.107-0.793,1.023-1.19,1.629-1.258c1.076-0.12,5.332-0.869,3.204-2.585
	c-0.523-0.423-2.347-1.468-2.152-2.411c0.35-1.699,2.882-4.012,4.354-4.775C367.441,242.93,368.291,242.784,368.736,243.084z
	 M369.195,247.146c-1.143-1.532-0.478-3.331-2.156-1.43c-1.757,1.987-1.417,2.492,1.223,3.783c0.335,0.164,0.383,0.5,0.215,0.802
	c-1.907,3.444-2.563,3.826-5.521,4.176c0.041,1.033-0.033,2.067-0.063,3.107c-0.004,0.131,1.797-0.047,2.574,0.143
	c2.548,0.624,2.063,2.693,2.387,4.709c0.063,0.392-0.233,0.68-0.534,0.879c-4.293,2.847,2.14,3.542,1.62,4.113
	c0.596-0.655,1.352-0.972,2.24-1.072c3.203-0.36,5.363,0.63,5.477,3.518c1.927-0.04,4.237-0.055,3.532-1.74
	c-0.743-1.776,2.681-2.745,3.619-3.123c1.77-0.712,2.554,0.432,3.698,1.457c0.037-0.03,0.064-0.054,0.105-0.085
	c0.252-0.257,0.504-0.514,0.756-0.771c0.951-0.51,0.943-1.136-0.023-1.877c-0.517-0.272-1.111-0.495-1.486-0.958
	c-0.173-0.214-0.135-0.424-0.018-0.652c0.582-1.131,1.292-2.283,2.509-2.814c1.396-0.609,3.144,0.223,3.259-1.88
	c0.158-2.904-1.414-1.258-3.09-2.154c-0.414-0.222-1.264-1.342-1.052-1.909c0.253-0.68,1.563-5.322,1.209-5.735
	c-0.806-0.94-1.72-2-2.866-2.535c-0.242-0.113-1.022,1.326-1.168,1.477c-1.989,2.057-3.981,1.091-6.333,0.223
	c-0.182-0.067-0.567-0.183-0.575-0.449c-0.061-2.017,0.114-4.586-3.574-3.901c-0.779,0.145-0.489,2.472-0.416,2.887
	c0.116,0.664-0.801,1.179-1.635,1.291c-0.893,0.387-1.747,0.679-2.752,0.806C370.015,247.473,369.432,247.462,369.195,247.146z
	 M371.939,261.252c-2.866-3.329-1.854-7.066,1.618-9.415c0.111-0.076,0.345-0.153,0.623-0.221c3.142-1.223,7.485-1.984,10.022,0.817
	c2.13,2.351,2.255,5.872-0.114,8.15C380.981,263.57,375.115,264.941,371.939,261.252z M373.913,259.25
	c0.828,1.283,2.141,2.542,3.688,2.884c1.959,0.434,3.915-0.796,4.77-2.568c2.11-4.38-2.258-9.334-6.898-7.441
	C373.216,253.833,372.271,256.703,373.913,259.25z M172.364,179.455c0.986,2.566,5.465,10.89,0.736,11.909
	c-1.772,0.382-1.355,1.813,0.385,1.438c7.542-1.625,3.61-9.353,1.777-14.123C174.874,177.668,172.01,178.531,172.364,179.455z
	 M166.396,194.968c-1.086,2.019-3.093,3.491-5.491,3.324c-2.41-0.167-3.848-2.179-4.681-4.259c-0.215-0.538,1.805-1.277,2.604-1.012
	c0.098-0.004,0.197-0.014,0.293-0.011c2.425,0.077,4.701,0.998,7.023,1.604C166.289,194.652,166.495,194.784,166.396,194.968z
	 M163.38,195.688c-1.192-0.332-2.38-0.739-3.588-1.033c0.377,0.667,0.834,1.286,1.451,1.732c0.221,0.159,1.011,0.747,1.201,0.557
	C162.828,196.564,163.115,196.146,163.38,195.688z M163.809,181.803c0-1.042,0-2.083,0-3.124c0-0.588-2.898-0.135-2.898,0.776
	c0,1.042,0,2.083,0,3.124C160.91,183.167,163.809,182.714,163.809,181.803z M180.99,179.199c0-0.008-0.006-0.014-0.007-0.021
	c-0.005-0.038-0.022-0.071-0.049-0.1c-0.179-0.485-0.731-0.695-1.271-0.656c-0.581,0.042-1.593,0.462-1.593,1.188
	c0,0.722,0,1.443,0,2.165c0,0.731,0.696,1.025,1.347,0.979c0.581-0.042,1.593-0.462,1.593-1.188c0-0.722,0-1.443,0-2.165
	c0-0.06-0.012-0.113-0.021-0.167C180.99,179.222,180.99,179.21,180.99,179.199z M166.518,168.686
	c-3.001-0.536-5.771,0.182-8.231,1.954c-0.475,0.342-0.776,1.038-0.175,1.428c0.609,0.395,1.519,0.207,2.073-0.193
	c1.682-1.211,3.273-1.533,5.306-1.17C166.86,170.949,168.455,169.032,166.518,168.686z M181.183,168.356
	c-2.221-1.389-4.584-1.173-6.76,0.188c-0.512,0.32-0.742,1.071-0.168,1.45c0.637,0.421,1.482,0.182,2.074-0.188
	c0.925-0.578,1.725-0.367,2.611,0.188c0.62,0.388,1.508,0.227,2.074-0.188C181.481,169.465,181.798,168.74,181.183,168.356z" fill="#0984E3"></path>
</svg>