<?xml version="1.0" standalone="no"?>
<svg version="1.1" id="Layer_1" xmlns="http://www.w3.org/2000/svg" xmlns:xlink="http://www.w3.org/1999/xlink" x="0px" y="0px" width="595.28px" height="595.28px" viewBox="0 0 595.28 595.28" enable-background="new 0 0 595.28 595.28" xml:space="preserve">
<path id="color_x5F_2" fill="#FBC02D" d="M276.712,355.8c0.185,4.31,0.139,8.627,0.021,12.937
	c-0.221,8.119-1.009,16.218-2.037,24.27c-0.807,6.316-1.082,13.737-4.074,19.453c-0.242,0.463-0.52,0.896-0.812,1.313
	c-1.583,1.913-3.573,3.645-6.068,4.803c-1.227,0.569-2.487,1.08-3.753,1.539c-0.723,0.225-1.447,0.426-2.164,0.604
	c-9.635,2.382-19.969,1.176-29.781,1.135c1.236-3.142,0.697-6.349-2.958-8.219c-3.145-1.609-6.153-0.013-8.812,2.008
	c1.772-2.989,3.578-5.966,4.957-9.127c1.452,0.576,3.008,0.88,4.647,0.881c0.001,0,0.001,0,0.001,0
	c7.14,0,14.846-5.623,19.176-13.992c2.754-5.322,3.874-11.1,3.154-16.269c-0.618-4.438-2.539-7.975-5.456-10.208
	c0.318-0.199,0.554-0.474,0.596-0.811c0.39-3.132-0.184-8.366,2.641-10.479c5.366-4.014,14.804-4.714,21.168-5
	c2.243-0.101,4.487,0.039,6.722,0.208C276.829,351.067,276.604,353.284,276.712,355.8z M240.962,396.23
	c-1.097,1.247-2.314,2.626-3.49,3.946C238.724,399.018,239.897,397.694,240.962,396.23z M221.2,415.556
	c0.592-0.009,1.188-0.005,1.771,0.031C222.401,415.45,221.802,415.446,221.2,415.556z M277.881,349.13
	c0.006,0,0.012,0.001,0.018,0.002l0.003-0.061C277.895,349.091,277.888,349.11,277.881,349.13z M192.663,424.54
	c2.282-3.35,4.569-6.749,8.715-7.86c1.482-0.397,2.397,0.222,3.185,1.08c0.22-0.443,0.44-0.887,0.659-1.333
	c-0.159-0.08-0.26-0.203-0.262-0.379c-0.124-8.706-1.73-17.417-5.192-25.428c-0.407-0.943,2.444-1.828,2.898-0.776
	c2.925,6.771,4.513,14.042,5.014,21.387c1.354-3.013,2.576-6.078,3.478-9.19c0.018-0.06,0.045-0.114,0.072-0.168
	c-1.915-2.178-3.192-5.086-3.674-8.545c-0.72-5.168,0.4-10.946,3.155-16.268c0.125-0.242,0.263-0.474,0.394-0.711
	c-6.107-1.954-11.588-4.631-17.242-7.623c-2.764-1.462-5.605-2.414-8.521-3.045c-2.512-0.183-5.072-0.406-6.956-0.579
	c5.599,8.994,9.927,18.708,11.947,29.159C192.265,404.251,192.611,414.394,192.663,424.54z M188.877,407.474
	c0.133,2.515,0.343,5.136,0.584,7.656C189.324,412.552,189.133,410.001,188.877,407.474z M200.244,419.934
	c0.646-0.308,1.196-0.382,1.581-0.107c0.116,0.083,0.201,0.144,0.307,0.219c-0.082-0.125-0.172-0.248-0.239-0.376
	c-0.258-0.491-0.464-0.554-0.231-0.731C201.169,419.243,200.7,419.581,200.244,419.934z M149.27,487.796l3.286-1.385
	c-0.107-0.097-0.211-0.191-0.315-0.287C151.257,486.695,150.268,487.255,149.27,487.796z M197.102,449.953
	c-4.317-6.781-8.687-13.519-14.174-19.413c-7.337,4.223-14.877,8.064-22.464,11.816c-3.348,1.655-6.726,3.267-10.011,5.041
	c-1.284,0.694-4.484,1.864-5.12,3.326c-0.211,0.485-1.046,0.808-1.772,0.891c-0.688,0.149-1.423,0.019-1.601-0.567
	c-5.844-19.23-8.964-44.112-24.742-58.198c-0.979-0.874,1.754-2.048,2.664-1.235c13.438,11.998,17.795,31.75,22.369,49.268
	c0.66-11.993,0.785-24.1-0.669-36.021c-1.471-12.059-4.123-26.434-14.134-34.501c-0.016-0.013-0.021-0.026-0.033-0.04
	c-5.953,2.146-12.003,4.037-17.843,6.487c-10.911,4.578-20.306,10.458-22.104,22.968c-1.626,11.319-0.112,23.34,2.919,34.313
	c3.102,11.226,7.22,22.63,11.778,33.34c2.64,6.202,5.606,12.392,9.626,17.836c2.217,3.003,4.946,7.306,8.758,8.589
	c6.852,2.308,14.772-0.992,20.954-3.87c3.443-1.603,6.803-3.375,10.101-5.261c0.2-0.207,0.524-0.388,0.886-0.511
	c4.302-2.498,8.494-5.188,12.596-7.993c3.548-2.426,7.1-4.921,10.614-7.485c0-0.058,0.002-0.116,0.002-0.174
	c0.005-0.624,0.932-1.07,1.739-1.099c7.243-5.363,14.268-11.081,20.638-17.335C197.633,450.202,197.245,450.178,197.102,449.953z
	 M87.825,390.493c-0.441,0.551-0.818,1.432-1.141,2.54c0.591-1.282,1.289-2.48,2.071-3.61
	C88.428,389.778,88.112,390.134,87.825,390.493z M198.49,494.825l0.123-0.005c-0.054-0.023-0.098-0.051-0.128-0.084L198.49,494.825z
	 M194.204,455.968l2.043-1.022c-0.004-0.266-0.009-0.532-0.012-0.799C195.562,454.757,194.889,455.368,194.204,455.968z
	 M154.657,484.69c3.511,3.226,9.089,7.651,13.502,6.494c0.211-0.067,0.428-0.14,0.646-0.213c1.38-0.556,2.623-1.718,3.62-3.727
	c2.553-5.143,3.118-11.042,3.246-16.743c-2.177,1.561-4.36,3.1-6.543,4.605C164.597,478.232,159.742,481.597,154.657,484.69z
	 M212.409,455.667c-0.096-0.993-0.015-3.865-0.737-5.079c-3.97,0.71-8.144,0.666-12.122,0.464c-0.188,0.182-0.378,0.363-0.568,0.544
	c0.08,0.042,0.127,0.1,0.127,0.175c0.064,14.05,1.459,28.052,2.224,42.072c0.022,0.41-0.587,0.74-1.252,0.916l13.875-0.578
	c-0.429-8.629-0.522-17.273-0.847-25.906C212.949,464.072,212.813,459.854,212.409,455.667z M158.016,380.764
	c0.287,20.38,3.993,41.526-1.11,61.537c6.025-2.994,12.047-5.99,17.968-9.179c-0.271-0.152-0.452-0.405-0.458-0.778
	c-0.234-17.404-7.289-33.504-10.619-50.38C161.983,381.585,159.853,381.342,158.016,380.764z M156.666,374.51
	c-0.276,4.625,3.888,5.289,7.661,5.911c0.204-0.127,0.437-0.225,0.679-0.284c1.04-3.059,2.163-6.074,3.7-8.924l-2.025-2.315
	c-1.919-1.749-3.856-3.504-5.042-5.762l-0.454-0.519c-1.374,4.029-3.114,7.897-5.203,11.627
	C156.384,374.242,156.677,374.325,156.666,374.51z M153.817,375.103c-0.021-0.003-0.042-0.007-0.063-0.01l0.039,0.089
	C153.801,375.155,153.806,375.128,153.817,375.103z"></path>
<path id="color_x5F_1" d="M177.876,310.254c3.905,5.615,8.028,16.545-2.114,17.728c-1.972,0.23-1.381-1.978,0.244-2.167
	c7.032-0.82,1.375-11.174-0.78-14.272C174.351,310.285,177.106,309.148,177.876,310.254z M161.865,330.773
	c1.354,1.949,3.288,3.329,5.519,4.11c0.646,0.227,1.467,0.015,2.043-0.307c0.318-0.178,0.945-0.765,0.291-0.994
	c-2.115-0.741-3.867-2.047-5.147-3.89C164.08,328.986,161.271,329.918,161.865,330.773z M161.874,314.247
	c-0.116-0.122-0.22-0.246-0.313-0.385c-0.021-0.038-0.027-0.047-0.037-0.063c-0.041-0.101-0.069-0.207-0.095-0.312
	c-0.107-0.43-0.073-0.879-0.073-1.351c-0.001-1.575-2.943-1.179-2.943,0.193c0.001,1.145-0.026,2.338,0.815,3.221
	c0.521,0.546,1.315,0.578,1.979,0.251C161.676,315.57,162.395,314.793,161.874,314.247z M180.386,312.491
	c0.49-0.05,1.623-0.408,1.623-1.073c0-0.889,0-1.778,0-2.667c0-0.687-0.722-0.836-1.293-0.778c-0.49,0.05-1.623,0.408-1.623,1.073
	c0,0.889,0,1.778,0,2.667C179.093,312.399,179.814,312.549,180.386,312.491z M155.527,310.286c2.235-1.641,4.618-2.944,7.308-3.659
	c1.804-0.479,1.234-2.602-0.568-2.123c-3.188,0.847-6.044,2.396-8.692,4.341C151.988,310.009,154.313,311.178,155.527,310.286z
	 M174.63,304.296c2,0,4,0,6,0c0.636,0,1.505-0.235,1.923-0.753c0.432-0.536-0.368-0.708-0.747-0.708c-2,0-4,0-6,0
	c-0.636,0-1.505,0.235-1.923,0.753C173.451,304.124,174.251,304.296,174.63,304.296z M281.41,316.601
	c1.465,1.624,1.54,4.051,1.145,6.102c-0.413,2.145-1.534,4.455-3.159,6.037c2.102,7.167,0.891,13.47-1.494,20.333
	c-0.007,0.02-0.014,0.039-0.021,0.059c0.006,0,0.012,0.001,0.018,0.002c0.163,0.021,0.326,0.037,0.489,0.06
	c0.32,0.044,0.917,0.236,0.944,0.652c0.857,13.08,0.335,26.207-1.239,39.216c-1.103,9.105-0.901,20.939-7.926,27.817
	c-10.398,10.181-29.323,7.12-42.417,7.068c-0.156,0-0.29-0.018-0.415-0.043c0.42,7.413,0.693,17.501-5.881,22.589
	c-2.088,1.616-4.411,2.697-6.858,3.416c0.563,1.208,0.544,3.25,0.634,4.183c0.392,4.059,0.577,8.136,0.73,12.21
	c0.343,9.072,0.443,18.155,0.898,27.222c0.045,0.891-2.867,1.405-2.898,0.776c-0.002-0.039-0.003-0.078-0.005-0.117
	c-0.429-8.629-0.522-17.273-0.847-25.906c-0.159-4.202-0.295-8.42-0.699-12.607c-0.096-0.993-0.015-3.865-0.737-5.079
	c-3.97,0.71-8.144,0.666-12.122,0.464c-0.188,0.182-0.378,0.363-0.568,0.544c0.08,0.042,0.127,0.1,0.127,0.175
	c0.064,14.05,1.459,28.052,2.224,42.072c0.022,0.41-0.587,0.74-1.252,0.916c-0.569,0.151-1.175,0.187-1.467,0.062
	c-0.054-0.023-0.098-0.051-0.128-0.084c-0.029-0.034-0.049-0.071-0.052-0.116c-0.722-13.222-1.988-26.428-2.187-39.673
	c-0.004-0.266-0.009-0.532-0.012-0.799c-0.674,0.61-1.347,1.221-2.031,1.821c-4.979,4.365-10.238,8.478-15.589,12.4
	c-0.067,7.71-0.365,19.01-7.677,23.722c-6.299,4.06-13.628-1.382-18.383-5.679c-0.107-0.097-0.211-0.191-0.315-0.287
	c-0.983,0.57-1.973,1.13-2.971,1.671c-7,3.797-14.358,6.79-21.864,7.748c-4.421,0.564-9.915,0.573-13.164-3.046
	c-8.289-9.232-13.616-20.062-17.857-31.656c-7.151-19.552-16.915-43-11.041-64.162c0.357-1.286,0.812-2.497,1.342-3.648
	c0.591-1.282,1.289-2.48,2.071-3.61c9.041-13.065,30.027-16.512,43.644-22.124c0.052-0.021,0.105-0.039,0.16-0.057
	c2.854-4.137,5.467-8.447,8.649-12.347c0.107-0.131,0.301-0.247,0.538-0.341c0-3.099,0-6.197,0-9.296
	c-3.392,1.135-7.493,1.776-10.318-0.618c-2.758-2.337-3.623-6.118-3.06-9.61c0.23-1.428,0.659-2.777,1.249-3.987
	c-0.181-0.044-0.329-0.122-0.414-0.249c-6.431-9.6-17.552-23.504-4.275-32.588c8.594-5.878,19.247-6.9,28.061-12.386
	c7.346-4.572,14.27-11.415,23.202-12.65c0.029-0.004,0.059-0.007,0.088-0.011c1.732-0.325,3.381-0.395,4.99-0.258
	c3.446,0.136,6.82,1.017,9.413,3.196c0.324,0.183,0.648,0.365,0.977,0.562c2.377,1.426,2.893,3.657,2.492,6.038
	c0.078,3.455-1.931,6.988-4.53,9.21c-0.052,0.044-0.107,0.085-0.16,0.129c-0.76,1.005-1.302,1.622-1.302,1.622
	s-0.184,0.062-0.508,0.17c0.611-0.052,1.104,0.003,0.997,0.155c-3.332,4.712,0.72,14.313,2.103,19.156
	c1.804,6.316,4.039,12.845,3.389,19.524c-0.572,5.882-4.542,9.208-9.315,12.239c-5.708,3.625-12.839,4.972-11.856,12.456
	c0.535,1.647,1.069,3.505,1.976,5.045c0.153-0.041,0.31-0.064,0.465-0.058c6.604,0.259,13.212,0.881,19.185,3.917
	c5.891,2.995,11.492,5.913,17.775,7.979c4.473-6.788,11.215-11.176,17.519-11.176c2.05,0,3.974,0.457,5.72,1.355
	c1.738,0.049,3.381,0.434,4.898,1.141c0.504-4.705,0.386-9.107,4.324-11.642c-4.524-4.737-10.656-12.407-9.971-19.17
	c0.553-5.459,5.833-8.138,10.821-8.646c-1.339-7.538-7.835-26.737,4.152-27.412c5.624-0.316,7.405,7.531,7.952,14.76
	c3.389-0.301,6.972,0.678,9.228,3.283c1.944-1.975,4.862-3.939,7.224-1.961c0.443,0.372,0.793,0.821,1.096,1.305
	C277.309,315.409,279.942,314.973,281.41,316.601z M268.328,318.779c1.215,2.62,1.189,5.82-0.114,8.412
	c0.026,0.025,0.057,0.047,0.081,0.076c0.793,0.973,1.805,2.215,3.099,2.514c0.183,0.042,0.002,0.116,0.32-0.066
	c-0.034,0.02,0.334-0.308,0.518-0.563c1.264-1.744,1.516-4.333,1.521-6.415c0.005-1.954-0.166-4.582-1.556-6.113
	c-0.244-0.268-0.468-0.429-0.746-0.497c0.064,0.016-0.127-0.014-0.258,0.045C270.009,316.704,269.121,317.772,268.328,318.779z
	 M257.87,314.774c0.216,3.796,0.128,7.264,0.129,9.069c0,0.234-0.139,0.44-0.35,0.615c-0.136,2.007,0.27,4.169,1.97,5.399
	c2.368,1.713,4.496,0.14,5.63-2.219C268.051,321.812,264.298,314.799,257.87,314.774z M246.403,312.671
	c0.593,4.422,1.577,8.768,2.263,13.172c0.021,0.129-0.008,0.252-0.072,0.368c2.352,0.362,5.224,1.325,6.911,2.907
	c-0.867-1.661-0.939-3.729-0.533-5.737c0.016-0.077,0.061-0.149,0.117-0.219c-0.025-3.203-0.138-6.413-0.516-9.593
	c-0.442-3.729-0.879-9.777-4.026-12.394C244.937,296.511,246.104,310.44,246.403,312.671z M239.062,367.107
	c1.992,2.193,3.322,5.153,3.815,8.695c0.72,5.168-0.4,10.946-3.154,16.269c-3.431,6.631-8.981,11.525-14.69,13.277
	c0.281,0.021,0.561,0.048,0.848,0.048c3.92,0,8.055-1.947,11.592-5.22c1.252-1.158,2.426-2.481,3.49-3.946
	c0.848-1.167,1.63-2.415,2.318-3.745c2.564-4.958,3.612-10.312,2.949-15.074c-0.646-4.635-2.842-8.14-6.184-9.869
	C239.726,367.377,239.396,367.237,239.062,367.107z M210.919,419.791c2.448-4.61,5.501-8.969,7.572-13.75
	c0.021-0.051,0.054-0.096,0.083-0.143c-1.327-0.201-2.595-0.591-3.775-1.202c-0.461-0.238-0.899-0.51-1.321-0.802
	c-1.772,5.5-4.438,10.854-7.008,16.018C207.45,420.741,208.722,421.073,210.919,419.791z M217.819,379.311
	c-2.565,4.958-3.613,10.311-2.95,15.073c0.624,4.478,2.704,7.884,5.856,9.67c6.363-0.095,13.263-5.251,17.222-12.902
	c2.564-4.958,3.612-10.312,2.949-15.074c-0.624-4.478-2.705-7.884-5.857-9.67C228.678,366.504,221.778,371.661,217.819,379.311z
	 M214.026,375.353c-0.041,0.19-0.172,0.388-0.355,0.568c-0.416,0.666-0.816,1.347-1.185,2.058
	c-2.565,4.958-3.613,10.311-2.95,15.073c0.479,3.44,1.814,6.252,3.836,8.183c0.235,0.093,0.425,0.243,0.531,0.45
	c0.563,0.471,1.16,0.897,1.815,1.236c0.32,0.166,0.651,0.306,0.985,0.436c-1.992-2.194-3.322-5.154-3.815-8.695
	c-0.72-5.168,0.4-10.946,3.155-16.268c3.431-6.631,8.982-11.526,14.69-13.278c-0.281-0.021-0.56-0.048-0.848-0.048
	C224.233,365.066,218.131,369.104,214.026,375.353z M178.123,364.68c0.088,0.14,0.174,0.28,0.262,0.42
	c5.599,8.994,9.927,18.708,11.947,29.159c1.933,9.991,2.279,20.134,2.331,30.28c2.282-3.35,4.569-6.749,8.715-7.86
	c1.482-0.397,2.397,0.222,3.185,1.08c0.22-0.443,0.44-0.887,0.659-1.333c-0.159-0.08-0.26-0.203-0.262-0.379
	c-0.124-8.706-1.73-17.417-5.192-25.428c-0.407-0.943,2.444-1.828,2.898-0.776c2.925,6.771,4.513,14.042,5.014,21.387
	c1.354-3.013,2.576-6.078,3.478-9.19c0.018-0.06,0.045-0.114,0.072-0.168c-1.915-2.178-3.192-5.086-3.674-8.545
	c-0.72-5.168,0.4-10.946,3.155-16.268c0.125-0.242,0.263-0.474,0.394-0.711c-6.107-1.954-11.588-4.631-17.242-7.623
	c-2.764-1.462-5.605-2.414-8.521-3.045C182.982,365.169,180.576,364.867,178.123,364.68z M165.949,359.787
	c-0.642,0.27-1.315,0.585-2.004,0.853c-0.018,0.122-0.075,0.248-0.167,0.372c0.111,0.032,0.191,0.084,0.222,0.166
	c1.264,3.404,4.292,5.682,6.905,8.172c0.52-1.739,1.5-3.252,3.063-4.522c-0.354,0.05-0.654,0.03-0.785-0.112
	c-1.152-1.248-1.854-2.88-2.43-4.528c-0.167-0.04-0.286-0.113-0.318-0.233c-0.172-0.642-0.285-1.244-0.366-1.825
	c-0.027-0.083-0.055-0.169-0.082-0.252C168.683,358.596,167.316,359.211,165.949,359.787z M161.185,362.617
	c-1.374,4.029-3.114,7.897-5.203,11.627c0.402-0.003,0.695,0.08,0.685,0.266c-0.276,4.625,3.888,5.289,7.661,5.911
	c0.204-0.127,0.437-0.225,0.679-0.284c1.04-3.059,2.163-6.074,3.7-8.924c0.047-0.086,0.093-0.172,0.14-0.257
	c-0.688-0.705-1.424-1.382-2.165-2.058c-1.919-1.749-3.856-3.504-5.042-5.762c-0.133-0.253-0.255-0.514-0.368-0.781
	C161.241,362.442,161.214,362.53,161.185,362.617z M158.016,380.764c0.287,20.38,3.993,41.526-1.11,61.537
	c6.025-2.994,12.047-5.99,17.968-9.179c-0.271-0.152-0.452-0.405-0.458-0.778c-0.234-17.404-7.289-33.504-10.619-50.38
	C161.983,381.585,159.853,381.342,158.016,380.764z M186.897,430.908c1.322-0.812,2.425-1.909,3.426-3.142
	c-0.33-0.11-0.563-0.336-0.563-0.717c-0.006-4.034-0.092-8.005-0.299-11.919c-0.137-2.577-0.328-5.128-0.584-7.656
	c-1.475-14.579-5.142-28.357-13.411-41.567c-1.492,1.613-2.104,3.661-2.133,5.938c-0.012,0.912-2.293,1.398-2.797,0.977
	c-1.275,2.751-2.252,5.624-3.218,8.513c-0.071,0.214-0.253,0.383-0.486,0.518c3.394,16.721,10.186,32.672,10.506,49.923
	c1.503-0.829,2.999-1.672,4.485-2.534c0.142-0.464,2.314-1.286,2.763-0.826c0.067,0.069,0.13,0.142,0.196,0.211
	c0.21,0.089,0.344,0.214,0.344,0.37C185.727,429.626,186.322,430.259,186.897,430.908z M142.565,342.67
	c0.758-0.313,2.123-0.331,2.123,0.796c0,3.793,0,7.587,0,11.381c5.257,1.243,10.242,3.467,15.51,4.614
	c0.389-0.129,0.809-0.182,1.151-0.138c0.202-0.108,0.433-0.188,0.692-0.211c-0.42,0.039,0.34-0.11,0.436-0.143
	c0.261-0.09,0.52-0.183,0.776-0.284c0.733-0.29,1.462-0.589,2.183-0.91c1.359-0.605,2.76-1.209,4.015-2.016
	c0.169-0.109,0.362-0.203,0.563-0.275c0.445-3.674,3.17-5.971,7.311-7.937c7.091-3.365,14.206-7.596,13.969-16.303
	c-0.197-7.286-2.592-13.958-4.448-20.943c-1.11-4.181-3.837-11.382-1.222-15.547c-5.457,3.264-11.945,4.98-18.09,6.113
	c-0.057,0.011-0.114,0.018-0.171,0.028c-0.239,0.089-0.475,0.177-0.704,0.263c-4.541,1.703-11.494,1.633-16.662,1.255
	c-1.76-0.025-3.521-0.115-5.279-0.261c7.976,5.777,5.224,19.938-1.968,25.681c0.081,0.07,0.163,0.133,0.245,0.207
	c1.275,1.141-1.219,2.612-2.223,1.716c-0.395-0.353-0.779-0.633-1.16-0.879c-0.199-0.066-0.357-0.157-0.451-0.271
	c-4.307-2.381-7.543,1.786-7.922,6.828C130.675,342.934,135.985,345.387,142.565,342.67z M135.472,366.919
	c5.922,2.505,12.058,4.394,18.211,6.242c2.078-3.817,3.819-7.767,5.117-11.919c-5.281-1.165-10.282-3.308-15.552-4.584
	c-0.241,0.028-0.481,0.014-0.698-0.042C140.034,359.938,137.829,363.482,135.472,366.919z M130.181,369.296
	c10.351,8.366,13.157,23.568,14.443,36.069c1.361,13.242,1.098,26.576,0.229,39.841c-0.025,0.378-0.587,0.706-1.208,0.869
	c0.243,0.877,0.49,1.747,0.741,2.606c2.609-2.149,6.838-3.636,9.402-4.839c0.001-0.009-0.004-0.015-0.001-0.024
	c5.607-20.723,1.418-42.757,1.313-63.864c-0.001-0.179,0.135-0.338,0.341-0.475c-1.11-0.895-1.793-2.195-1.674-4.191
	c0.002-0.037,0.016-0.07,0.026-0.105c0.007-0.027,0.012-0.054,0.023-0.079c-0.021-0.003-0.042-0.007-0.063-0.01
	c-0.068-0.011-0.135-0.024-0.195-0.042c-0.398,0.169-0.833,0.244-1.184,0.139c-6.345-1.905-12.677-3.838-18.778-6.435
	c-0.728,0.198-1.6,0.208-1.796-0.094C131.263,368.874,130.724,369.09,130.181,369.296z M168.806,490.97
	c1.38-0.556,2.623-1.718,3.62-3.727c2.553-5.143,3.118-11.042,3.246-16.743c-2.177,1.561-4.36,3.1-6.543,4.605
	c-4.532,3.126-9.387,6.491-14.472,9.584c3.511,3.226,9.089,7.651,13.502,6.494C168.378,491.126,168.594,491.056,168.806,490.97z
	 M198.079,450.125c-0.446,0.078-0.834,0.054-0.978-0.172c-4.317-6.781-8.687-13.519-14.174-19.413
	c-7.337,4.223-14.877,8.064-22.464,11.816c-3.348,1.655-6.726,3.267-10.011,5.041c-1.284,0.694-4.484,1.864-5.12,3.326
	c-0.211,0.485-1.046,0.808-1.772,0.891c-0.688,0.149-1.423,0.019-1.601-0.567c-5.844-19.23-8.964-44.112-24.742-58.198
	c-0.979-0.874,1.754-2.048,2.664-1.235c13.438,11.998,17.795,31.75,22.369,49.268c0.66-11.993,0.785-24.1-0.669-36.021
	c-1.471-12.059-4.123-26.434-14.134-34.501c-0.016-0.013-0.021-0.026-0.033-0.04c-5.953,2.146-12.003,4.037-17.843,6.487
	c-10.911,4.578-20.306,10.458-22.104,22.968c-1.626,11.319-0.112,23.34,2.919,34.313c3.102,11.226,7.22,22.63,11.778,33.34
	c2.64,6.202,5.606,12.392,9.626,17.836c2.217,3.003,4.946,7.306,8.758,8.589c6.852,2.308,14.772-0.992,20.954-3.87
	c3.443-1.603,6.803-3.375,10.101-5.261c0.2-0.207,0.524-0.388,0.886-0.511c4.302-2.498,8.494-5.188,12.596-7.993
	c3.548-2.426,7.1-4.921,10.614-7.485c0-0.058,0.002-0.116,0.002-0.174c0.005-0.624,0.932-1.07,1.739-1.099
	C184.685,462.097,191.709,456.378,198.079,450.125z M224.465,425.203c-0.633-0.19-1.021-0.697-0.471-1.436
	c1.142-1.533,2.567-3.868,1.606-5.897c-0.621-1.314-1.57-2.027-2.63-2.283c-0.569-0.137-1.169-0.141-1.771-0.031
	c-0.947,0.174-1.895,0.624-2.715,1.283c-1.704,1.371-3.32,2.818-5.147,4.023c-0.039,0.076-0.081,0.15-0.12,0.227
	c-0.3,0.59-1.164,0.869-1.873,0.823c-2.229,0.892-4.637,0.933-6.933-0.003c-0.772,0.075-1.514-0.205-1.419-0.862
	c-0.334-0.298-0.623-0.637-0.861-1.002c-0.082-0.125-0.172-0.248-0.239-0.376c-0.258-0.491-0.464-0.554-0.231-0.731
	c-0.492,0.305-0.961,0.643-1.417,0.996c-0.698,0.54-1.371,1.112-2.055,1.671c-4.018,3.282-5.354,8.196-9.829,11.018
	c4.327,5.176,8.005,10.847,11.639,16.553c0.73-0.109,1.42-0.08,1.277,0.197c6.649,0.346,15.627,0.486,19.784-5.437
	C224.83,438.567,224.806,431.517,224.465,425.203z M269.811,413.773c0.292-0.417,0.569-0.85,0.812-1.313
	c2.992-5.716,3.268-13.137,4.074-19.453c1.028-8.052,1.816-16.151,2.037-24.27c0.117-4.31,0.163-8.627-0.021-12.937
	c-0.108-2.516,0.117-4.733-2.832-4.956c-2.234-0.169-4.479-0.309-6.722-0.208c-6.364,0.287-15.802,0.987-21.168,5
	c-2.824,2.113-2.251,7.347-2.641,10.479c-0.042,0.337-0.277,0.612-0.596,0.811c2.917,2.233,4.838,5.769,5.456,10.208
	c0.72,5.168-0.4,10.946-3.154,16.269c-4.33,8.369-12.036,13.992-19.176,13.992c0,0,0,0-0.001,0c-1.64,0-3.195-0.305-4.647-0.881
	c-1.379,3.161-3.185,6.138-4.957,9.127c2.658-2.021,5.667-3.617,8.812-2.008c3.655,1.87,4.194,5.077,2.958,8.219
	c9.813,0.041,20.146,1.248,29.781-1.135c0.717-0.177,1.441-0.379,2.164-0.604C263.783,418.938,267.517,417.045,269.811,413.773z
	 M276.739,330.397c-0.829,0.27-1.724,0.347-2.673,0.181c-0.101,0.093-0.187,0.201-0.296,0.287c-2.568,2.032-5.287,0.622-7.256-1.364
	c-0.044,0.042-0.082,0.087-0.126,0.127c-2.061,1.891-5.55,3.351-8.294,1.988c-0.58-0.288-1.072-0.637-1.488-1.033
	c0.225,0.489,0.346,1.016,0.324,1.586c-0.148,3.983-6.588,4.043-9.316,4.003c-1.445-0.021,1.24-1.226,1.871-1.217
	c4.752,0.07,5.933-2.902,2.092-5.517c-3.895-2.652-11.193-3.465-13.24,2.046c-2.67,7.189,4.191,16.115,9.029,21.238
	c8.986-3.427,18.367-4.725,27.887-3.879C277.335,342.666,278.393,336.84,276.739,330.397z M275.913,317.219
	c0.685,1.732,0.813,3.78,0.768,5.507c-0.053,1.991-0.353,4.398-1.386,6.274c0.417,0.119,0.819,0.1,1.201-0.036
	c0.154-0.243,0.534-0.463,0.971-0.613C280.492,325.503,281.398,315.48,275.913,317.219z M334.763,413.09
	c-1.049-0.016-2.246,1.2-1.835,1.768c-0.079,0.12-0.125,0.25-0.124,0.388c0.055,10.447,1.111,20.845,1.406,31.28
	c-8.723-5.601-17.334-11.51-25.276-18.155c-0.773-0.647-3.464,0.479-2.693,1.123c8.774,7.342,18.366,13.797,28.021,19.926
	c0.006,0.46,0.022,0.92,0.024,1.381c0.005,0.876,2.904,0.33,2.898-0.776c-0.002-0.435-0.018-0.869-0.023-1.304
	c0-0.055-0.002-0.11-0.003-0.165c-0.154-11.121-1.333-22.192-1.442-33.315c13.673,0.877,25.404,8.709,30.816,21.572
	c5.31,12.62,2.209,27.357-8.466,36.081c-13.486,11.021-36.561,10.698-49.897-0.234c-12.149-9.958-13.297-34.208-1.108-44.573
	c1.499-1.275-0.829-2.189-1.908-1.271c-12.851,10.928-12.15,33.629-1.25,45.582c12.31,13.5,37.339,13.39,52.113,4.455
	c13.331-8.062,18.812-23.15,14.418-38.005C365.765,423.065,350.807,413.329,334.763,413.09z M296.611,411.717
	c8.774,7.343,18.365,13.797,28.021,19.926c0.006,0.461,0.022,0.921,0.024,1.382c0.005,0.876,2.904,0.33,2.898-0.776
	c-0.002-0.435-0.018-0.87-0.023-1.305c0-0.055-0.002-0.11-0.003-0.165c-0.158-11.377-1.397-22.704-1.456-34.086
	c-0.005-0.876-2.904-0.33-2.898,0.776c0.055,10.447,1.111,20.845,1.406,31.28c-8.724-5.6-17.334-11.509-25.276-18.156
	C298.531,409.946,295.841,411.072,296.611,411.717z M299.408,409.286c-0.112-3.662,7.139-6.874,9.704-8.248
	c4.35-2.331,9.871-4.973,14.926-4.701c0.986,0.053,3.123-1.369,1.174-1.474c-6.148-0.331-12.531,2.761-17.852,5.485
	c-3.158,1.617-10.985,5.297-10.851,9.714C296.534,410.837,299.438,410.302,299.408,409.286z M457.979,263.622
	c3.404-1.405,6.596-3.262,10-4.667c0.517-0.213,1.094-0.189,1.49-0.036c0.731-0.568,2.195-0.664,2.532,0.249
	c1.186,3.212,1.331,6.606,1.349,9.994c0.329-0.212,0.656-0.427,0.986-0.638c0.854-0.546,3.412-0.321,1.764,0.732
	c-1.355,0.867-2.707,1.741-4.055,2.621c0.462-0.172,0.965-0.257,1.443-0.257c3.111,0,6.222,0,9.333,0
	c0.489,0,0.575,0.268,0.317,0.526c0.603,0.004,1.04,0.219,0.757,0.753c-2.222,4.191-6.21,6.942-9.524,10.199
	c-0.608,0.598-3.199,0.738-2.455-0.246c-4.486-0.491-8.944-0.813-13.284-2.029c-0.684,0.462-1.367,0.924-2.05,1.387
	c0.008,0.012,0.016,0.023,0.023,0.035c8.633,13.308,11.671,30.995,6.958,46.262c-11.702,37.913-67.156,48.539-94.99,21.925
	c-16.854-16.972-23.198-41.883-9.993-63.085c11.769-18.894,34.512-30.024,56.662-28.927c16.578,0.821,31.053,8.908,40.434,22.477
	c0.338-0.229,0.676-0.458,1.014-0.686c-0.919-0.368,1.015-1.358,2.028-1.369c3.954-2.668,7.917-5.321,11.91-7.922
	c-0.129-0.15-0.212-0.342-0.212-0.591c-0.002-3.461-0.081-6.902-1.25-10.192c-0.016,0.006-0.025,0.013-0.041,0.019
	c-3.312,1.367-6.426,3.156-9.728,4.545c0.354,0.093,0.608,0.309,0.608,0.691c0,4,0,8,0,12c0,1.041-2.908,1.627-2.908,0.325
	c0-4,0-8,0-12c0-0.331,0.295-0.615,0.696-0.808C457.067,264.715,456.753,264.127,457.979,263.622z M454.019,283.945
	c-2.233,1.511-4.467,3.02-6.707,4.52c3.737,5.851,6.139,12.588,6.82,19.612c1.612,16.63-6.04,33.021-21.426,40.51
	c-17.649,8.591-41.497,8.126-56.3-5.918c-8.392-8.495-14.488-19.647-13.753-31.91c0.625-10.404,5.366-20.177,12.934-27.334
	c12.81-12.112,33.447-18.23,50.471-12.16c8.394,2.994,15.41,8.702,20.363,15.881c2.25-1.51,4.494-3.026,6.738-4.545
	c-8.733-13.251-22.915-22.629-40.258-22.748c-22.095-0.152-44.798,11.505-54.193,32.206c-9.283,20.454-2.8,41.815,12.571,57.294
	c23.567,22.534,70.853,18.221,86.081-12.148C465.967,320.042,463.674,299.533,454.019,283.945z M392.132,349.753
	c21.477,7.753,50.093,0.215,57.398-23.436c3.689-11.943,1.9-25.55-4.546-36.3c-3.198,2.13-6.411,4.238-9.647,6.305
	c6.369,10.814,6.633,25.707-2.795,34.93c-11.856,11.598-33.74,13.039-46.127,1.493c-6.133-6.284-10.501-14.699-9.12-23.721
	c1.223-7.992,5.91-15.272,12.66-19.765c12.536-8.344,31.333-9.834,42.034,2.403c0.912,1.043,1.752,2.157,2.521,3.325
	c3.229-2.074,6.438-4.184,9.633-6.317c-2.237-3.434-4.964-6.546-8.163-9.169c-17.389-14.259-44.648-10.695-59.539,5.724
	c-15.582,17.18-13.2,40.296,2.671,56.364C382.864,345.15,387.248,347.99,392.132,349.753z M433.948,325.766
	c4.391-8.678,3.909-19.547-0.939-27.967c-2.486,1.566-4.986,3.11-7.51,4.614c3.838,6.85,3.844,16.083-2.373,21.656
	c-7.655,6.866-20.792,7.625-28.585,0.621c-8.01-8.414-7.28-21.132,3.153-27.327c7.939-4.714,19.701-5.554,26.02,2.38
	c0.348,0.436,0.676,0.889,0.986,1.355c2.517-1.513,5.015-3.056,7.496-4.629c-0.86-1.318-1.826-2.571-2.912-3.728
	c-10.928-11.64-30.27-11.174-41.308,0.39c-11.068,11.596-9.778,27.342,1.144,38.534
	C401.413,343.124,425.866,341.741,433.948,325.766z M423.102,303.817c-1.872,1.092-3.752,2.168-5.65,3.215
	c1.933,3.537,1.804,8.262-1.593,10.956c-4.115,3.263-10.707,3.817-14.79,0.231c-3.935-4.187-3.546-10.229,1.454-13.426
	c4.005-2.562,10.501-3.421,13.887,0.686c0.077,0.094,0.146,0.195,0.22,0.292c1.909-1.064,3.806-2.152,5.688-3.261
	c-0.574-0.869-1.227-1.689-1.975-2.433c-6.844-6.802-18.702-6.362-24.829,1.433c-5.646,7.184-4.39,15.669,1.732,22.101
	c7.926,7.122,23.487,5.821,27.081-5.381C425.821,313.573,425.433,308.178,423.102,303.817z M414.937,308.391
	c-2.259,1.211-4.531,2.398-6.836,3.531c-0.874,0.43-3.507,0.125-1.764-0.732c2.646-1.301,5.255-2.667,7.841-4.069
	c-0.265-0.354-0.554-0.691-0.886-0.993c-3.26-2.958-8.51-2.564-10.92,1.363c-2.06,3.356-1.196,6.885,1.401,9.65
	c3.636,3.192,10.395,2.68,11.743-2.607C416.026,312.537,415.843,310.283,414.937,308.391z M471.187,272.441
	c-3.501,2.293-6.98,4.623-10.453,6.966c4.166,1.178,8.461,1.471,12.764,1.928c2.838-2.587,5.886-5.009,7.712-8.455
	c0.014-0.025,0.036-0.049,0.055-0.074c-0.105,0.008-0.211,0.019-0.314,0.019c-3.11,0-6.222,0-9.333,0
	C471.22,272.826,471.09,272.646,471.187,272.441z M509.993,478.091c-33.33,0-66.66,0-99.99,0c0-23.308,0-46.615,0-69.922
	c0-0.501-2.898-0.075-2.898,0.776c0,23.778,0,47.555,0,71.333c0,0.281,0.912,0.271,1.713,0.057c0.092,0.013,0.188,0.022,0.293,0.022
	c33.555,0,67.109,0,100.664,0C511.482,480.356,511.953,478.091,509.993,478.091z M484.937,417.186c2.486,0,4.973,0,7.459,0
	c-11.568,11.569-19.92,25.511-30.641,37.771c-2.842-2.743-5.76-5.413-8.669-8.08c-2.392-2.192-5.768-6.583-8.969-7.585
	c-0.686-0.215-2.002,0.17-2.502,0.67c-3.964,3.967-7.539,8.595-11.289,12.789c-2.653,2.966-5.293,5.946-7.834,9.009
	c-0.806,0.971-3.216,3.115-3.055,4.518c0.064,0.557,2.985-0.017,2.898-0.776c-0.161-1.393,3.047-4.291,3.78-5.165
	c2.439-2.905,4.974-5.731,7.502-8.558c3.076-3.441,6.27-7.461,9.405-10.784c2.892,1.667,5.978,5.625,8.082,7.555
	c3.054,2.799,6.129,5.593,9.083,8.498c0.49,0.482,2.299-0.187,2.676-0.604c10.901-12.031,19.202-25.946,30.396-37.691
	c0,2.713,0,5.427,0,8.14c0,1.293,2.906,0.702,2.906-0.329c0-3.111,0-6.222,0-9.333c0-0.183-0.063-0.325-0.163-0.436
	c0.715-0.643,0.598-1.856-0.845-1.856c-3.333,0-6.666,0-10,0C483.458,414.939,482.976,417.186,484.937,417.186z M412.938,173.646
	c4.332,0.05,8.663,0.1,12.994,0.149c0.845-0.516,2.343-0.621,2.336-0.01c-0.143,12.444-0.285,24.887-0.427,37.331
	c-0.013,1.098-2.907,1.624-2.898,0.776c0-0.012,0-0.024,0.001-0.037c-4.332-0.049-8.664-0.099-12.996-0.148
	c-0.845,0.515-2.341,0.62-2.334,0.009c0.143-12.444,0.285-24.887,0.427-37.331c0.013-1.098,2.907-1.624,2.898-0.776
	C412.939,173.622,412.939,173.634,412.938,173.646z M412.923,175.082c-0.135,11.732-0.27,23.464-0.402,35.197
	c4.146,0.048,8.293,0.095,12.439,0.142c0.135-11.732,0.27-23.464,0.402-35.197C421.216,175.177,417.069,175.129,412.923,175.082z
	 M438.612,212.049c0.227-19.777,0.453-39.553,0.678-59.33c0.013-1.098,2.908-1.624,2.898-0.776
	c-0.001,0.081-0.002,0.162-0.003,0.243c4.241,0.048,8.481,0.097,12.723,0.146c0.733-0.685,2.618-0.896,2.61-0.212
	c-0.227,19.777-0.453,39.553-0.679,59.33c-0.013,1.098-2.907,1.624-2.898,0.776c0.001-0.081,0.002-0.162,0.003-0.243
	c-4.24-0.048-8.481-0.097-12.722-0.146C440.489,212.521,438.604,212.733,438.612,212.049z M442.169,153.621
	c-0.216,18.928-0.432,37.856-0.648,56.784c4.146,0.048,8.293,0.095,12.439,0.142c0.218-18.928,0.434-37.856,0.65-56.784
	C450.464,153.715,446.316,153.668,442.169,153.621z M465.61,212.358c0.291-25.443,0.582-50.886,0.873-76.329
	c0.013-1.098,2.908-1.624,2.898-0.776c-0.002,0.134-0.003,0.268-0.005,0.402c4.194,0.048,8.389,0.096,12.583,0.144
	c0.59-0.806,2.759-1.104,2.75-0.37c-0.291,25.443-0.581,50.886-0.871,76.329c-0.013,1.098-2.908,1.624-2.898,0.776
	c0.002-0.134,0.003-0.268,0.005-0.402c-4.195-0.048-8.39-0.096-12.585-0.144C467.771,212.794,465.602,213.092,465.61,212.358z
	 M469.36,137.09c-0.279,24.488-0.56,48.977-0.84,73.465c4.146,0.047,8.294,0.095,12.441,0.142
	c0.279-24.488,0.559-48.977,0.838-73.465C477.653,137.184,473.507,137.137,469.36,137.09z M491.609,212.655
	c0.328-28.776,0.657-57.552,0.986-86.328c0.013-1.098,2.907-1.624,2.898-0.776c-0.002,0.165-0.004,0.331-0.006,0.496
	c4.177,0.048,8.353,0.095,12.529,0.143c0.483-0.875,2.814-1.224,2.806-0.463c-0.329,28.776-0.658,57.552-0.986,86.328
	c-0.013,1.098-2.908,1.624-2.898,0.776c0.002-0.165,0.004-0.331,0.006-0.496c-4.177-0.048-8.354-0.095-12.529-0.143
	C493.932,213.067,491.602,213.416,491.609,212.655z M495.472,127.481c-0.316,27.758-0.636,55.518-0.951,83.276
	c4.146,0.048,8.293,0.095,12.439,0.142c0.318-27.759,0.636-55.518,0.952-83.277C503.766,127.575,499.618,127.528,495.472,127.481z
	 M233.324,187.606c-9.175-39.555,19.953-75.62,57.454-85.3c18.23-4.706,38.673-4.635,55.913,3.632
	c13.027,6.247,23.769,16.458,30.913,28.94c1.68-0.765,3.354-1.543,5.008-2.36c2.723-1.345,8.621-3.307,10.115-6.264
	c-0.611-3.576,0.785-7.266,4.392-9.573c4.515-2.887,11.602-3.718,15.394,0.883c3.277,3.976,3.846,10.653-0.559,14.146
	c-4.64,3.68-11.784,4.179-16.372,0.152c-1.022-1.088-1.779-2.306-2.282-3.574c-2.69,2.041-6.731,3.527-9.011,4.639
	c-1.918,0.936-3.972,2.107-6.069,3.065c0.709,1.291,1.393,2.596,2.024,3.931c13.827,29.247,9.696,67.606-16.574,88.657
	c-24.861,19.921-64.165,22.826-92.813,7.741c-5.99,9.046-12.015,18.069-18.001,27.118c1.115,0.738,2.231,1.476,3.348,2.213
	c0.807-0.094,1.527,0.081,1.126,0.689c-10.023,15.163-20.049,30.324-30.072,45.487c-0.457,0.69-2.889,1-2.792,0.232
	c-0.267,0.016-0.502-0.016-0.661-0.12c-6.952-4.575-14.047-8.927-21-13.5c-0.215-0.141-0.046-0.372,0.292-0.594
	c0.019-0.057,0.049-0.118,0.093-0.185c10.023-15.162,20.048-30.324,30.068-45.488c0.503-0.761,3.412-1.063,2.689,0.03
	c-0.009,0.013-0.017,0.026-0.025,0.039c0.977,0.646,1.954,1.292,2.931,1.938c5.984-9.059,11.943-18.134,17.929-27.193
	c0.044-0.066,0.11-0.127,0.187-0.186c-1.887-1.67-3.682-3.451-5.373-5.344C243.192,211.691,236.262,200.271,233.324,187.606z
	 M395.506,125.454c0.124,0.042,0.183,0.105,0.142,0.193c-0.021,0.047-0.055,0.092-0.078,0.139c0.352,1.752,1.291,3.425,2.698,4.923
	c4.099,3.597,12.075,2.924,13.595-3.034c0.833-3.263,0.083-7.102-2.499-9.444c-3.69-3.348-9.935-2.771-12.643,1.641
	C395.574,121.741,395.221,123.636,395.506,125.454z M234.607,254.232c-9.562,14.47-19.126,28.938-28.691,43.405
	c6.516,4.273,13.145,8.367,19.663,12.633c9.508-14.383,19.018-28.766,28.526-43.148
	C247.604,262.826,241.106,258.529,234.607,254.232z M268.862,235.245c-3.602-2.039-7.01-4.383-10.189-7.015
	c-5.898,8.933-11.775,17.881-17.678,26.812c3.412,2.255,6.823,4.511,10.234,6.767C257.098,252.948,262.998,244.108,268.862,235.245z
	 M375.192,137.024c-0.046,0.026-0.082,0.05-0.136,0.078c0.046-0.025,0.093-0.05,0.14-0.075
	C375.194,137.027,375.193,137.026,375.192,137.024z M254.28,220.306c27.089,30.316,83.934,32.473,112.395,2.869
	c21.599-22.465,23.769-58.247,9.328-85.137c-0.174-0.323-0.363-0.638-0.542-0.958c-0.548,0.176-1.096,0.333-1.643,0.445
	c-0.497,0.102-1.724,0.026-0.847-0.604c0.126-0.09,0.27-0.155,0.407-0.227c0.211-0.11,0.608-0.198,1.01-0.242
	c-0.014-0.009-0.026-0.019-0.04-0.028c-1.413,0.29,0.041-0.112,0.403-0.27c0.05-0.021,0.099-0.044,0.149-0.066
	c-8.447-14.681-21.785-26.578-38.104-31.725c-21.071-6.646-45.57-3.736-64.747,7.177c-17.753,10.103-32.184,26.926-36.289,47.306
	C231.198,181.5,239.526,203.153,254.28,220.306z M258.296,215.734c-12.415-14.461-20.391-33.233-17.007-52.537
	c2.878-16.417,12.618-30.955,26.104-40.641c26.879-19.306,68.416-21.562,92.54,3.526c22.539,23.439,26.339,63.061,5.034,88.552
	C339.722,244.841,284.301,244.749,258.296,215.734z M260.981,214.581c20.989,23.418,61.945,27.69,88.29,11.048
	c20.398-12.886,29.796-37.162,26.209-60.696c-1.229-8.059-3.8-15.979-7.646-23.19c-3.697,2.801-7.942,4.994-12.108,6.989
	c-0.63,0.302-2.626,1.519-4.35,2.062c2.469,4.014,2.557,9.762-1.422,12.917c-4.172,3.308-10.361,4.033-14.904,1.222
	c-4.744,5.926-9.083,11.863-15.957,15.571c3.712,5.827,3.984,14.352-1.865,18.99c-6.563,5.204-16.599,5.739-23.052,0.074
	c-5.552-5.911-6.024-14.515-0.402-20.025c-0.367,0.053-0.702,0.034-0.909-0.107c-6.303-4.303-11.578-9.813-15.566-16.306
	c-4.614,2.964-11.05,3.121-15.298-0.607c-4.362-4.644-4.077-11.589,1.537-15.18c4.515-2.887,11.602-3.718,15.394,0.883
	c2.974,3.607,3.703,9.43,0.526,13.088c0.086,0.051,0.161,0.113,0.21,0.196c3.934,6.679,9.32,12.305,15.691,16.697
	c0.291-0.215,0.57-0.436,0.885-0.637c6.436-4.116,16.351-5.161,21.728,1.363c0.001,0.001,0.001,0.002,0.002,0.003
	c6.593-3.615,10.694-9.724,15.29-15.449c-4.012-4.636-3.611-11.308,1.856-14.805c4.311-2.756,10.958-3.626,14.852,0.303
	c0.247-0.051,0.503-0.064,0.742-0.038c1.729-0.322,4.917-2.331,6.567-3.191c3.107-1.621,6.215-3.308,8.992-5.459
	c0.175-0.135,0.385-0.223,0.606-0.276c-3.981-6.964-9.186-13.203-15.604-18.143c-16.797-12.929-39.46-15.459-59.525-9.46
	c-20.278,6.063-38.651,20.99-45.348,41.571C239.302,175.808,246.405,197.603,260.981,214.581z M336.597,162.962
	c4.18,3.294,11.785,2.521,13.266-3.287c0.833-3.263,0.083-7.102-2.499-9.444c-3.69-3.348-9.935-2.771-12.643,1.641
	c-2.156,3.515-1.516,7.124,0.935,10.132C336.341,162.044,336.889,162.362,336.597,162.962z M318.355,193.558
	c1.249-4.897,0.118-10.677-3.757-14.191c-5.805-5.266-15.802-4.213-20.036,2.687c-3.51,5.72-2.155,11.619,2.299,16.361
	C303.28,204.05,315.981,202.857,318.355,193.558z M278.28,158.336c0.833-3.263,0.083-7.102-2.499-9.444
	c-3.69-3.348-9.935-2.771-12.643,1.641c-2.327,3.793-1.4,7.698,1.547,10.836C268.784,164.966,276.761,164.294,278.28,158.336z
	 M107.681,221.297c-1.659-2.15-1.607-5.3-1.565-7.885c0.037-2.211,0.05-4.587,1.675-6.271c1.725-1.789,4.511-2.729,6.575-4.084
	c-0.732-2.163-2.327-5.033-1.862-7.106c0.645-2.875,3.877-5.719,6.078-7.441c3.582-2.8,6.824-1.885,10.609-0.975
	c1.17-2.087,2.198-4.477,4.07-5.967c2.148-1.711,5.959-1.462,8.474-1.45c2.234,0.012,4.858-0.167,6.681,1.358
	c1.767,1.478,2.763,4.266,4.018,6.191c2.213-0.557,4.469-1.406,6.73-1.377c2.091,0.026,3.749,1.518,5.153,2.909
	c1.866,1.849,4.66,4.19,4.773,7.053c0.087,2.184-1.113,4.615-1.747,6.766c0.01,0.006,0.023,0.009,0.033,0.016
	c2.146,1.444,5.237,2.472,6.875,4.549c1.534,1.947,1.026,5.521,0.942,7.771c-0.214,5.76-3.326,7.005-7.637,9.544
	c0.528,2.275,1.937,5.067,1.667,7.349c-0.309,2.607-3.088,4.788-4.879,6.407c-1.766,1.597-3.821,3.34-6.342,3.406
	c-2.005,0.053-4.004-0.676-5.958-1.297c-1.182,2.025-2.244,4.974-4.125,6.265c-1.899,1.305-4.202,1.425-6.448,1.405
	c-2.414-0.021-6.322,0.375-8.311-1.416c-1.774-1.598-2.719-4.007-3.893-6.085c-2.156,0.682-4.438,1.608-6.627,1.476
	c-2.85-0.172-5.038-2.458-6.953-4.337c-1.488-1.46-3.561-3.37-3.538-5.658c0.025-2.434,1.218-4.931,1.75-7.317
	C111.861,224.038,109.03,223.046,107.681,221.297z M109.062,213.23c0.017,2.204-0.33,5.843,1.864,7.246
	c1.898,1.214,3.999,2.112,5.931,3.283c0.704,0.426,0.474,1.018-0.081,1.433c-0.462,1.992-1.22,3.928-1.57,5.926
	c-0.311,1.769,0.614,3.004,1.792,4.258c1.396,1.487,4.235,5.069,6.663,4.767c2.185-0.272,4.339-1.242,6.478-1.756
	c1.092-0.262,1.731,0.409,1.672,1.079c0.995,1.742,1.792,3.854,3.084,5.355c1.541,1.791,4.717,1.538,6.841,1.513
	c2.397-0.029,4.125,0.083,5.354-2.186c0.898-1.658,1.849-3.26,2.901-4.825c0.466-0.692,1.725-0.782,2.324-0.368
	c0.076-0.001,0.146,0.003,0.204,0.017c2.003,0.48,4.178,1.553,6.235,1.696c1.979,0.137,4.923-3.706,6.059-5.056
	c2.687-3.193,0.565-6.456-0.193-10.082c-0.185-0.101-0.219-0.261,0-0.482c0.146-0.295,0.603-0.547,1.115-0.702
	c1.812-0.947,4.378-1.935,5.42-3.489c1.521-2.268,1.313-5.736,1.179-8.31c-0.256-4.853-3.411-5.764-6.993-8.013
	c-0.623,0.056-1.144-0.069-1.049-0.461c0.528-2.188,1.747-4.547,1.887-6.802c0.141-2.288-1.783-4.181-3.26-5.69
	c-1.319-1.347-3.553-4.273-5.759-3.824c-1.61,0.328-3.188,0.794-4.787,1.179c-0.538,0.533-1.64,0.791-2.247,0.391
	c-0.326-0.034-0.417-0.188-0.344-0.387c-1.129-1.709-1.993-3.653-3.217-5.283c-1.205-1.606-3.249-1.46-5.092-1.44
	c-1.719,0.019-5.557-0.481-6.779,1.093c-1.252,1.613-2.111,3.565-3.176,5.305c-0.484,0.792-2.232,0.985-2.762,0.473
	c-1.956-0.406-3.869-1.07-5.833-1.401c-1.949-0.329-4.655,3.316-5.751,4.629c-1.261,1.509-2.234,2.952-1.549,4.946
	c0.66,1.924,1.381,3.788,1.866,5.771c0.048,0.197-0.17,0.399-0.501,0.572c0.022,0.26-0.129,0.549-0.551,0.832
	c-1.771,1.19-3.645,2.144-5.475,3.228C108.969,208.846,109.046,211.133,109.062,213.23z M128.188,223.181
	c-5.646-7.021-4.252-16.663,4.174-20.809c6.473-3.185,15.817-3.086,19.985,3.779c3.69,6.078,3.087,13.749-2.596,18.354
	C143.695,229.414,133.542,228.637,128.188,223.181z M130.874,222.027c5.455,5.559,17.301,5.675,20.14-2.782
	c1.396-4.156,0.985-9.193-1.886-12.696c-4.323-5.275-12.674-6.339-17.81-1.316C126.242,210.199,126.593,216.703,130.874,222.027z
	 M157.389,149.646c-1.161-1.505-1.135-3.695-1.105-5.505c0.026-1.561,0.064-3.229,1.21-4.417c1.143-1.184,2.882-1.823,4.287-2.692
	c-0.521-1.447-1.479-3.259-1.174-4.62c0.438-1.954,2.643-3.897,4.141-5.068c2.493-1.949,4.725-1.59,7.288-1.018
	c0.77-1.399,1.485-2.921,2.731-3.914c1.564-1.246,4.224-1.118,6.072-1.108c1.609,0.008,3.514-0.113,4.829,0.988
	c1.201,1.006,1.877,2.824,2.722,4.152c1.437-0.378,2.888-0.882,4.359-0.864c1.524,0.02,2.689,0.994,3.725,2.02
	c1.269,1.257,3.175,2.861,3.252,4.806c0.059,1.475-0.725,3.092-1.162,4.545c1.447,0.965,3.518,1.662,4.613,3.054
	c1.059,1.343,0.726,3.733,0.667,5.29c-0.145,3.899-2.243,4.856-5.128,6.543c0.375,1.541,1.277,3.374,1.096,4.91
	c-0.213,1.803-2.15,3.318-3.39,4.438c-1.358,1.229-2.922,2.43-4.843,2.48c-1.211,0.032-2.406-0.33-3.585-0.705
	c-0.767,1.383-1.471,3.19-2.713,4.043c-1.395,0.958-3.051,1.092-4.706,1.078c-1.728-0.016-4.505,0.255-5.928-1.027
	c-1.158-1.043-1.799-2.548-2.549-3.917c-1.423,0.455-2.893,0.987-4.343,0.899c-2.005-0.121-3.544-1.68-4.895-3.006
	c-1.089-1.069-2.522-2.409-2.506-4.072c0.017-1.584,0.766-3.207,1.141-4.766C160.101,151.487,158.3,150.827,157.389,149.646z
	 M159.229,143.959c0.011,1.373-0.236,3.755,1.139,4.634c1.28,0.819,2.698,1.425,4.001,2.215c0.651,0.395,0.503,0.93,0.038,1.336
	c-0.315,1.303-0.803,2.575-1.033,3.883c-0.197,1.128,0.407,1.887,1.16,2.688c0.811,0.864,2.678,3.24,4.103,3.063
	c1.425-0.177,2.845-0.828,4.241-1.164c1.005-0.242,1.629,0.308,1.676,0.92c0.66,1.167,1.197,2.562,2.059,3.562
	c0.929,1.08,2.953,0.901,4.227,0.886c1.439-0.018,2.396,0.147,3.119-1.186c0.622-1.149,1.284-2.255,2.014-3.339
	c0.483-0.718,1.819-0.787,2.387-0.316c0.031,0.006,0.064,0.004,0.095,0.012c1.323,0.317,2.765,1.032,4.124,1.126
	c-0.469-0.033,0.166-0.158,0.424-0.367c0.252-0.198,0.497-0.403,0.736-0.616c0.762-0.688,1.535-1.405,2.198-2.193
	c1.77-2.104,0.32-4.323-0.175-6.718c-0.11-0.094-0.125-0.221,0.023-0.39c0.146-0.286,0.582-0.531,1.076-0.686
	c1.159-0.585,2.715-1.213,3.353-2.165c0.996-1.485,0.846-3.813,0.758-5.493c-0.169-3.213-2.226-3.834-4.592-5.302
	c-0.521,0.01-0.915-0.127-0.832-0.472c0.356-1.477,1.18-3.068,1.273-4.59c0.092-1.492-1.216-2.759-2.173-3.737
	c-0.723-0.738-2.277-2.787-3.52-2.534c-0.909,0.185-1.804,0.434-2.704,0.663c-0.536,0.614-1.827,0.917-2.425,0.384
	c-0.158-0.05-0.221-0.145-0.209-0.265c-0.76-1.153-1.343-2.463-2.167-3.562c-0.72-0.959-1.94-0.849-3.048-0.837
	c-0.929,0.01-3.471-0.326-4.137,0.533c-0.823,1.06-1.387,2.352-2.087,3.496c-0.498,0.814-2.333,0.995-2.802,0.426
	c-1.284-0.275-2.543-0.705-3.834-0.922c-0.057-0.01-0.091-0.022-0.117-0.036c-0.042,0.054-0.104,0.122-0.228,0.227
	c-0.229,0.189-0.452,0.386-0.669,0.59c-0.709,0.679-1.423,1.37-2.054,2.125c-0.831,0.995-1.45,1.938-1.001,3.246
	c0.446,1.298,0.933,2.556,1.261,3.894c0.038,0.157-0.095,0.317-0.316,0.464c0.029,0.263-0.119,0.557-0.548,0.845
	c-1.229,0.826-2.526,1.491-3.796,2.244C159.095,141.217,159.221,142.771,159.229,143.959z M171.219,150.89
	c-3.979-4.949-2.781-11.557,3.064-14.433c4.511-2.22,11.187-2.249,14.111,2.567c2.55,4.201,2.119,9.475-1.81,12.658
	C182.293,155.16,175.058,154.801,171.219,150.89z M173.904,149.737c3.44,3.505,10.865,3.774,12.681-1.634
	c0.927-2.758,0.672-6.106-1.236-8.435c-2.719-3.316-7.914-4.204-11.2-0.99C170.808,141.946,171.098,146.246,173.904,149.737z" fill="#0984E3"></path>
</svg>