<?xml version="1.0" standalone="no"?>
<svg version="1.1" id="Layer_1" xmlns="http://www.w3.org/2000/svg" xmlns:xlink="http://www.w3.org/1999/xlink" x="0px" y="0px" width="595.28px" height="595.28px" viewBox="0 0 595.28 595.28" enable-background="new 0 0 595.28 595.28" xml:space="preserve">
<path id="color_x5F_2" fill="#FBC02D" d="M263.68,229.038c-0.478,0.375-0.927,0.785-1.349,1.23l0.568-1.23H263.68z M268.029,231.53
	c-1.769,6.924-0.933,15.262-0.468,21.92c0.726,10.41,2.146,20.801,4.721,30.922c4.525-4.51,5.366-10.559,4.988-16.926
	C276.562,255.501,273.351,242.515,268.029,231.53z M269.45,285.427c-2.844-11.089-4.439-22.603-4.949-34.036
	c-0.314-7.015-1.082-15.613,1.672-22.353h-0.55c-2.335,2.104-3.776,6.314-4.552,8.722c-1.709,5.304-2.625,10.864-3.015,16.417
	c-0.638,9.082-1.001,20.789,3.808,28.951c2.313,3.929,5.502,5.316,9.225,2.313C270.341,285.651,269.525,285.718,269.45,285.427z
	 M348.399,215.038c0.29-0.29,0.739-0.728,1.275-1.246c-1.686,1.135-3.463,2.24-5.282,3.306
	C346.489,216.19,347.985,215.452,348.399,215.038z M357.003,196.379c0.33-0.468,1.205-0.712,1.911-0.694
	c-0.567-1.222-1.598-2.109-3.256-2.158c-4.256-0.125-8.667,4.017-11.635,6.619c-4.214,3.693-8.102,7.75-11.898,11.868
	c-3.124,3.547-6.3,7.172-8.699,9.915c3.548-2.393,7.112-4.759,10.646-7.17C341.7,209.555,351.588,204.075,357.003,196.379z
	 M337.851,214.681c-4.316,2.958-8.681,5.844-13.014,8.777c-1.207,0.816-2.748,1.658-4.135,2.619c1.012-0.36,2.553-0.91,4.403-1.58
	c1.457-0.63,2.885-1.297,4.261-1.924c5.881-2.679,11.679-5.658,17.065-9.24c4.402-2.928,9.854-6.45,12.286-11.35
	c0.629-1.269,0.922-3.144,0.644-4.808C354.008,204.437,345.136,209.689,337.851,214.681z M492.384,267.032
	c-2.229-2.263-4.717-4.766-7.395-7.183c-5.851-4.335-11.685-7.81-14.442-9.388c1.147,2.164,3.37,4.55,4.325,5.9
	c3.492,4.939,7.086,9.807,10.648,14.695c3.639,4.994,7.323,9.975,10.722,15.138c0.894,1.356,4.243,5.197,3.563,7.047
	c-0.257,0.7-3.007,0.968-2.85,0.541c0.682-1.854-3.562-6.758-4.468-8.091c-3.38-4.973-6.925-9.831-10.469-14.687
	c-3.521-4.823-7.082-9.621-10.502-14.517c-0.879-1.26-2.885-3.429-3.928-5.413c-0.777,0.946-1.766,2.213-2.612,3.493
	c-0.372,1.907-0.364,3.866-0.071,4.957c1.296,4.838,4.987,9.345,8.011,13.209c4.259,5.443,21.752,28.919,30.738,19.262
	C510.141,285.025,496.687,271.399,492.384,267.032z M496.399,295.038c0,0,0.314-0.028,0.814-0.102
	c-0.318,0.018-0.637,0.029-0.949,0.021L496.399,295.038z M88.941,193.491c7.213-4.768,14.83-9.15,22.833-12.477
	c-3.283-0.996-6.301-2.653-9.432-3.846c-2.352-0.733-4.723-1.172-6.879-1.423c-0.635,0.001-1.277,0.03-1.94,0.123
	c-8.012,1.118-14.688,4.561-21.256,9.137c-4.027,2.806-8.766,6.364-9.552,11.594c-0.738,4.909,0.868,9.634,2.738,14.115
	C72.84,204.38,80.821,198.859,88.941,193.491z M66.042,245.221l6.717-1.158c0.046-0.011,0.094-0.022,0.138-0.033l-0.116-0.376
	c-2.081-3.802-3.455-8.1-4.161-11.646c-1.348,1.71-2.628,3.457-3.811,5.249c-0.466,0.705-3.059,0.819-2.857,0.514
	c1.862-2.82,3.941-5.558,6.165-8.217l-0.217-0.516l3.239-2.957c6.89-7.575,14.913-14.413,22.784-20.404
	c2.252-1.986,4.357-3.677,5.977-4.639c0.948-0.563,1.861-1.083,2.743-1.568c8.548-5.486,19.845-10.623,27.437-4.447
	c0.423,0.344-2.121,1.479-2.73,0.982c-0.609-0.495-1.245-0.9-1.899-1.24c1.548,4.075,3.146,8.102,4.579,12.189
	c6.297-6.924,16.491-22.08,6.045-27.744c-6.428-3.486-14.12-1.51-20.897,1.307c-0.389,0.452-1.371,0.896-1.99,0.859
	c-1.406,0.629-2.766,1.273-4.047,1.892c-7.081,3.419-13.77,7.455-20.317,11.793c-7.494,4.966-15.739,10.475-22.958,16.919
	c-0.079,0.258-0.365,0.49-0.731,0.659c-6.283,5.722-11.726,12.176-15.112,19.636C44.413,244.626,56.114,246.283,66.042,245.221z
	 M114.885,179.756c1.171-0.457,2.396-0.919,3.661-1.357c-2.481,0.61-4.146,1.14-4.146,1.14s-0.002,0.033-0.01,0.078
	c0.131,0.033,0.257,0.072,0.389,0.104C114.82,179.731,114.848,179.744,114.885,179.756z M86.899,175.538c0,0-0.118,0.07-0.318,0.189
	c0.243-0.076,0.488-0.148,0.733-0.221C87.048,175.524,86.899,175.538,86.899,175.538z M267.763,359.163
	c-0.807-3.595-1.717-7.19-2.618-10.795c-0.157-0.035-0.198-0.106-0.056-0.224c-2.559-10.241-4.971-20.554-4.413-31.104
	c-0.952,0.082-0.605-0.343,0.039-0.673c0.005-0.071,0.014-0.143,0.019-0.215c-0.74-0.076-1.22-0.426-0.242-1.03
	c0.118-0.073,0.232-0.149,0.351-0.223c0.026-0.286,0.043-0.57,0.073-0.855c-0.284,0.002-0.609,0.005-0.963,0.008
	c-0.205,0.061-0.384,0.098-0.5,0.095c-24.188-0.635-46.15,11.321-68.607,18.799c-0.046,0.14-0.211,0.304-0.554,0.493
	c-8.196,4.517-13.063,11.923-17.68,19.789c-3.938,6.71-8.497,12.941-12.644,19.511c-8.693,13.771-17.777,30.09-17.639,46.864
	c0.006,0.016,0.017,0.028,0.02,0.046c1.846,12.163,5.921,23.758,11.913,34.5c3.469,6.219,7.326,12.202,11.451,18.006
	c2.75,3.867,5.405,8.43,9.02,11.582c3.784,3.299,7.583,1.492,11.2-0.838c-0.267-0.849,1.124-1.576,2.104-1.393
	c0.158-0.106,0.317-0.213,0.475-0.316c5.353-3.524,10.457-7.4,15.671-11.124c5.43-3.879,10.93-7.735,16.769-10.983
	c1.911-1.063-6.167-13.757-7.082-15.377c-5.39-9.541-11.876-20.31-11.547-31.682c0.312-10.774,6.123-20.641,13.644-28.133
	C229.729,370.178,248.76,362.316,267.763,359.163z M185.707,484.583c0.536-0.232,0.929-0.417,1.097-0.498
	c-0.024-0.031-0.049-0.061-0.073-0.092C186.396,484.19,186.056,484.388,185.707,484.583z M238.899,315.038
	c-7.318,0.915-43.08,14.797-49.125,17.158c17.295-5.648,34.122-13.791,51.9-17.443C240.685,314.838,239.748,314.933,238.899,315.038
	z M208.058,469.345l6.334-4.398c-0.005-0.004-0.01-0.007-0.014-0.01C212.249,466.373,210.147,467.85,208.058,469.345z
	 M161.442,470.971c-2.627-3.808-5.188-7.669-7.553-11.646C155.901,463.182,158.607,467.224,161.442,470.971z M139.606,421.374
	c-0.016,0.01-0.03,0.02-0.046,0.029c-0.153,0.09-0.32,0.162-0.493,0.208c0.268,0.632,0.606,1.438,1.002,2.386
	c-0.163-0.854-0.314-1.711-0.455-2.572C139.612,421.408,139.609,421.392,139.606,421.374z M158.077,371.469
	c0.895-1.369,1.771-2.737,2.659-4.105c2.748-4.229,5.466-8.477,8.157-12.74c1.093-1.731,2.197-3.45,3.28-5.195
	c3.405-5.486,7.216-10.358,12.251-14.122c0.486-0.364,0.963-0.736,1.474-1.078c-0.149-0.035-0.298-0.071-0.446-0.107
	c-0.658-0.161-1.315-0.32-1.972-0.498c-7.777-2.104-15.441-5.385-22.192-9.646c-5.357-3.381-11.298-7.873-13.492-13.971
	l-0.344,0.529c-2.493,5.745-5.656,11.234-8.999,16.396c-6.318,9.755-13.446,19.111-21.377,27.618
	c-7.809,8.375-17.661,17.36-28.59,21.9c1.305,2.931,2.823,5.666,4.519,8.236c3.495,4.127,7.919,9.179,12.429,13.877
	c9.634,8.261,21.304,14.414,32.761,20.166c0.421,0.212,0.842,0.424,1.263,0.634C139.679,402.247,148.958,385.427,158.077,371.469z
	 M62.411,278.792c0.754-0.686,1.529-1.35,2.326-1.985C64.161,277.14,63.356,277.835,62.411,278.792z M114.026,270.052
	c-1.223-1.813-2.58-3.586-4.26-4.941c-0.005,0.009-0.007,0.017-0.013,0.026c-0.15,0.235-0.285,0.476-0.426,0.713
	c-0.204,6.257,2.975,13.726,6.209,19.637c0.484-3.184,0.95-6.51,1.382-9.771c0.293-3.714,0.46-7.438,0.593-11.169
	c0.101-2.838,0.207-5.68,0.365-8.514c-0.468,0.22-0.932,0.445-1.387,0.681c-1.216,1.069-2.794,2.23-4.73,3.224
	c-0.761,0.713-1.439,1.506-2.017,2.393c3.001,1.352,5.155,3.925,6.99,6.645C117.313,269.834,114.501,270.754,114.026,270.052z
	 M103.933,266.575c-5.646,0.238-10.559-2.466-14.558-6.203c-3.536,1.636-4.199,6.641-5.032,10.014
	c-0.044,0.18-0.152,0.339-0.296,0.479c3.128,6.46,10.875,10.382,17.24,13.687c1.031-6.109,1.73-12.18,4.595-17.693
	c-0.404-0.03-0.682-0.171-0.607-0.461c0.026-0.104,0.063-0.199,0.092-0.303C104.824,266.341,104.177,266.564,103.933,266.575z
	 M109.267,305.737c1.958-5.358,4.152-10.567,5.582-16.049c-0.175-0.047-0.318-0.127-0.398-0.262
	c-2.955-4.925-6.418-11.711-7.605-18.018c-1.565,4.801-2.054,9.9-3.003,14.971c-0.194,1.037-1.789,1.356-2.59,0.928
	c-7.2-3.86-17.048-8.258-20.4-16.334c-10.776,1.535-20.023,10.66-25.515,19.568c-6.035,9.792-8.251,21.851-10.025,33.081
	c-0.085,0.536-0.171,1.077-0.257,1.618c3.711,3.395,9.556,4.496,14.372,5.074c4.873,0.584,11.239,1.265,15.891-0.925
	c2.31-8.639,4.204-17.376,6.138-26.106c0.146-0.662,2.967-1.072,2.85-0.543c-1.95,8.801-3.857,17.608-6.192,26.316
	c0.331,0.182,0.374,0.471-0.217,0.833c-0.031,0.116-0.059,0.234-0.091,0.351c-0.13,0.475-1.539,0.79-2.327,0.769
	c-1.482,0.553-3.04,0.919-4.635,1.148c-0.103,4.894,1.104,11.522,7.248,11.742c4.878,0.175,9.707-2.489,13.287-5.624
	C101.042,329.819,104.996,317.423,109.267,305.737z"></path>
<path id="color_x5F_1" d="M85.155,238.956c-3.239-0.887-4.475-3.355-3.889-6.589c0.175-0.97,3.094-1.47,2.895-0.373
	c-0.435,2.404,0.206,4.708,2.775,5.411C88.565,237.852,86.056,239.202,85.155,238.956z M69.211,391.423
	c1.528-0.063,2.329-1.902,0.338-1.82c-15.304,0.629-37.133-14.08-33.712-31.242c0.25-1.255-2.691-0.809-2.914,0.305
	C29.201,377.337,52.889,392.095,69.211,391.423z M36.749,385.032c-5.923-4.075-10.683-9.665-11.92-16.908
	c-0.09-0.523-3.011,0.117-2.898,0.777c1.251,7.316,6.11,12.983,12.08,17.092C34.658,386.438,37.076,385.258,36.749,385.032z
	 M50.805,198.243c2.11-6.137,5.008-11.868,9-17c0.13-0.166-2.335-0.123-2.85,0.539c-3.993,5.132-6.891,10.863-9,17
	C47.799,199.235,50.564,198.942,50.805,198.243z M45.809,187.257c0.927-3.497,2.659-6.609,5.68-8.704
	c1.192-0.827-1.711-0.431-2.217-0.08c-3.288,2.28-5.3,5.446-6.32,9.296C42.79,188.378,45.617,187.979,45.809,187.257z
	 M151.741,195.59c1.916-3.978,3.032-8.065,2.088-12.466c-0.241-1.123-3.146-0.382-2.898,0.777c0.878,4.088-0.131,7.836-1.912,11.534
	C148.368,196.785,151.283,196.541,151.741,195.59z M161.832,186.344c0-2.667,0-5.333,0-8c0-1.272-2.904-0.671-2.904,0.338
	c0,2.667,0,5.333,0,8C158.928,187.954,161.832,187.353,161.832,186.344z M449.81,358.258c0.219-0.394-2.453-0.221-2.859,0.51
	c-4.102,7.388-12.821,9.065-20.631,9.151c-0.606,0.008-3.298,1.203-1.879,1.188C433.638,369.005,444.933,367.041,449.81,358.258z
	 M450.023,370.454c-2.472,3.166-5.513,4.787-9.498,3.329c-0.93-0.34-3.55,0.999-2.291,1.459c5.729,2.095,10.843,0.017,14.502-4.671
	C453.574,369.498,450.637,369.669,450.023,370.454z M363.507,518.985c1.657-0.522,1.429-1.475-0.254-0.945
	c-4.172,1.314-9.69,3.978-12.424-0.916c-0.416-0.744-3.153,0.319-2.898,0.777C351.19,523.736,358.588,520.534,363.507,518.985z
	 M263.763,512.749c-6.81,3.166-14.487,3.592-21.859,2.791c-1.315-0.143-3.007,1.732-1.047,1.945
	c8.145,0.885,16.635,0.282,24.141-3.209C266.808,513.435,265.179,512.09,263.763,512.749z M265.191,520.175
	c-3.956,3.73-8.934,5.129-14.28,4.394c-1.281-0.177-3.014,1.62-1.063,1.889c6.555,0.901,12.901-1.062,17.72-5.606
	C268.851,519.642,266.007,519.405,265.191,520.175z M361.933,522.651c-0.152,1.008-3.115,1.428-3.882,1.587
	c-1.88,0.392-3.98,0.434-5.813-0.171c-1.229-0.405-3.415,1.367-1.676,1.941c2.962,0.976,6.186,0.661,9.169-0.062
	c1.772-0.429,4.813-1.38,5.136-3.522C365.087,520.965,362.128,521.356,361.933,522.651z M570.771,422.834
	c-23.149-15.519-44.741-33.397-64.834-52.691c-19.903-19.112-39.213-38.913-56.839-60.162c-0.303,6.837-1.157,13.766-2.535,20.442
	c-1.7,8.23-3.938,18.22-9.68,24.714c-10.205,11.544-27.406-1.439-37.936-7.927c-0.435,0.031-0.803-0.033-0.933-0.229
	c-0.4,0.104-0.774,0.138-1.003,0.021c-19.897-10.187-43.744-12.003-65.746-10.898c-21.021,1.056-44.164,1.653-63.191,11.666
	c0.955,3.796,1.923,7.578,2.754,11.355c0.142,0.645-1.295,0.987-1.686,1.046c-22.65,3.396-47.637,14.317-59.299,35.163
	c-12.631,22.578,5.746,42.916,14.984,62.791c0.132,0.285-0.422,0.598-0.585,0.688c-2.57,1.43-5.066,2.966-7.519,4.565
	c16.179,13.064,41.688,13.989,61.426,12.618c19.755-1.372,44.986-5.362,59.021-20.888c0.394-0.435,1.203-0.58,1.838-0.479
	c0.346-0.48,1.557-0.757,2.277-0.707c0.105-0.01,0.202-0.012,0.275,0.003c7.313,1.448,14.896,0.483,22.27,1.456
	c4.778,0.631,10.424,1.689,13.164,6.167c6.308,10.303,0.721,27.009-3.513,37.145c-3.027,7.247-11.242,22.925-21.181,14.623
	c-5.268-4.401-8.264-10.174-10.598-16.54c-2.066-5.637-3.934-11.588-4.555-17.616c-5.753,9.108-15.715,15.149-25.555,19.06
	c-14.419,5.73-30.047,8.396-45.512,8.993c-16.094,0.621-32.565-0.604-48.09-5.102c-11.488-3.328-23.505-8.486-31.191-18.026
	c-0.024-0.031-0.049-0.061-0.073-0.092c-0.335,0.197-0.675,0.395-1.023,0.59c-4.113,2.306-9.089,4.217-13.044,0.77
	c-4.277-3.731-7.444-8.927-10.651-13.551c-0.191-0.275-0.379-0.555-0.569-0.831c-2.627-3.808-5.188-7.669-7.553-11.646
	c-0.591-0.995-1.183-1.989-1.746-2.999c-5.691-10.204-9.892-20.903-12.074-32.328c-0.163-0.854-0.314-1.711-0.455-2.572
	c-0.002-0.017-0.005-0.033-0.008-0.051c-0.016,0.01-0.03,0.02-0.046,0.029c-0.153,0.09-0.32,0.162-0.493,0.208
	c-0.338,0.092-0.696,0.086-1.01-0.07c-4.257-2.13-8.541-4.304-12.75-6.599c-0.011,0.293-0.236,0.613-0.784,0.885
	c-28.698,14.221-59.766,23.348-91.29,28.681c-1.971,0.334-1.232-1.732,0.293-1.99c30.993-5.243,61.54-14.29,89.749-28.269
	c0.161-0.08,0.324-0.129,0.484-0.159c-15.8-8.779-30.332-19.482-38.047-36.595c-8.016,2.713-16.55,2.889-25.242-1.395
	c-8.949-4.41-15.989-12.25-18.608-21.998c-2.427-9.035-1.572-18.799,0.064-28.168c-0.068-0.147-0.029-0.301,0.079-0.447
	c0.54-3.039,1.156-6.035,1.767-8.948c2.607-12.435,5.776-23.382,14.174-33.153c1.378-1.604,2.874-3.146,4.465-4.594
	c0.754-0.686,1.529-1.35,2.326-1.985c4.608-3.677,9.927-6.45,15.721-7.405c0.194-0.455,0.837-0.789,1.475-0.871
	c0.957-3.829,2.246-7.823,5.962-9.632c-0.127-0.135-0.258-0.267-0.383-0.403c-0.126-0.137,0.062-0.338,0.39-0.531
	c-0.031-1.647-0.071-3.289-0.087-4.928c-6.392,1.156-11.142-2.876-14.381-8.244c-7.503,1.906-31.011,5.767-27.732-7.861
	c2.232-9.276,10.29-17.738,17.166-23.95c0.104-0.094,0.211-0.183,0.315-0.276c-0.1-0.072-0.183-0.161-0.232-0.277
	c-2.342-5.491-4.995-12.427-2.265-18.295c2.402-5.16,7.338-8.574,12.006-11.545c4.486-2.855,8.988-5.309,13.89-6.859
	c0.243-0.076,0.488-0.148,0.733-0.221c2.108-0.623,4.291-1.081,6.583-1.325c7.962-0.847,13.175,3.55,20.492,5.435
	c0.131,0.033,0.257,0.072,0.389,0.104c0.042,0.011,0.069,0.023,0.106,0.035c1.171-0.457,2.396-0.919,3.661-1.357
	c5.575-1.931,11.865-3.364,17.151-1.508c15.766,5.535,2.478,24.738-5.01,31.833c-0.012,0.012-0.031,0.022-0.046,0.033
	c0.425,1.266,0.831,2.539,1.211,3.824c0.758-0.825,1.735-1.486,2.896-1.99c0.305-0.519,1.107-1.042,1.809-0.998
	c4.163,0.264,8.514,1.839,12.534,2.838c8.361,2.079,16.707,4.221,25.056,6.347c3.862,0.983,7.725,1.968,11.59,2.945
	c5.512-9.376,11.148-20.134,12.188-31.051c1.153-12.11-4.177-23.586-4.955-35.563c-0.841-12.941,0.244-30.974,13.361-37.732
	c1.697-0.875,3.492-1.549,5.34-2.01c-7.374-14.387-9.678-29.393-9.74-45.465c-0.003-0.847,2.896-1.276,2.898-0.777
	c0.063,16.157,2.386,31.236,9.853,45.691c3.117-0.377,6.31-0.16,9.375,0.721c4.221,1.212,8.796,4.466,5.798,9.236
	c-0.36,0.573-0.784,1.085-1.255,1.551c4.243-0.958,8.69-1.185,12.764-0.316c0.467-0.149,0.936-0.221,1.201-0.125
	c2.892,1.04,7.96,3.257,6.917,7.307c-0.744,2.889-3.069,5.18-5.632,6.604c-1.161,0.646-2.433,1.228-3.769,1.753
	c3.797-0.116,7.438,0.481,10.165,2.477c0.146,0.106-0.093,0.328-0.485,0.544c7.256,2.776-3.583,9.549-8.942,11.335
	c0.39-0.001,0.78-0.006,1.169,0.006c1.713,0.049,4.77-0.067,6.081,1.414c0.118,0.07,0.204,0.166,0.248,0.29
	c0.009,0.015,0.023,0.023,0.032,0.038c0.013,0.021,0.008,0.048-0.008,0.077c0.006,0.045,0.014,0.089,0.01,0.14
	c-0.688,7.824-4.158,13.347-11.184,16.854c-2.242,1.119-4.76,2.063-6.978,3.387c0.184,1.189,0.387,2.376,0.637,3.554
	c4.231,19.895,16.671,36.764,35.929,44.29c14.335,5.604,30.109,6.46,45.238,3.852c-0.11-0.342,0.074-0.752,0.762-1.082
	c3.984-1.912,7.341-6.884,10.23-10.074c4.599-5.078,9.154-10.218,14.062-15.004c4.077-3.976,16.031-16.723,22.808-10.968
	c7.166,6.086,0.2,14.134-10.18,21.118c-1.686,1.135-3.463,2.24-5.282,3.306c-7.766,4.544-16.329,8.339-22.138,10.38
	c1.403-0.393,2.799-0.807,4.18-1.257c12.769-4.162,24.995-9.126,38.345-11.315c13.567-2.225,28.453-3.104,42.048-0.556
	c23.163,4.342,44.695,17.463,61.504,33.723c0.519-0.108,1.032-0.144,1.247-0.092c0.227,0.054,0.452,0.119,0.677,0.182
	c4.381,0.151,8.842,3.479,12.014,5.897c0.107,0.082-0.074,0.257-0.388,0.441c1.068,0.806,2.104,1.624,3.104,2.424
	c6.028,4.826,11.784,10.23,16.486,16.383c2.984,3.904,7.67,9.948,6.477,15.291c-1.006,4.502-6.321,5.986-10.355,6.325
	c-0.128,0.011-0.251,0.006-0.378,0.013c-0.318,0.018-0.637,0.029-0.949,0.021c-5.975-0.148-10.735-4.666-14.895-8.719
	c-6.143-5.984-12.004-12.675-16.487-20.01c-2.977-4.869-5.081-13.174,0.845-16.855c-2.254-2.186-4.563-4.318-6.957-6.344
	c-11.168-9.449-23.588-16.687-37.216-22.039c-14.48-5.688-29.949-6.905-45.39-5.579c-15.413,1.324-29.701,5.622-44.164,10.877
	c-9.053,3.288-18.484,5.649-28.1,6.478c-11.097,0.956-22.725,0.218-33.498-3.051c3.193,6.471,5.393,13.625,7.101,20.565
	c1.987,8.077,4.046,17.421,2.055,25.703c-1.625,6.762-12.165,17.528-19.063,10.086c-3.396-3.663-4.418-9.626-5.001-14.384
	c-0.814-6.663-0.806-13.466-0.017-20.133c0.745-6.303,1.907-16.051,6.853-21.285c0.422-0.445,0.871-0.855,1.349-1.23
	c0.522-0.41,1.081-0.773,1.676-1.087c-4.564-1.784-8.933-4.057-12.974-6.925c-13.985-9.922-21.832-24.656-24.803-40.984
	c-0.064,0.061-0.137,0.113-0.199,0.176c-3.206,3.186-3.645,6.969-4.227,11.225c-1.262,9.202-3.676,18.37-6.451,27.224
	c-0.546,1.741-1.469,6.952-3.56,9.183c3.995-1.855,9.097-0.854,13.251-0.346c0.926,0.113,1.047,0.607,0.777,1.08
	c10.295,0.018,16.549,9.066,16.573,18.919c0.03,12.122-5.243,26.206-15.042,33.867c-7.005,5.478-16,8.863-22.801,2.156
	c-5.33,7.576-12.991,13.552-22.475,13.013c-3.396-0.193-6.08-1.195-8.192-2.756c-7.853,3.963-15.653,7.719-24.593,7.868
	c-0.271,0.964-0.56,1.925-0.877,2.878c0.048,0.109,0.082,0.229,0.083,0.373c0.053,8.707,8.977,14.852,15.785,18.658
	c7.081,3.958,14.819,7.195,22.77,8.929c0.089,0.02,0.163,0.046,0.238,0.071c0.378-0.121,0.756-0.24,1.134-0.363
	c17.295-5.648,34.122-13.791,51.9-17.443c6.398-1.314,12.921-2.051,19.633-1.875c0.33,0.009,0.444,0.08,0.43,0.182
	c0.74-0.293,1.759-0.373,2.017-0.011c18.595-12.073,34.729-27.452,51.404-41.969c8.498-7.397,17.124-14.712,26.341-21.208
	c7.924-5.584,16.488-11.536,25.644-14.928c32.726-12.119,59.268,26.998,73.153,51.245c1.601,0.165,3.098,0.75,4.274,1.952
	c4.452,4.549,4.757,12.282,4.64,18.428c0.415-0.016,0.8,0.082,1.021,0.352c17.639,21.471,37.02,41.486,57.052,60.722
	c20.416,19.604,42.216,37.828,65.744,53.6C574.344,422.125,571.75,423.489,570.771,422.834z M470.34,250.05
	c0.064,0.137,0.134,0.273,0.207,0.412c1.147,2.164,3.37,4.55,4.325,5.9c3.492,4.939,7.086,9.807,10.648,14.695
	c3.639,4.994,7.323,9.975,10.722,15.138c0.894,1.356,4.243,5.197,3.563,7.047c-0.257,0.7-3.007,0.968-2.85,0.541
	c0.682-1.854-3.562-6.758-4.468-8.091c-3.38-4.973-6.925-9.831-10.469-14.687c-3.521-4.823-7.082-9.621-10.502-14.517
	c-0.879-1.26-2.885-3.429-3.928-5.413c-0.031-0.062-0.066-0.122-0.096-0.183c-0.166-0.049-0.313-0.126-0.426-0.238
	c-0.084-0.084-0.174-0.163-0.258-0.247c-0.934,0.978-1.519,2.549-1.833,4.161c-0.372,1.907-0.364,3.866-0.071,4.957
	c1.296,4.838,4.987,9.345,8.011,13.209c4.259,5.443,21.752,28.919,30.738,19.262c6.486-6.972-6.968-20.598-11.271-24.965
	c-2.229-2.263-4.717-4.766-7.395-7.183C480.547,255.838,475.572,252.077,470.34,250.05z M358.718,201.983
	c0.629-1.269,0.922-3.144,0.644-4.808c-5.354,7.261-14.226,12.514-21.511,17.505c-4.316,2.958-8.681,5.844-13.014,8.777
	c-1.207,0.816-2.748,1.658-4.135,2.619c-0.081,0.056-0.164,0.109-0.243,0.166c1.569-0.479,3.125-1.089,4.646-1.746
	c1.457-0.63,2.885-1.297,4.261-1.924c5.881-2.679,11.679-5.658,17.065-9.24C350.834,210.405,356.286,206.883,358.718,201.983z
	 M322.573,222.503c0.283-0.192,0.568-0.383,0.853-0.574c3.548-2.393,7.112-4.759,10.646-7.17
	c7.628-5.204,17.516-10.684,22.931-18.38c0.33-0.468,1.205-0.712,1.911-0.694c-0.567-1.222-1.598-2.109-3.256-2.158
	c-4.256-0.125-8.667,4.017-11.635,6.619c-4.214,3.693-8.102,7.75-11.898,11.868c-0.317,0.344-0.638,0.685-0.954,1.029
	C328.293,216.183,325.474,219.383,322.573,222.503z M316.051,229.013c0.024-0.006,0.049-0.012,0.073-0.017
	c-0.013-0.004-0.023-0.01-0.035-0.014C316.076,228.992,316.063,229.003,316.051,229.013z M277.271,267.446
	c-0.709-11.945-3.92-24.932-9.241-35.916c-1.769,6.924-0.933,15.262-0.468,21.92c0.726,10.41,2.146,20.801,4.721,30.922
	C276.808,279.862,277.648,273.813,277.271,267.446z M261.071,237.76c-1.709,5.304-2.625,10.864-3.015,16.417
	c-0.638,9.082-1.001,20.789,3.808,28.951c2.313,3.929,5.502,5.316,9.225,2.313c-0.748,0.21-1.563,0.276-1.639-0.015
	c-2.844-11.089-4.439-22.603-4.949-34.036c-0.314-7.015-1.082-15.613,1.672-22.353c0.083-0.202,0.162-0.406,0.251-0.605
	c-0.277,0.175-0.545,0.375-0.801,0.605C263.288,231.142,261.847,235.353,261.071,237.76z M263.669,315.015
	c-0.019,0.231-0.044,0.463-0.06,0.693c45.97-7.797,96.667-15.369,138.261,10.668c9.041-12.579,16.434-28.316,29.239-37.45
	c1.585-1.131,3.733-2.122,5.939-2.558c-2.648-4.595-5.456-9.168-8.464-13.62c-7.02,2.345-13.873,2.263-20.646-1.052
	c-2.777-1.359-5.265-3.193-7.901-4.79c-2.905-1.761-5.142-2.706-7.409,0.05c-2.345,6.342-7.303,8.715-14.014,7.482
	c-4.041-0.742-7.868-2.465-11.674-3.95c-3.711-1.448-8.558-3.827-12.634-2.841c-7.366,1.784-32.344,17.462-36.376,4.254
	c-0.372-1.221,2.52-2.016,2.898-0.777c3.231,10.588,26.836-4.08,33.67-5.43c10.321-2.039,30.435,15.973,35.419,0.951
	c0.158-0.479,0.76-0.814,1.38-0.961c2.879-2.496,6.584-2.649,10.253-0.53c8.747,5.051,15.835,10.183,26.364,6.604
	c-5.858-8.552-12.471-16.615-20.134-23.44c-6.03-5.371-12.893-10.425-20.748-12.721c-10.16-2.97-18.652-0.188-27.63,4.824
	C323.792,260.297,298.009,293.33,263.669,315.015z M174.19,292.931c-2.727-2.49-4.316-6.047-5.124-10.002
	c-0.12-0.031-0.23-0.075-0.32-0.145c-3.101-2.393-5.545-5.479-8.938-7.428c-2.624,5.684-7.039,11.236-7.479,17.768
	c0,0.006-0.004,0.012-0.005,0.018c0.012,0.061,0.016,0.126,0.007,0.198c-0.286,2.388-0.75,4.746-1.352,7.072
	c0.129-0.031,0.241-0.05,0.324-0.048C159.679,300.528,166.951,296.625,174.19,292.931z M157.296,231.473
	c-0.003,0.013-0.006,0.026-0.009,0.039c0.356-0.079,0.691-0.291,0.562-0.862C157.92,230.966,157.672,231.255,157.296,231.473z
	 M155.079,252.374c0.733,3.364,2.859,5.59,4.588,8.456c2.692,4.464,2.45,8.461,1.052,12.334c0.106,0.015,0.209,0.036,0.295,0.077
	c2.984,1.4,5.17,3.687,7.511,5.857c-0.427-5.059,0.146-10.393,1.088-14.776c1.646-7.665,4.289-15.248,8.575-21.854
	c0.444-0.686,0.911-1.282,1.388-1.838c-4.133-1.772-8.266-3.55-12.434-5.233c-2.315-0.937-4.634-1.879-6.99-2.708
	c-0.771-0.271-1.541-0.552-2.325-0.783c-0.239-0.071-0.425-0.124-0.587-0.169c-0.856,3.768-0.803,8.117-1.277,11.059
	C155.475,245.822,154.406,249.29,155.079,252.374z M188.113,294.098c-11.415-3.468-9.049-23.949-7.335-32.921
	c1.609-8.429,5.277-19.729,12.946-22.944c-2.204-0.248-4.451-0.419-6.602-0.101c-3.329,0.495-4.973,2.674-6.625,5.342
	c-4.406,7.121-7.262,15.391-8.511,23.658c-1.08,7.146-1.844,16.762,3.055,22.811c0.662,0.818,1.391,1.512,2.168,2.093
	c0.412,0.036,0.688,0.15,0.55,0.36C180.799,294.406,184.511,294.823,188.113,294.098z M209.386,271.092
	c2.289-6.819,3.693-15.046,1.094-21.993c-1.035-2.764-3.445-5.681-6.358-7.627c-0.36-0.055-0.645-0.21-0.746-0.471
	c-3.846-2.279-8.403-2.795-11.827,0.865c-6.265,6.698-8.341,17.824-8.799,26.723c-0.371,7.235-1.586,22.908,8.638,23.892
	c0.397,0.038,0.644,0.153,0.781,0.308c1.4-0.625,2.731-1.403,3.931-2.312C202.425,285.688,206.879,278.562,209.386,271.092z
	 M217.111,285.101c-3.774-1.12-6.109-4.314-7.358-8.068c-0.697,1.407-1.475,2.805-2.319,4.172c0.106,0.051,0.205,0.113,0.28,0.199
	C210.502,284.603,213.793,285.549,217.111,285.101z M226.3,230.477c-8.535,1.245-10.887,9.683-12.44,16.922
	c-0.062,0.289-0.292,0.532-0.598,0.714c2.644,7.17,1.34,16.412-1.111,23.286c-0.236,0.662-0.493,1.331-0.766,2.003
	c0.327,0.08,0.581,0.27,0.651,0.6c0.954,4.465,3.262,9.168,8.361,9.518c0.474,0.032,0.732,0.172,0.84,0.36
	c4.556-2.054,8.777-6.16,11.36-10.018c4.428-6.612,7.753-14.583,8.146-22.616C241.141,243.139,237.526,228.839,226.3,230.477z
	 M212.079,230.961c-2.357,2.649-4.003,5.679-5.493,8.855c2.158,1.301,3.81,3,5.046,4.963c1.725-6.499,4.876-13.507,11.343-15.595
	C219.21,228.644,214.582,228.147,212.079,230.961z M243.866,164.894c-4.243,2.834-10.639,4.494-13.584,5.186
	c-0.266,0.063-0.629,0.148-1.06,0.247c0.067,0.089,0.116,0.192,0.126,0.323c0.149,1.923,0.339,3.846,0.591,5.759
	c0.774-0.421,1.575-0.821,2.401-1.206C237.958,172.586,241.82,169.655,243.866,164.894z M237.368,156.701
	c-2.229,0.447-4.479,0.809-6.742,1.086c-0.875,0.186-1.616,0.353-2.116,0.461c-3.723,0.805-16.135,3.351-14.956,9.341
	c1.131,5.744,14.059,2.419,17.492,1.484c4.304-1.17,15.453-4.25,13.885-10.672c-0.027-0.11,0.059-0.227,0.212-0.338
	C243.815,156.583,240.656,156.4,237.368,156.701z M225.124,144.424c-3.533,0.044-6.963-0.37-9.934-1.348
	c-1.07-0.353-1.912-0.756-2.574-1.194c-0.023,2.902,0.412,5.846,0.615,8.762C215.727,147.609,221.995,145.381,225.124,144.424z
	 M212.883,163.511c2.823-2.597,7.771-4.192,11.619-5.162c-3.443,0.192-8.68,0.388-11.206-2.503
	C213.247,158.413,213.124,160.963,212.883,163.511z M235.527,143.025c-1.903,0.494-3.88,0.865-5.869,1.104
	c-0.456,0.11-0.901,0.223-1.323,0.333c-2.813,0.737-15.101,3.92-13.148,8.985c1.856,4.817,9.31,4.519,15.397,3.569
	c0.935-0.18,1.875-0.348,2.82-0.492c1.441-0.275,2.71-0.547,3.676-0.73c4.409-0.84,19.568-8.478,8.107-10.727
	c-0.481-0.094,0.254-0.531,1.056-0.831C243.218,142.679,239.29,142.57,235.527,143.025z M225.372,128.603
	c-1.926,1.029-4.078,1.831-6.055,2.783c-0.096,0.058-0.197,0.111-0.291,0.17c-1.974,1.231-5.563,3.411-5.704,6.127
	c-0.181,3.489,4.354,4.274,6.962,4.605c6.898,0.877,17.494,0.662,23.17-4.144c4.242-3.591,3.451-6.976,0.092-9.291
	C238.147,126.286,231.331,126.606,225.372,128.603z M188.177,222.335c3.809,0.959,7.619,1.912,11.436,2.84
	c3.086,0.75,7.298,2.234,10.689,2.703c0.514-0.42,1.445-0.787,1.958-0.678c-1.022-0.217-1.507,0.135-1.619,0.241
	c0.048-0.06,0.161-0.222,0.327-0.569c0.306-0.642,0.583-1.295,0.832-1.959c0.495-1.321,0.963-2.651,1.395-3.994
	c1.256-3.914,2.394-7.867,3.417-11.849c1.065-4.147,2.085-8.317,2.862-12.53c0.639-3.453,0.594-7.333,1.733-10.651
	c1.197-3.486,3.334-5.907,6.031-7.815c-0.344-2.193-0.613-4.408-0.788-6.646c-0.016-0.194,0.041-0.373,0.14-0.535
	c-5.595,1.109-14.868,2.32-15.854-1.977c-0.72,0.092-1.387-0.102-1.291-0.718c0.756-4.875,0.979-9.717,0.98-14.646
	c0.001-4.009-1.058-8.132-0.766-12.121c0.47-6.409,4.164-9.137,9.502-11.762c2.544-1.252,8.803-3.415,8.764-6.997
	c-0.039-3.602-3.512-5.112-6.604-5.671c-8.024-1.449-16.226,0.903-20.582,8.313c-8.347,14.192-4.685,32.96-1.461,47.969
	c2.031,9.459,2.203,17.725-0.845,27.013C195.886,208.056,192.302,215.306,188.177,222.335z M136.183,222.282
	c0.467-0.195,1.035-0.243,1.47-0.135c-0.004-0.007-0.007-0.014-0.011-0.021c-0.391-0.189,0.351,0.014,0.58,0.027
	c0.445,0.027,0.891,0.053,1.336,0.084c1.365,0.098,2.738,0.211,4.088,0.455c1.724,0.313,3.701,0.708,5.141,1.803
	c4.051-2.202,10.828-4.223,13.711-0.326c0.26,0.031,0.375,0.109,0.183,0.25c0.047,0.072,0.104,0.129,0.149,0.205
	c0.232,0.396-1.387,1.13-2.326,1.051c-1.344,1.082-2.233,2.623-2.818,4.406c2.022,0.262,4.463,1.13,4.784,1.247
	c6.347,2.309,12.555,4.993,18.76,7.657c4.325-3.589,9.759-3.236,16.158-2.505c0.786,0.09,0.997,0.466,0.884,0.873
	c1.815,0.012,3.797,0.406,5.968,1.291c1.497-3.176,3.245-6.427,5.835-8.744c-3.55-0.356-7.326-1.721-10.604-2.513
	c-8.35-2.021-16.677-4.142-25.003-6.262c-8.501-2.164-16.998-4.349-25.51-6.471c-4.301-1.072-8.984-2.818-13.438-3.102
	C131.366,213.788,132.813,219.762,136.183,222.282z M131.913,221.955c-1.112-1.296-1.805-2.937-1.806-4.704
	c-0.077-0.099-0.142-0.211-0.177-0.35c-1.986-7.943-5.143-15.352-8-23c-0.036-0.097-0.051-0.189-0.055-0.279
	c-7.859-1.111-17.536,5.398-24.674,11.1c0.143,0.096,0.25,0.226,0.293,0.404c1.957,8.061,3.283,17.3-3.593,23.393
	c-0.17,0.15-0.427,0.258-0.713,0.326c-1.985,2.188-4.29,2.193-4.29,2.193l-3.818-3.818c-0.108-0.039-0.217-0.079-0.325-0.108
	c-0.543,0.28-2.578,1.359-4.614,2.798c-0.796,1.291-1.355,2.73-1.576,4.233c-0.332,2.27,0,4,0.793,5.248
	c4.156,1.875,8.277,1.824,9.861,1.713c0.094-0.032,0.186-0.056,0.279-0.09c0.344-0.124,2.156-0.591,1.988,0.292
	c-1.063,5.585-0.76,11.182-0.674,16.822c3.91,4.077,8.914,7.464,14.75,7.323c0.258-0.773,0.58-1.495,0.955-2.171
	c-0.104-0.037-0.199-0.086-0.306-0.12c-0.667-0.21-0.009-0.818,0.292-0.986c0.278-0.154,0.604-0.274,0.938-0.34
	c2.518-3.407,6.515-5.525,10.521-7.266c0.246-3.89,0.613-7.759,1.243-11.575c-0.628,0.197-1.34,0.143-1.652-0.343
	c-1.731-2.688-3.927-5.08-6.057-7.452c-0.828-0.923-2.464-2.208-3.229-3.488c-0.336,0.023-0.618-0.025-0.747-0.183
	c-2.202-2.681-2.414-6.626-0.313-9.466c1.82-2.461,4.75-3.521,7.698-3.298c0.556-0.227,1.207-0.298,1.602-0.045
	c2.974,1.903,6.341,2.967,9.5,4.5c0.218,0.105,0.326,0.231,0.366,0.364c0.34-0.232,0.698-0.435,1.065-0.618
	c-1.562-3.15-2.688-6.532-4.887-9.317c-0.915-1.157,1.846-2.294,2.654-1.27c2.291,2.9,3.415,6.425,5.075,9.68
	C130.821,221.976,131.367,221.948,131.913,221.955z M116.919,275.715c0.293-3.714,0.46-7.438,0.593-11.169
	c0.101-2.838,0.207-5.68,0.365-8.514c-0.468,0.22-0.932,0.445-1.387,0.681c-1.739,0.899-3.361,1.938-4.73,3.224
	c-0.761,0.713-1.439,1.506-2.017,2.393c3.001,1.352,5.155,3.925,6.99,6.645c0.58,0.86-2.232,1.78-2.707,1.078
	c-1.223-1.813-2.58-3.586-4.26-4.941c-0.005,0.009-0.007,0.017-0.013,0.026c-0.15,0.235-0.285,0.476-0.426,0.713
	c-0.204,6.257,2.975,13.726,6.209,19.637c0.055,0.101,0.109,0.201,0.164,0.3c0.064-0.357,0.144-0.709,0.199-1.07
	C116.363,281.724,116.682,278.723,116.919,275.715z M105.882,266.858c-0.404-0.03-0.682-0.171-0.607-0.461
	c0.026-0.104,0.063-0.199,0.092-0.303c-0.542,0.246-1.189,0.47-1.434,0.48c-5.646,0.238-10.559-2.466-14.558-6.203
	c-3.536,1.636-4.199,6.641-5.032,10.014c-0.044,0.18-0.152,0.339-0.296,0.479c3.128,6.46,10.875,10.382,17.24,13.687
	C102.318,278.442,103.018,272.372,105.882,266.858z M75.504,236.344c0.005-0.626,0.07-1.25,0.185-1.866
	C75.413,235.114,75.326,235.743,75.504,236.344z M123.621,227.726c-0.231-0.177-0.317-0.455-0.119-0.852
	c0.391-0.783,0.89-1.465,1.456-2.065c-0.443,0.124-0.895,0.149-1.206-0.002c-3.163-1.535-6.522-2.594-9.5-4.5
	c-0.081-0.052-0.147-0.106-0.2-0.161c-0.118-0.007-0.236-0.01-0.352-0.031c-4.971-0.944-5.796,5.894-4.059,9.415
	c0.531,0.039,1.009,0.273,1.164,0.614c0,0,0,0,0-0.001c0.001,0.003,0.01,0.014,0.012,0.019c0.077,0.156,1.045,1.215,1.385,1.595
	c0.894,0.997,1.795,1.987,2.683,2.99c1.657,1.871,3.33,3.765,4.76,5.823C120.507,236.19,121.771,231.895,123.621,227.726z
	 M138.438,224.446c-0.061,0-0.12-0.001-0.181-0.002c0.019,0.021,0.037,0.043,0.052,0.063
	C138.352,224.487,138.395,224.467,138.438,224.446z M72.268,185.006c-4.027,2.806-8.766,6.364-9.552,11.594
	c-0.738,4.909,0.868,9.634,2.738,14.115c7.386-6.335,15.367-11.855,23.487-17.224c7.213-4.768,14.83-9.15,22.833-12.477
	c-3.283-0.996-6.301-2.653-9.432-3.846c-2.192-0.836-4.445-1.43-6.879-1.423c-0.635,0.001-1.277,0.03-1.94,0.123
	C85.512,176.987,78.835,180.43,72.268,185.006z M72.977,244.011c-0.066-0.118-0.131-0.238-0.196-0.357
	c-2.081-3.802-3.455-8.1-4.161-11.646c-1.348,1.71-2.628,3.457-3.811,5.249c-0.466,0.705-3.059,0.819-2.857,0.514
	c1.862-2.82,3.941-5.558,6.165-8.217l-0.217-0.516l3.239-2.957c6.89-7.575,14.913-14.413,22.784-20.404
	c0.451-0.344,0.902-0.689,1.353-1.027c1.995-1.498,4.53-3.357,7.367-5.18c8.548-5.486,19.845-10.623,27.437-4.447
	c0.423,0.344-2.121,1.479-2.73,0.982c-0.609-0.495-1.245-0.9-1.899-1.24c1.548,4.075,3.146,8.102,4.579,12.189
	c6.297-6.924,16.491-22.08,6.045-27.744c-6.428-3.486-14.12-1.51-20.897,1.307c-0.389,0.452-1.371,0.896-1.99,0.859
	c-1.406,0.629-2.766,1.273-4.047,1.892c-7.081,3.419-13.77,7.455-20.317,11.793c-7.494,4.966-15.739,10.475-22.958,16.919
	c-0.079,0.258-0.365,0.49-0.731,0.659c-6.283,5.722-11.726,12.176-15.112,19.636c-5.606,12.352,6.095,14.009,16.022,12.946
	c2.442-0.262,4.773-0.686,6.717-1.158c0.046-0.011,0.094-0.022,0.138-0.033C72.923,244.023,72.95,244.017,72.977,244.011z
	 M55.337,290.542c-6.035,9.792-8.251,21.851-10.025,33.081c-0.085,0.536-0.171,1.077-0.257,1.618
	c3.711,3.395,9.556,4.496,14.372,5.074c4.873,0.584,11.239,1.265,15.891-0.925c2.31-8.639,4.204-17.376,6.138-26.106
	c0.146-0.662,2.967-1.072,2.85-0.543c-1.95,8.801-3.857,17.608-6.192,26.316c0.331,0.182,0.374,0.471-0.217,0.833
	c-0.031,0.116-0.059,0.234-0.091,0.351c-0.13,0.475-1.539,0.79-2.327,0.769c-1.482,0.553-3.04,0.919-4.635,1.148
	c-0.103,4.894,1.104,11.522,7.248,11.742c4.878,0.175,9.707-2.489,13.287-5.624c9.664-8.457,13.618-20.854,17.889-32.539
	c1.958-5.358,4.152-10.567,5.582-16.049c-0.175-0.047-0.318-0.127-0.398-0.262c-2.955-4.925-6.418-11.711-7.605-18.018
	c-1.565,4.801-2.054,9.9-3.003,14.971c-0.194,1.037-1.789,1.356-2.59,0.928c-7.2-3.86-17.048-8.258-20.4-16.334
	C70.075,272.509,60.828,281.634,55.337,290.542z M121.044,346.798c12.417-15.121,25.986-33.113,28.385-53.112
	c0.005-0.041,0.021-0.08,0.035-0.119c0.565-6.745,4.303-11.57,7.43-17.353c1.49-2.754,2.869-5.934,2.163-9.141
	c-0.884-4.013-3.576-6.562-5.428-10.077c-3.112-5.906-0.68-13.339,0.117-19.65c0.258-2.045,0.565-4.214,1.184-6.214
	c-0.011-0.291,0.067-0.518,0.226-0.686c0.823-2.32,2.134-4.35,4.385-5.594c-2.304-2.811-7.136-1.109-9.786,0.596
	c0.798,1.164-1.891,2.258-2.681,1.228c-0.234-0.306-0.537-0.551-0.863-0.771c-0.174-0.011-0.333-0.046-0.463-0.116
	c-2.051-1.109-4.441-0.84-6.434,0.282c-0.598,0.337-1.418,0.604-2.066,0.218c-0.183-0.109-0.271-0.256-0.302-0.414
	c-0.529,0.103-1.073,0.059-1.396-0.237c-1.461-1.342-3.328-1.867-5.057-1.608c-0.422,0.42-1.161,0.662-1.739,0.566
	c-0.781,0.402-1.479,0.997-2.027,1.782c0.154,0.185,0.194,0.442,0.034,0.786c-4.012,8.606-5.245,17.697-5.807,26.917
	c0.167,0.129,0.188,0.308-0.033,0.514c-0.45,7.726-0.457,15.535-1.241,23.224c-0.81,7.937-2.655,15.166-5.53,22.575
	c-2.763,7.117-4.998,14.478-8.211,21.412c-4.583,9.891-12.21,21.083-23.644,23.637c-9.604,2.145-14.551-3.763-14.38-13.008
	c-2.954,0.147-5.943-0.058-8.719-0.33c-4.691-0.462-10.344-1.377-14.586-4.015c-1.411,9.207-2.445,18.877,0.945,27.679
	c3.322,8.625,9.734,15.938,18.428,19.44C87.228,384.573,107.567,363.208,121.044,346.798z M105.434,398.562
	c9.634,8.261,21.304,14.414,32.761,20.166c0.421,0.212,0.842,0.424,1.263,0.634c0.222-17.114,9.501-33.935,18.62-47.893
	c0.895-1.369,1.771-2.737,2.659-4.105c2.748-4.229,5.466-8.477,8.157-12.74c1.093-1.731,2.197-3.45,3.28-5.195
	c3.405-5.486,7.216-10.358,12.251-14.122c0.486-0.364,0.963-0.736,1.474-1.078c-0.149-0.035-0.298-0.071-0.446-0.107
	c-0.658-0.161-1.315-0.32-1.972-0.498c-7.777-2.104-15.441-5.385-22.192-9.646c-5.357-3.381-11.298-7.873-13.492-13.971
	c-0.018-0.05-0.04-0.098-0.058-0.148c-0.096,0.227-0.188,0.453-0.286,0.678c-2.493,5.745-5.656,11.234-8.999,16.396
	c-6.318,9.755-13.446,19.111-21.377,27.618c-7.809,8.375-17.661,17.36-28.59,21.9c1.305,2.931,2.823,5.666,4.519,8.236
	C96.481,389.951,100.71,394.512,105.434,398.562z M185.933,482.899c-0.267-0.849,1.124-1.576,2.104-1.393
	c0.158-0.106,0.317-0.213,0.475-0.316c5.353-3.524,10.457-7.4,15.671-11.124c5.43-3.879,10.93-7.735,16.769-10.983
	c1.911-1.063-6.167-13.757-7.082-15.377c-5.39-9.541-11.876-20.31-11.547-31.682c0.312-10.774,6.123-20.641,13.644-28.133
	c13.764-13.714,32.794-21.575,51.797-24.729c-0.807-3.595-1.717-7.19-2.618-10.795c-0.157-0.035-0.198-0.106-0.056-0.224
	c-2.559-10.241-4.971-20.554-4.413-31.104c-0.952,0.082-0.605-0.343,0.039-0.673c0.005-0.071,0.014-0.143,0.019-0.215
	c-0.74-0.076-1.22-0.426-0.242-1.03c0.118-0.073,0.232-0.149,0.351-0.223c0.026-0.286,0.043-0.57,0.073-0.855
	c0.012-0.104,0.016-0.207,0.027-0.311c0.004-0.03,0.018-0.06,0.029-0.089c-0.329,0.164-0.707,0.314-1.02,0.407
	c-0.205,0.061-0.384,0.098-0.5,0.095c-24.188-0.635-46.15,11.321-68.607,18.799c-0.046,0.14-0.211,0.304-0.554,0.493
	c-8.196,4.517-13.063,11.923-17.68,19.789c-3.938,6.71-8.497,12.941-12.644,19.511c-8.693,13.771-17.777,30.09-17.639,46.864
	c0.006,0.016,0.017,0.028,0.02,0.046c1.846,12.163,5.921,23.758,11.913,34.5c3.469,6.219,7.326,12.202,11.451,18.006
	c2.75,3.867,5.405,8.43,9.02,11.582C178.517,487.036,182.315,485.229,185.933,482.899z M341.388,455.448
	c-2.311,6.207-2.786,12.389-2.104,18.993c0.079,0.12,0.116,0.267,0.095,0.441c0.268,0.023,0.448,0.101,0.451,0.241
	c0.126,5.753,1.596,11.53,3.407,16.965c1.774,5.324,3.755,11.592,7.505,15.917c1.971,2.271,4.643,5.62,7.837,6.176
	c3.82,0.665,6.767-4.935,8.255-7.569c2.83-5.01,5.051-10.123,6.66-15.65c2.439-8.382,7.399-26.02-2.562-31.707
	C362.239,454.29,351.101,456.702,341.388,455.448z M214.392,464.946c-0.005-0.004-0.01-0.007-0.014-0.01
	c-2.129,1.437-4.23,2.913-6.32,4.408c-6.229,4.459-12.363,9.057-18.862,13.135c7.399,9.382,19.24,14.52,30.468,17.661
	c14.732,4.121,30.288,5.56,45.551,4.971c14.922-0.576,30.238-2.72,44.192-8.265c10.82-4.301,21.882-10.746,26.972-21.709
	c-0.621-6.065-0.307-11.748,1.506-17.449c-14.938,14.793-40.053,19.134-60.006,20.366
	C257.397,479.318,231.165,478.57,214.392,464.946z M397.776,345.08c0.143-0.063,0.292-0.121,0.445-0.169
	c0.806-5.606,1.99-11.014,3.754-16.379c-0.392,0.094-0.747,0.112-0.945-0.018c-41.214-27.003-91.563-19.719-137.476-11.943
	c-0.532,10.216,1.774,20.236,4.264,30.17c19.364-9.51,42.181-10.637,63.339-11.698C353.423,333.925,377.357,335.296,397.776,345.08z
	 M442.813,290.281c-0.933-1.133-1.925-1.83-2.944-2.192c-0.736,0.263-1.654,0.311-1.938-0.188c-0.021-0.038-0.044-0.076-0.065-0.113
	c-3.93,0.132-7.99,4.18-10.594,7.086c-8.304,9.271-14.534,19.996-21.716,30.082c0.208,0.057,0.321,0.162,0.261,0.328
	c-2.454,6.674-3.956,13.366-4.892,20.391c5.866,3.486,11.577,7.321,17.897,9.954c3.042,1.267,9.191,4.187,12.42,2.157
	c3.22-2.022,5.353-5.648,6.881-9.03c5.536-12.255,7.987-26.863,8.164-40.297C446.36,302.896,446.6,294.88,442.813,290.281z" fill="#0984E3"></path>
</svg>