<?xml version="1.0" standalone="no"?>
<svg version="1.1" id="Layer_1" xmlns="http://www.w3.org/2000/svg" xmlns:xlink="http://www.w3.org/1999/xlink" x="0px" y="0px" width="595.28px" height="595.28px" viewBox="0 0 595.28 595.28" enable-background="new 0 0 595.28 595.28" xml:space="preserve">
<path id="color_x5F_2" fill="#FBC02D" d="M268.655,520.464c0.864-0.078,1.775-0.215,2.701-0.41c-0.434,0.27-0.697,0.424-0.697,0.424
	l-3.427,0.118C267.707,520.552,268.181,520.507,268.655,520.464z M255.751,500.091c-6.115,4.078-13.34,6.373-19.795,9.852
	c-4.346,2.342-14.667,9.521-4.189,10.682c9.254,1.023,18.016,0.143,27.172-0.869c4.48-0.495,11.055,0.146,15.658-1.889
	c1.23-0.895,2.586-1.964,3.833-3.125c0.403-0.615,0.739-1.311,0.991-2.103c1.698-5.329-0.494-10.589-2.804-15.376
	c-1,0.863-2.484,1.715-4.458,1.715c-0.826,0-1.998,0-3.332,0c-4.173,0.674-8.477,0.848-12.814,0.879
	C255.966,499.925,255.887,500,255.751,500.091z M336.489,514.769c7.376,1.512,14.637,0.482,22.027,1.188
	c3.778,0.36,7.842,1.138,11.633,0.625c5.497-0.743,2.887-5.645,0.01-7.846c-6.057-4.634-13.401-6.843-20.063-10.366
	c-6.632,3.659-16.22,2.231-24.43,0.604c-1.404-0.242-2.669-0.47-3.633-0.647C321.839,507.358,327.631,512.952,336.489,514.769z
	 M347.949,497.91c-0.835,0.291-2.028,0.69-3.368,1.091C345.786,498.764,346.915,498.404,347.949,497.91z M440.169,252.213
	c0.116,1.794,0.519,3.601,1.236,5.372c0.354,0.873-2.502,1.756-2.898,0.777c-0.637-1.572-1.033-3.18-1.204-4.786
	c-2.136,1.185-5.36,3.095-5.23,3.343c0.374,0.711-1.052,1.387-2.065,1.262c-0.071,0.016-0.144,0.031-0.219,0.039
	c-2.912,0.313-4.092,6.873-4.268,9.012c-0.285,3.469,0.018,7.896,2.777,10.443c3.27,3.017,8.925,3.604,13.166,3.873
	c0.151,0.01,0.311,0.02,0.467,0.029c2.439,0,4.879,0,7.318,0c2.812-0.308,5.49-1.133,7.289-3.065
	c1.634-1.757,2.836-4.075,3.557-6.608c0.275-2.357,0.537-5.027,0.674-7.535c-0.341-3.465-1.602-6.75-3.951-9.078
	c-2.17-2.15-4.953-3.414-7.891-3.896c-0.288-0.043-0.57-0.083-0.847-0.12C445.425,250.979,442.682,251.309,440.169,252.213z
	 M222.511,361.624c-0.006-3.693,0.104-7.388,0.232-11.078c0.349-10.002,0.811-20.005,1.348-30.006
	c-0.676,0.029-1.181-0.123-0.806-0.552c0.238-0.272,0.543-0.472,0.871-0.642c0.146-2.664,0.29-5.328,0.446-7.992
	c-0.494-0.125-0.988-0.25-1.479-0.39c-1.744-0.494,0.351-2.307,1.626-1.991c1.179-19.543,2.658-39.072,4.346-58.557
	c1.095-12.641,2.563-25.079,4.75-37.58c1.965-11.23,4.032-22.493,6.938-33.525c1.396-5.303,2.722-12.291,6.047-17.186
	c-4.786-2.651-8.454,7.655-9.66,10.832c-0.444,1.168-3.351,1.24-2.764-0.305c0.05-0.13,0.103-0.266,0.154-0.401
	c-0.041-0.007-0.083-0.01-0.122-0.021c-15.391-4.311-24.548,13.045-31.641,23.639c-4.571,6.828-9.707,14.059-16.767,18.168
	c-1.467,1.098-2.868,1.816-4.087,1.916c-1.831,0.666-3.771,1.145-5.86,1.348c-24.899,2.429-31.388-34.814-35.499-52.601
	c-0.336,0.218-0.737,0.356-1.131,0.324c-10.469-0.855-22.545,4.462-32.068,9.362c0.018,0.798-1.424,1.4-2.267,1.191
	c5.868,20.465,12.952,44.02,30.378,57.625c21.188,16.543,52.947,13.217,73.378-2.971c1.765-9.271,3.746-18.502,5.983-27.673
	c0.177-0.722,3.013-1.142,2.859-0.51c-2.216,9.083-4.189,18.226-5.947,27.411c0.439,0.287,0.563,0.788-0.139,1.365
	c-0.045,0.037-0.094,0.072-0.139,0.109c-3.771,19.977-6.534,40.154-8.534,60.368c-2.212,22.358-3.879,44.96-3.225,67.444
	c0.368-0.072,0.705-0.076,0.914,0.045c1.701,0.988,2.495,3.176,4.151,4.329c4.535,3.16,10.645,3.345,16.199,3.084
	c0.568-0.124,1.086-0.239,1.534-0.343C222.358,364.468,222.514,362.901,222.511,361.624z M176.078,215.706
	c-2.229-0.181-4.495-0.424-6.382-0.646C171.683,215.719,173.806,215.966,176.078,215.706z M106.177,171.946
	c0.096,0.184,0.19,0.368,0.286,0.551c1.782-0.908,3.638-1.82,5.552-2.702C109.854,170.575,107.828,171.325,106.177,171.946z
	 M103.733,173.591c-0.104-0.199-0.205-0.4-0.309-0.601c-0.791,0.304-1.266,0.487-1.266,0.487s0.053,0.192,0.144,0.517
	C102.692,173.717,103.247,173.563,103.733,173.591z M114.159,210.478c0.609,1.218,1.569,2.764,2.791,4.51
	c-2.078-3.666-3.915-7.5-5.572-11.426C112.4,206.437,113.36,208.88,114.159,210.478z M140.458,162.918
	c0.394,0.032,0.641,0.144,0.78,0.296c0.175-0.09,0.367-0.158,0.563-0.205l-0.143-1.031c0,0-1.695,0.328-4.229,0.856
	C138.448,162.821,139.46,162.837,140.458,162.918z M212.659,367.478c0.006,0,0.012,0,0.018,0c-0.152-0.012-0.304-0.022-0.455-0.035
	C212.377,367.463,212.525,367.478,212.659,367.478z M417.159,242.478c0,0-0.026-0.049-0.076-0.14
	c-0.248,0.331-0.497,0.661-0.754,0.988C416.854,242.793,417.159,242.478,417.159,242.478z M273.693,165.202
	c9.461,39.676,14.601,80.081,14.512,120.841c-0.04,18.331-0.312,36.665-0.82,54.989c-0.181,6.482-0.357,12.971-0.713,19.447
	c-0.061,1.113,0.19,3.605-0.313,5.283l3.896,1.797c0.969,0.238,1.965,0.42,2.981,0.555c2.535,0.125,7.224,0.234,13.116-0.182
	c2.755-0.309,5.414-0.702,7.82-1.033c7.277-1.002,15.061-2.013,22.059-4.49c-3.49-7.485-5.189-16.255-7.377-24.143
	c-4.301-15.506-8.348-31.083-12.232-46.697c-3.998-16.068-7.876-32.175-11.291-48.378c-1.928-9.147-4.463-18.76-4.789-28.19
	c-0.179-0.28-0.354-0.564-0.537-0.842c-0.725-1.097-0.903-0.694,0.699-1.114c0,0,0-0.001,0.001-0.001
	c-1.655,0.429-1.862-0.359-0.188-0.802c0.008-0.002,0.016-0.005,0.024-0.007c0.282-0.074,1.213-0.355,1.476-0.082
	c0.085,0.089,0.163,0.188,0.246,0.28c0.607-0.029,1.14,0.163,1.145,0.7c0.002,0.273,0.015,0.549,0.021,0.823
	c0.974,1.454,1.798,3.093,2.665,4.494c2.865,4.63,5.704,9.276,8.561,13.911c6.235,10.122,12.088,21.411,21.672,28.798
	c2.96,2.282,6.069,4.073,9.272,5.456c4.189,1.356,9.669,2.723,16.062,3.361c0.921,0.092,1.844,0.142,2.766,0.155
	c19.355-0.511,39.02-12.378,50.424-28.089c-0.166-0.072-0.292-0.184-0.343-0.348c-1.152-3.709-2.431-7.386-4.106-10.805
	c-1.311-2.075-2.623-4.018-3.74-5.414c-2.842-3.553-5.677-5.585-7.084-6.467c-0.607,0.394-1.564,0.648-2.081,0.398l-0.001,0.001
	c0.855,0.421,1.49,0.124,1.621,0.048c0.035-0.024,0.033-0.02,0,0c-0.078,0.053-0.335,0.248-0.822,0.753
	c-0.742,0.768-1.472,1.548-2.203,2.325c-2.15,2.286-4.314,4.563-6.585,6.729c-4.884,4.66-10.341,9.577-16.702,12.104
	c-4.735,1.882-10.476,2.708-14.661-0.903c-4.274-3.687-6.969-9.498-10.098-14.129c-3.539-5.24-7.116-10.455-10.798-15.596
	c-14.041-19.613-29.948-44.054-57.257-43.839c-0.704,0.569-2.748,0.841-2.635,0.138c0.729-4.541-0.917-10.034-5.36-11.063
	l-0.369,1.106C272.347,159.78,273.045,162.485,273.693,165.202z M382.53,232.751c2.227-1.873,4.356-3.863,6.417-5.924
	L382.53,232.751z M303.89,220.364c0.027,0.23,0.051,0.459,0.08,0.688l7.397,11.449c-1.987-3.229-3.972-6.46-5.96-9.689
	C304.903,221.995,304.394,221.182,303.89,220.364z M255.438,177.454C255.523,177.46,255.521,177.438,255.438,177.454
	L255.438,177.454z M231.729,291.463l2.066,2.778c-0.591-1.045-1.243-2.09-1.906-2.807
	C231.835,291.448,231.783,291.452,231.729,291.463z M255.091,177.356c0.108,0.047,0.188,0.068,0.254,0.082
	c0.177-0.115,0.355-0.229,0.516-0.367c0.584-0.51,1.095-1.076,1.586-1.666c-0.178-0.146-0.29-0.356-0.288-0.643
	c0.015-2.121,0.169-4.416,0.573-6.645c-1.647,0.082-3.717,0.426-5.65,0.578c0.049,2.094,0.327,4.311,1.145,6.236
	C253.606,175.832,254.132,176.946,255.091,177.356z M250.513,287.356c0.18-2.249,0.358-4.498,0.536-6.746
	c0.919-11.641,1.815-23.283,2.681-34.928c1.064-14.334,2.104-28.672,2.993-43.018c0.521-8.402,1.462-17.023,1.141-25.462
	c-0.602,0.42-1.257,0.771-1.992,1.017c-0.54,0.182-1.173,0.331-1.804,0.371c-0.325,5.626-3.054,11.762-4.531,17.136
	c-3.189,11.611-6.255,23.265-8.835,35.028c-2.724,12.418-5.166,25.012-5.958,37.721c-0.372,5.961-0.737,11.922-1.08,17.885
	c-0.053,0.915,0.035,2.047-0.063,3.06c1.688,1.163,3.146,4.515,4.104,5.985c1.342,2.061,2.569,4.568,4.175,6.521
	c2.125-3.332,4.148-6.729,6.127-10.148C248.636,290.687,250.446,288.181,250.513,287.356z"></path>
<path id="color_x5F_1" d="M506.088,363.858c0-0.264-0.093-0.463-0.241-0.612c0.315-0.434,0.252-0.85-0.686-0.85
	c-6.814,0-13.629,0-20.443,0c0.029-0.401-0.229-0.763-0.945-0.871c-2.756-0.416-5.524-0.777-8.302-1.091
	c1.216-2.118,0.378-7.332,0.365-9.275c-0.004-0.592-0.007-1.187-0.012-1.782c0.966-0.396,0.848-1.206-0.015-1.389
	c-0.016-1.313-0.045-2.632-0.098-3.952c0.899-0.479,1.239-1.499-0.069-1.472c-0.108-1.949-0.286-3.892-0.582-5.803
	c2.586,0.288,5.169,0.606,7.743,0.994c1.505,0.228,2.915-1.937,0.969-2.23c-0.605-0.091-1.213-0.171-1.819-0.257
	c0.641-0.622,0.524-1.691-0.871-1.691c-1.753,0-3.506,0-5.259,0c0.681-2.436,0.023-6.703,0.013-8.418
	c-0.004-0.592-0.007-1.187-0.012-1.782c0.966-0.396,0.848-1.206-0.015-1.389c-0.016-1.313-0.045-2.632-0.098-3.952
	c0.899-0.479,1.239-1.499-0.069-1.472c-0.108-1.949-0.286-3.892-0.582-5.803c2.586,0.288,5.169,0.606,7.743,0.994
	c1.505,0.228,2.915-1.937,0.969-2.23c-0.605-0.091-1.213-0.171-1.819-0.257c0.641-0.622,0.524-1.691-0.871-1.691
	c-1.753,0-3.506,0-5.259,0c0.681-2.436,0.023-6.703,0.013-8.418c-0.004-0.592-0.007-1.187-0.012-1.782
	c0.966-0.396,0.848-1.206-0.015-1.389c-0.016-1.313-0.045-2.632-0.098-3.952c0.899-0.479,1.239-1.499-0.069-1.472
	c-0.129-2.311-0.362-4.608-0.768-6.86c1.983,0,3.968,0,5.951,0c1.657,0,2.222-2.127,0.256-2.127c-8.591,0-17.181,0-25.771,0
	c0.904-0.43,1.772-0.932,2.583-1.537c9.47-7.063,7.053-24.058-2.953-29.055c-4.634-2.315-9.958-2.041-14.795-0.534
	c0.17-3.808,1.687-7.468,4.488-10.464c0.823-0.881-2.08-0.679-2.689-0.027c-3.053,3.266-4.671,7.359-4.729,11.576
	c-0.152,0.066-0.308,0.128-0.459,0.195c-0.798,0.355-5.831,2.889-7.271,4.766c-8.322,1.609-8.246,16.32-4.477,21.668
	c1.132,1.606,2.859,2.676,4.826,3.412c-11.307,0-22.613,0-33.92,0c-0.607,0-1.065,0.287-1.309,0.648
	c-6.687,0.857-11.086,6.344-11.587,13.205c-0.521,7.135,3.781,11.252,9.42,13.24c-5.462,1.65-8.975,6.668-9.42,12.76
	c-0.521,7.135,3.781,11.252,9.42,13.24c-5.462,1.65-8.975,6.668-9.42,12.76c-0.702,9.628,7.37,13.771,15.67,14.587
	c6.18,0.608,12.473-0.123,18.646-0.461c6.796-0.372,13.639-0.376,20.442-0.418c11.302-0.069,22.653,0.177,33.916,1.258
	c-36.543,0-73.086,0-109.628,0c-0.137-1.157-2.472-0.802-2.85,0.13c-1.083,0.412-2.115,1.688-0.47,1.688c0.136,0,0.271,0,0.405,0
	c-0.015,4.202-0.106,8.392-0.658,12.567c-0.039,0.295,0.077,0.498,0.275,0.631c-0.873,0.527-1.436,1.469-0.022,1.469
	c5.476,0,10.95,0,16.425,0c0.29,48.507,12.499,96.051,12.658,144.578c0.002,0.455,0.342,0.686,0.787,0.756
	c-0.176,0.389-0.013,0.721,0.808,0.713c4.441-0.045,8.808-0.547,13.069-1.775c0,0.103,0.003,0.205,0.003,0.307
	c0.005,1.34,2.915,0.77,2.912-0.309c-0.019-5.671-0.208-11.328-0.517-16.975c19.947,0,39.896,0,59.844,0
	c0.552,0,1.279-0.404,1.67-0.822c-0.348,6.022-0.557,12.057-0.576,18.105c-0.002,0.488,0.387,0.721,0.879,0.77
	c-0.174,0.307,0.034,0.535,0.999,0.369c4.064-0.7,8.322-1.854,12.401-0.683c0.132,0.038,0.324,0.03,0.545-0.007
	c0.6,0.717,2.752,0.172,2.755-0.758c0.159-48.428,12.314-95.871,12.654-144.27c2.672,0,5.345,0,8.017,0
	c1.02,0,2.498-1.314,1.709-1.706c0.182-0.179,0.298-0.397,0.298-0.649C506.088,372.304,506.088,368.081,506.088,363.858z
	 M428.298,277.675c-2.76-2.548-3.063-6.975-2.777-10.443c0.176-2.139,1.355-8.699,4.268-9.012c0.075-0.008,0.147-0.023,0.219-0.039
	c1.014,0.125,2.439-0.551,2.065-1.262c-0.13-0.248,3.095-2.158,5.23-3.343c0.171,1.606,0.567,3.214,1.204,4.786
	c0.396,0.979,3.252,0.096,2.898-0.777c-0.718-1.771-1.12-3.578-1.236-5.372c2.513-0.904,5.256-1.233,7.911-0.938
	c0.284,0.031,0.565,0.074,0.847,0.12c2.938,0.481,5.721,1.745,7.891,3.896c2.35,2.328,3.61,5.613,3.951,9.078
	c0.248,2.516,0.014,5.121-0.674,7.535c-0.721,2.533-1.923,4.852-3.557,6.608c-1.799,1.933-4.478,2.758-7.289,3.065
	c-2.439,0-4.879,0-7.318,0c-0.156-0.01-0.315-0.02-0.467-0.029C437.223,281.279,431.567,280.691,428.298,277.675z M388.002,302.72
	c-5.195-6.906-0.62-18.385,8.259-18.365c0.605,0.002,1.052-0.283,1.293-0.65c24.762,0,49.524,0,74.287,0
	c0.469,2.344,0.705,4.74,0.842,7.145c-7.702,0.703-15.502,0.707-23.219,0.789c-4.45,0.049-8.9,0.047-13.351-0.02
	c-1.419-0.021-2.837-0.057-4.255-0.111c-0.656-0.025-2.311-0.414-1.894,0.004c-0.749-0.753-3.497,0.34-2.686,1.156
	c0.908,0.913,3.59,0.561,4.704,0.598c4.694,0.156,9.396,0.133,14.093,0.106c8.859-0.049,17.845-0.033,26.687-0.885
	c0.053,1.288,0.084,2.573,0.113,3.853c-3.976,0.566-8.089,0.571-12.064,0.643c-1.779,0.031-8.901,0.602-9.628-0.139
	c-0.743-0.758-3.495,0.331-2.686,1.156c1.707,1.739,8.004,0.723,10.1,0.709c4.737-0.029,9.603-0.081,14.321-0.77
	c0.094,2.069,0.494,7.523,0.141,9.639c-2.258,0-4.516,0-6.773,0c-16.201-1.229-32.615-1.007-48.729-0.28
	c-1.188,0.054-2.483,0.159-3.845,0.28c-5.845,0-11.688,0-17.533,0C392.894,306.835,390.005,305.382,388.002,302.72z M388.002,328.72
	c-5.195-6.906-0.62-18.385,8.259-18.365c0.516,0.001,0.916-0.205,1.173-0.492c0.418,0.059,0.837,0.114,1.257,0.155
	c5.379,0.53,10.845,0.044,16.242-0.313c15.863,0,31.727,0,47.589,0c3.153,0.186,6.304,0.416,9.446,0.723
	c0.381,2.113,0.593,4.264,0.715,6.422c-7.702,0.703-15.502,0.707-23.219,0.789c-4.45,0.049-8.9,0.047-13.351-0.02
	c-1.419-0.021-2.837-0.057-4.255-0.111c-0.656-0.025-2.311-0.414-1.894,0.004c-0.749-0.753-3.497,0.34-2.686,1.156
	c0.908,0.913,3.59,0.561,4.704,0.598c4.694,0.156,9.396,0.133,14.093,0.106c8.859-0.049,17.845-0.033,26.687-0.885
	c0.053,1.288,0.084,2.573,0.113,3.853c-3.976,0.566-8.089,0.571-12.064,0.643c-1.779,0.031-8.901,0.602-9.628-0.139
	c-0.743-0.758-3.495,0.331-2.686,1.156c1.707,1.739,8.004,0.723,10.1,0.709c4.737-0.029,9.603-0.081,14.321-0.77
	c0.094,2.069,0.494,7.523,0.141,9.639c-2.258,0-4.516,0-6.773,0c-16.201-1.229-32.615-1.007-48.729-0.28
	c-1.188,0.054-2.483,0.159-3.845,0.28c-5.845,0-11.688,0-17.533,0C392.894,332.835,390.005,331.382,388.002,328.72z
	 M417.558,359.297c-8.834,0.398-23.385,3.625-29.556-4.577c-5.195-6.906-0.62-18.385,8.259-18.365
	c0.516,0.001,0.916-0.205,1.173-0.492c0.418,0.059,0.837,0.114,1.257,0.155c5.379,0.53,10.845,0.044,16.242-0.313
	c15.863,0,31.727,0,47.589,0c3.153,0.186,6.304,0.416,9.446,0.723c0.381,2.113,0.593,4.264,0.715,6.422
	c-7.702,0.703-15.502,0.707-23.219,0.789c-4.45,0.049-8.9,0.047-13.351-0.02c-1.419-0.021-2.837-0.057-4.255-0.111
	c-0.656-0.025-2.311-0.414-1.894,0.004c-0.749-0.753-3.497,0.34-2.686,1.156c0.908,0.913,3.59,0.561,4.704,0.598
	c4.694,0.156,9.396,0.133,14.093,0.106c8.859-0.049,17.845-0.033,26.687-0.885c0.053,1.288,0.084,2.573,0.113,3.853
	c-3.976,0.566-8.089,0.571-12.064,0.643c-1.779,0.031-8.901,0.602-9.628-0.139c-0.743-0.758-3.495,0.331-2.686,1.156
	c1.707,1.739,8.004,0.723,10.1,0.709c4.737-0.029,9.603-0.081,14.321-0.77c0.104,2.307,0.593,8.828-0.012,10.229
	C454.571,358.296,435.87,358.472,417.558,359.297z M390.741,523.012c-0.182-48.38-12.313-95.78-12.652-144.13
	c3.917,0,7.834,0,11.752,0c0.284,47.775,12.123,94.617,12.633,142.384C398.655,522.415,394.731,522.951,390.741,523.012z
	 M396.505,415.772c-0.483,0-1.102,0.311-1.511,0.668c-1.267-12.478-2.149-24.986-2.238-37.559c28.577,0,57.155,0,85.733,0
	c-0.074,12.349-0.919,24.635-2.143,36.891C449.733,415.772,423.119,415.772,396.505,415.772z M476.17,417.511
	c-1.86,18.115-4.499,36.168-6.647,54.262c-21.895,0-43.789,0-65.684,0c-0.753,0-1.834,0.75-1.932,1.264
	c-2.17-18.523-4.893-37.002-6.807-55.543c0.09,0.011,0.188,0.018,0.303,0.018C422.325,417.511,449.247,417.511,476.17,417.511z
	 M466.457,504.542c-0.136-0.063-0.331-0.104-0.618-0.104c-20.223,0-40.444,0-60.667,0c-0.117,0-0.243,0.021-0.371,0.055
	c-0.618-10.442-1.654-20.85-2.869-31.242c0.086,0.154,0.33,0.258,0.806,0.258c22.192,0,44.385,0,66.578,0
	C468.108,483.833,467.078,494.171,466.457,504.542z M480.511,522.281c-3.912-0.582-7.903,0.286-11.785,0.975
	c0.006-0.034,0.018-0.068,0.018-0.104c0.117-35.791,6.787-71.043,10.398-106.541c0.221-0.267,0.289-0.529,0.07-0.688
	c1.238-12.306,2.099-24.643,2.186-37.041c3.92,0,7.839,0,11.758,0C492.868,426.993,480.861,474.161,480.511,522.281z
	 M495.294,377.063c-0.215,0-0.428,0-0.642,0c-4.676,0-9.351,0-14.026,0c-0.214,0-0.428,0-0.641,0c-29.343,0-58.686,0-88.027,0
	c-0.215,0-0.43,0-0.645,0c-4.674,0-9.348,0-14.022,0c-0.215,0-0.43,0-0.645,0c-5.188,0-10.378,0-15.566,0
	c0.181-0.16,0.305-0.35,0.333-0.564c0.54-4.082,0.64-8.177,0.658-12.284c47.028,0,94.056,0,141.083,0c0,4.18,0,8.36,0,12.54
	c0,0.115,0.022,0.216,0.054,0.309C500.57,377.063,497.932,377.063,495.294,377.063z M262.476,123.41c0.454-0.415,1.062-0.599,1.5-1
	c0.491-0.449,1.294-0.644,1.938-0.694c0.253-0.021,1.183,0.033,0.688,0.485c-0.454,0.415-1.062,0.599-1.5,1
	c-0.491,0.449-1.294,0.644-1.938,0.694C262.91,123.916,261.98,123.862,262.476,123.41z M256.184,497.948
	c0.595-0.361,1.356-0.549,2.049-0.549c0.223,0,0.444,0,0.667,0c0.557,0,0.62,0.318,0.16,0.598c-0.595,0.361-1.356,0.549-2.049,0.549
	c-0.223,0-0.445,0-0.667,0C255.787,498.546,255.724,498.228,256.184,497.948z M365.866,503.216
	c-4.414-2.329-9.143-4.023-13.55-6.355c0.3-0.252,0.591-0.52,0.872-0.803c0.788,0.036,1.973-0.324,2.218-0.925
	c0.521-1.272-0.765-3.795-1.147-4.952c-1.418-4.291-3.044-8.516-4.633-12.744c-4.635-12.341-9.352-24.65-13.688-37.1
	c-4.028-11.569-7.236-23.098-9.682-35.09c-1.692-8.299-3.513-16.57-5.164-24.877c-0.227-1.139-2.571-10.717-1.564-11.272
	c1.361-0.751,0.029-1.226-1.064-1.12c6.829-0.959,13.781-2.307,20.072-4.712c0.283-0.108,1.078-0.58,0.868-1.015
	c-3.569-7.369-5.235-16.098-7.422-23.934c-4.302-15.416-8.313-30.915-12.193-46.441c-3.954-15.822-7.752-31.689-11.172-47.637
	c-1.608-7.5-3.669-15.373-4.647-23.187c-0.029-0.229-0.053-0.458-0.08-0.688c0.504,0.817,1.014,1.631,1.518,2.448
	c1.988,3.229,3.973,6.46,5.96,9.689c1.378,2.239,2.756,4.478,4.144,6.711c7.486,12.05,15.145,23.324,28.647,29.147
	c24.706,10.652,56.459-5.014,72.171-25.034c0.257-0.327,0.506-0.657,0.754-0.988c0.326-0.432,0.654-0.862,0.965-1.298
	c0.053-0.073-0.233-0.111-0.642-0.102c-0.001-0.006,0-0.012-0.002-0.018c-0.179-0.576-0.361-1.15-0.547-1.723
	c0.046,0.006,0.091,0.012,0.152,0.014c7.925,0.232,16.229-5.562,22.227-10.096c3.075-2.326,12.872-10.984,3.995-11.685
	c0.529-0.433,1.072-0.854,1.578-1.307c1.118-0.999,2.761-2.489,2.808-4.116c0.034-1.158-0.964-1.688-2.032-1.95
	c0.848-0.84,1.598-1.743,2.197-2.724c1.151-1.885,0.35-3.781-1.384-4.893c-0.847-0.544-1.696-0.67-2.538-0.558
	c1.064-1.491,1.4-3.051,0.317-4.603c-3.528-5.051-11.766,0.379-16.104,4.417c1.026-4.964,0.472-9.185-3.495-10.035
	c-5.225-1.12-8.693,4.091-11.447,7.54c-1.844,2.311-3.747,4.719-5.139,7.34c-2.213,4.165-2.691,8.318-2.791,12.809
	c-0.86-0.729-1.773-1.424-2.758-2.069c-0.557-0.365-2.109,0.128-2.497,0.712c-0.051-0.042-0.112-0.083-0.188-0.121
	c-2.486-1.234-5.67,3.608-6.958,4.974c-1.266,1.342-2.547,2.673-3.854,3.979c-2.061,2.061-4.19,4.051-6.417,5.924
	c-1.886,1.584-3.839,3.087-5.896,4.455c-3.115,2.072-6.786,3.939-10.61,3.938c-4.39,0-6.97-3.438-9.144-6.749
	c-6.963-10.606-14.121-21.093-21.645-31.31c-13.906-18.883-28.96-38.263-54.838-38.042c0.217-2.848-0.292-5.62-2.157-7.942
	c-1.706-2.121-4.399-2.717-6.993-2.583c-0.164-1.872-0.716-3.657-1.408-5.419c3.844,3.348,8.762,6.576,13.223,5.051
	c6.139-2.1,5.587-8.66,5.287-14.217c6.033,2.926,15.877,7.56,19.692,0.619c6.696-12.176-3.417-25.871-12.025-34.527
	c3.512,0.419,7.033,1.293,10.181-0.852c4.149-2.827-1.121-9.105-3.069-11.367c-7.698-8.938-20.956-9.592-32.154-9.16
	c-4.536-12.863-20.961-13.667-32.411-11.261c-10.516,2.21-17.729,9.078-22.499,17.714c-8.507-0.085-15.966,5.098-20.72,12.066
	c-0.874,1.281-3.269,5.646-0.794,6.709c1.729,0.742,3.753,0.277,5.613-0.461c-3.092,6.126-5.398,13.201-6.317,19.907
	c-0.84,6.126,2.073,8.159,6.753,6.579c1.21,3.332,1.384,7.006,3.042,10.157c1.721,3.271,5.895,3.188,9.032,2.875
	c0.356-0.036,1.024-0.329,1.481-0.625c1.181,1.552,2.56,2.934,4.17,4.087c8.08,5.787,24.201-0.548,29.651,7.583
	c-6.031-2.3-10.241,4.833-12.571,10.216c-25.425-6.377-32.802,30.85-49.614,41.707c-3.505,2.264-6.734,3.466-9.711,3.807
	c-2.272,0.26-4.396,0.013-6.382-0.646c-16.089-5.338-23.141-37.939-26.291-51.477c-0.143-0.609-0.897-0.741-1.604-0.574
	c-0.196,0.047-0.389,0.115-0.563,0.205c-0.14-0.152-0.387-0.264-0.78-0.296c-0.998-0.081-2.01-0.097-3.028-0.084
	c-1.229,0.017-2.47,0.087-3.721,0.226c0.2-0.161,0.34-0.354,0.37-0.573c0.924-6.708,9.258-24.144-1.254-27.427
	c-5.129-1.604-10.574,0.967-14.285,4.948c-0.08-0.124-0.166-0.245-0.26-0.366c5.787-22.676,11.225-45.451,15.119-68.539
	c0.17-1.008-2.735-0.486-2.887,0.408c-3.751,22.242-8.936,44.195-14.484,66.05c-0.574-0.433-1.126-0.815-1.541-1.134
	c-2.418-1.852-4.982-3.531-7.177-5.655c-0.172-0.167-0.492-0.21-0.855-0.177c0.341-0.328,0.331-0.646-0.574-0.672
	c-3.769-0.111-9.288,1.057-8.568,5.936c0.168,1.141,0.624,2.231,1.274,3.242c-0.629,0.157-1.239,0.535-1.433,0.929
	c-0.244-0.335-0.745-0.542-1.458-0.362c-4.077,1.027-6.188,4.121-4.354,8.131c0.248,0.543,0.547,1.066,0.885,1.569
	c-6.336,3.622-1.262,11.808,4.666,12.854c2.841,3.129,4.608,7.02,6.531,10.769c0.104,0.2,0.205,0.401,0.309,0.601
	c-0.486-0.028-1.041,0.126-1.431,0.403c-0.362,0.258-0.581,0.618-0.463,1.032c2.685,9.373,5.604,19.215,9.538,28.535
	c1.657,3.926,3.494,7.76,5.572,11.426c4.875,8.604,11.066,16.293,19.339,22.104c20.935,14.705,51.803,10.69,72.001-3.717
	c-3.493,18.906-6.094,37.98-8.066,57.098c-2.365,22.929-4.067,46.156-3.385,69.223c0.007,0.212,0.538,0.25,1.144,0.161
	c2.152,1.286,3.206,3.89,5.56,5.2c2.589,1.443,5.59,2.115,8.68,2.387c0.151,0.013,0.303,0.023,0.455,0.035
	c0.386,0.028,0.771,0.052,1.158,0.069c-2.286,18.417,2.664,37.189,8.158,54.615c8.375,26.558,19.834,52.145,31.18,77.532
	c0.045,0.1,0.119,0.176,0.207,0.238c-8.199,5.428-18.186,7.676-26.036,13.779c-2.017,1.566-4.309,4.01-2.838,6.652
	c1.062,1.906,6.655,1.729,8.347,1.863c11.479,0.922,22.98-0.566,34.38-1.632c0.475-0.044,0.948-0.089,1.423-0.132
	c0.864-0.078,1.775-0.215,2.701-0.41c3.752-0.796,7.729-2.6,9.752-5.736c3.724-5.773,1.021-12.439-1.704-18.064
	c-0.067-0.139-0.208-0.224-0.386-0.27c1.198-0.554,2.375-1.188,3.529-1.909c0.006,0.021,0.012,0.041,0.017,0.062
	c0.307,1.2,3.206,0.431,2.898-0.777c-5.915-23.196-15.8-45.211-20.651-68.699c-2.204-10.674-2.971-21.543-2.887-32.43
	c0.032-4.126,0.242-8.253,0.616-12.362c0.135-1.483-0.015-4.956,0.938-6.218c0.068-0.091,0.121-0.176,0.161-0.258
	c4.514,5.121,8.51,10.17,11.668,16.6c8.625,17.56,14.156,36.936,20.93,55.268c4.48,12.129,9.174,24.188,14.095,36.146
	c0.765,1.857,3.653,11.84,6.896,15.048c-0.629,0.319-1,0.704-0.197,0.834c0.678,0.109,1.391,0.237,2.131,0.378
	c-1.628,23.189,27.207,18.975,42.261,20.449c4.526,0.443,17.969,1.326,14.378-7.17C374.255,507.29,369.11,504.929,365.866,503.216z
	 M408.072,220.919c0.011-7.076,1.026-12.682,5.135-18.441c1.666-2.338,8.223-12.927,11.221-8.043
	c2.104,3.43,0.231,9.127-0.802,12.604c-1.28,4.307-3.271,9.828-6.797,12.83c-1.18,1.006,1.703,0.68,2.254,0.211
	c2.223-1.894,6.25-8.903,8.248-15.506c0.552-0.094,1.091-0.295,1.308-0.568c1.749-2.205,4.231-3.924,6.618-5.357
	c1.215-0.73,2.93-1.738,4.411-1.507c1.29,0.201,2.39,1.651,2.224,2.901c-0.26,1.961-2.564,3.67-4.391,4.92
	c-0.19,0.092-0.34,0.194-0.446,0.305c-0.274,0.186-0.533,0.361-0.763,0.522c-1.829,1.284-3.865,2.407-5.498,3.945
	c-1.231,1.16,1.634,1.13,2.324,0.479c0.915-0.862,2.867-2.024,4.92-3.382c0.287,0.037,0.598,0.009,0.906-0.117
	c1.724-0.703,4.601-3.75,6.215-1.715c0.992,1.25-0.994,3.078-1.791,3.813c-3,2.767-6.948,4.795-10.735,6.253
	c-1.848,0.711-0.22,2.406,1.313,1.816c3.163-1.218,6.812-2.906,9.769-5.191c2.52,0.889-1.309,4.037-2.662,5.137
	c-2.744,2.232-5.852,4.255-9.008,5.86c-1.787,0.909-0.141,1.899,1.158,1.238c2.959-1.505,5.863-3.288,8.547-5.31
	c6.141,0.855-1.564,7.827-3.723,9.631c-4.713,3.939-12.65,10.014-19.126,9.824c-0.389-0.012-1.709,0.475-2.146,0.816
	c-2.108-6.434-4.727-12.513-9.231-17.318C407.845,221.397,408.071,221.177,408.072,220.919z M271.293,155.84
	c0.243,0.028,0.472,0.083,0.7,0.137c4.443,1.029,6.089,6.522,5.36,11.063c-0.113,0.703,1.931,0.432,2.635-0.138
	c27.309-0.215,43.216,24.226,57.257,43.839c3.682,5.141,7.259,10.355,10.798,15.596c3.129,4.631,5.823,10.442,10.098,14.129
	c4.186,3.611,9.926,2.785,14.661,0.903c6.361-2.527,11.818-7.444,16.702-12.104c2.271-2.166,4.435-4.442,6.585-6.729
	c0.731-0.777,1.461-1.558,2.203-2.325c0.487-0.505,0.744-0.7,0.822-0.753c-0.131,0.076-0.766,0.373-1.621-0.048
	c-0.002-0.001-0.004-0.002-0.006-0.003c0.002,0.001,0.005,0.002,0.007,0.002c0.517,0.25,1.474-0.005,2.081-0.398
	c0.204-0.133,0.367-0.279,0.461-0.43c0.031,0.027,0.057,0.057,0.098,0.083c4.754,3.118,7.907,7.415,10.266,12.228
	c1.676,3.419,2.954,7.096,4.106,10.805c0.051,0.164,0.177,0.275,0.343,0.348c-11.404,15.711-31.068,27.578-50.424,28.089
	c-6.416,0.169-12.794-0.914-18.827-3.517c-3.203-1.383-6.313-3.174-9.272-5.456c-9.584-7.387-15.437-18.676-21.672-28.798
	c-2.856-4.635-5.695-9.281-8.561-13.911c-0.867-1.401-1.691-3.04-2.665-4.494c-0.006-0.274-0.019-0.55-0.021-0.823
	c-0.005-0.537-0.537-0.729-1.145-0.7c-0.083-0.093-0.161-0.191-0.246-0.28c-0.263-0.273-1.193,0.008-1.476,0.082
	c-0.009,0.002-0.017,0.005-0.024,0.007c-1.674,0.442-1.467,1.23,0.188,0.802c-0.001,0-0.001,0.001-0.001,0.001
	c-1.603,0.42-1.424,0.018-0.699,1.114c0.184,0.277,0.358,0.562,0.537,0.842c0.326,9.431,2.861,19.043,4.789,28.19
	c3.415,16.203,7.293,32.31,11.291,48.378c3.885,15.614,7.932,31.191,12.232,46.697c2.188,7.888,3.887,16.657,7.377,24.143
	c-6.998,2.478-14.781,3.488-22.059,4.49c-2.406,0.331-5.065,0.725-7.82,1.033c-4.328,0.484-8.89,0.74-13.116,0.182
	c-1.017-0.135-2.013-0.316-2.981-0.555c-1.41-0.346-2.757-0.816-4.022-1.426c0.048-0.118,0.089-0.244,0.127-0.371
	c0.503-1.678,0.252-4.17,0.313-5.283c0.355-6.477,0.532-12.965,0.713-19.447c0.509-18.324,0.78-36.658,0.82-54.989
	c0.089-40.76-5.051-81.165-14.512-120.841c-0.648-2.717-1.347-5.422-2.069-8.119c-0.074-0.277-0.145-0.555-0.22-0.832
	c-0.023-0.087-0.068-0.158-0.121-0.223C271.285,155.966,271.292,155.902,271.293,155.84z M269.761,86.827
	c9.155-0.402,19.724-0.158,27.499,5.098c3.072,2.078,6.223,6.202,7.322,9.68c1.434,4.533-9.454,1.984-11.668,2.131
	c-0.94,0.063-2.181,1.024-1.241,1.912c8.807,8.315,16.77,18.389,14.803,31.258c-1.495,9.789-13.76,2.23-18.854-0.083
	c-0.687-0.313-2.32,0.146-2.303,1.091c0.078,4.158,1.302,9.695-1.248,13.336c-3.285,4.69-13.126-4.779-15.457-7.084
	c-0.245-0.242-0.613-0.338-1.005-0.333c-0.836-2.069-1.521-4.188-1.647-6.456c-0.081-1.441,3.233-2.886,4.275-3.781
	c2.123-1.824,3.609-4.637,4.787-7.109c2.225-4.668,1.125-11.071-5.026-11.436c-2.206-0.131-4.372,0.231-6.206,1.199
	c-2-0.043-3.997-0.137-5.994-0.239c-5.894-8.812,0.49-27.42,10.864-28.633C269.124,87.323,269.5,87.104,269.761,86.827z
	 M261.276,118.245c-0.174,0.205-0.326,0.44-0.482,0.668c-0.367-0.227-0.715-0.473-1.04-0.741
	C260.262,118.196,260.769,118.224,261.276,118.245z M230.611,78.206c10.715-6.76,32.116-6.665,37.337,6.879
	c-0.145,0.111-0.265,0.241-0.354,0.381c-11.052,2.553-18.564,20.287-13.404,30.385c-0.921-0.033-1.842-0.064-2.765-0.072
	c-0.134-0.001-0.259,0.016-0.378,0.041c-0.152-1.129-0.367-2.168-0.602-3.006c-2.279-8.17-13.148-6.254-19.458-6.17
	c-0.125,0.002-0.342,0.056-0.591,0.138c-0.146,0.001-0.305,0.011-0.473,0.028c-0.037,0-0.075,0.001-0.099,0.001l-0.007,0.011
	c-0.687,0.086-1.444,0.309-1.648,0.669c-1.144,2.024-1.66,4.259-1.633,6.487c-1.107,0-2.215,0-3.323,0
	c0.088-2.49-0.354-4.988-1.306-7.131c-0.113-0.256-0.554-0.291-1.058-0.209c-2.528-0.059-5.338-0.303-7.993-0.066
	C215.347,95.191,220.851,84.362,230.611,78.206z M248.292,122.528c0.049-1.096,0.088-2.494,0.076-3.975
	C248.47,119.919,248.466,121.306,248.292,122.528z M241.706,126.345c-1.084-0.152-2.133-0.426-3.137-0.797
	c2.554-4.6,5.438-9.029,8.433-13.361c0.016,0.031,0.036,0.055,0.052,0.086c0.355,0.703,0.752,2.154,1.029,3.868
	C245.835,119.464,243.678,122.856,241.706,126.345z M247.041,125.687c-0.31,0.314-0.682,0.529-1.118,0.632
	C246.349,126.114,246.727,125.895,247.041,125.687z M234.417,123.222c-0.885-0.699-1.682-1.49-2.369-2.359
	c1.86-4.267,3.813-8.498,5.599-12.802c0.085-0.206,0.206-0.368,0.339-0.509c0.932,0.045,1.844,0.147,2.721,0.319
	c0.121,0.284,0.13,0.629-0.034,1.023C238.675,113.708,236.47,118.437,234.417,123.222z M217.364,129.151
	c0.475,1.469,1.703,2.176,3.08,2.477c-3.467,0.353-6.532,1.486-8.242,3.736c-0.463-2.59-0.711-5.232-0.842-7.78
	c0.592-0.099,1.138-0.216,1.579-0.333c1.645-0.439,3.136-1.074,4.474-1.973C217.066,126.557,216.955,127.885,217.364,129.151z
	 M216.363,124.085c-1.021,0.93-2.235,1.625-3.646,1.998c1.384-6.101,2.676-12.213,3.078-18.459c1.126,0.066,2.199,0.164,3.126,0.193
	C218.561,113.313,217.539,118.711,216.363,124.085z M212.612,107.745c0.009-0.043,0.018-0.087,0.026-0.131
	c0.661-0.053,1.339-0.058,2.014-0.039L212.612,107.745z M203.237,134.417c-0.271-0.648-1.91-0.039-2.296,0.154
	c-6.981,3.499-3.561-9.656-2.768-12.51c1.364-4.916,3.127-9.99,5.547-14.498c0.377-0.701-2.098-0.081-2.279,0.008
	c-6.005,2.943-5.388-1.33-3.233-4.891c3.465-5.726,10.406-10.613,17.154-10.268c-2.352,4.572-4.054,9.582-5.23,14.625
	c-2.234,0.598-4.219,1.771-5.625,4.03c-2.164,3.479-2.94,13.598,1.006,16.095c0.649,0.411,1.566,0.598,2.56,0.648
	c0.294,7.303,1.853,14.535,5.636,19.883C204.543,148.495,205.847,140.661,203.237,134.417z M209.858,108.247
	c-1.096,5.058-1.923,11.424-1.833,17.852c-2.58-1.137-2.148-7.994-2.03-9.891c0.12-1.94,0.514-3.898,1.37-5.65
	C207.925,109.413,208.808,108.696,209.858,108.247z M213.81,140.439c-0.021-0.019-0.049-0.032-0.074-0.048
	c-1.186-10.553,13.798-7.631,19.599-4.797c1.732,0.848,3.095,2.066,3.738,3.911c1.785,5.122-8.238,2.104-9.056,1.919
	c-1.419-0.321-3.021-0.836-4.498-0.631C220.132,141.261,216.768,143.14,213.81,140.439z M246.766,155.229
	c-3.67-2.466-8.937-1.911-13.095-1.788c-6.496,0.191-12.479-0.589-16.7-6.079c-0.942-1.225-1.729-2.574-2.388-4.012
	c1.112,0.271,2.286,0.309,3.44,0.043c3.492-0.807,5.604-1.182,9.101-0.353c1.849,0.438,3.689,0.899,5.592,1.022
	c5.749,0.371,9.84-5.108,4.403-8.908c-2.77-1.936-8.033-3.448-13.134-3.633c0.908-0.569,1.027-1.813-0.55-1.707
	c-4.396,0.291-3.604-4.125-2.272-6.881c0.255-0.527,0.02-0.844-0.402-0.984c1.247-1.841,2.012-4.038,2.313-6.316
	c0.884,0,1.769,0,2.652,0c0.285,0,0.606-0.051,0.914-0.145c0.313,2.537,1.32,5.002,2.93,7.07c3.881,4.989,11.44,6.059,17.247,4.566
	c3.766-0.968,4.615-5.314,4.418-9.291c1.443,0.014,2.886,0.069,4.327,0.137c1.321,1.641,3.088,2.971,5.392,3.818
	c1.247,0.459,3.399-1.332,1.668-1.969c-0.157-0.058-0.298-0.133-0.449-0.197c0.477-0.12,0.9-0.309,1.046-0.566
	c0.153-0.272,0.319-0.521,0.495-0.749c0.313,0.006,0.624,0.022,0.937,0.024c1.201,0.01,1.843-1.095,1.32-1.688
	c2.522-0.89,5.561,0.5,6.932,3.129c1.153,2.209,0.097,5.092-0.739,7.209c-1.598,4.047-4.377,6.866-8.004,9.067
	c-2.137,1.298-0.723,4.858-0.32,6.644c1.027,4.554,4.006,8.05,4.488,12.559c-0.401,0.328-0.516,0.676,0.054,0.713
	c0.006,0.119,0.01,0.238,0.012,0.357c-6.158,0.432-9.065,4.986-10.339,10.266c-1.772,0.143-3.537,0.426-5.313,0.535
	c-0.003-2.31-0.598-4.715-1.677-6.855c0.019-0.018,0.034-0.037,0.053-0.056c0.654-0.643,0.121-0.924-0.614-0.944
	C249.533,157.662,248.282,156.249,246.766,155.229z M233.663,286.36c0.343-5.963,0.708-11.924,1.08-17.885
	c0.792-12.709,3.234-25.303,5.958-37.721c2.58-11.764,5.646-23.417,8.835-35.028c1.478-5.374,4.206-11.51,4.531-17.136
	c0.631-0.04,1.264-0.189,1.804-0.371c0.735-0.246,1.391-0.597,1.992-1.017c0.321,8.438-0.62,17.06-1.141,25.462
	c-0.889,14.346-1.929,28.684-2.993,43.018c-0.865,11.645-1.762,23.287-2.681,34.928c-0.178,2.248-0.356,4.497-0.536,6.746
	c-0.066,0.824-1.877,3.33-2.508,4.422c-1.979,3.42-4.002,6.816-6.127,10.148c-1.605-1.953-2.833-4.461-4.175-6.521
	c-0.957-1.471-2.415-4.822-4.104-5.985C233.698,288.407,233.61,287.275,233.663,286.36z M257.446,175.405
	c-0.491,0.59-1.002,1.156-1.586,1.666c-0.16,0.138-0.339,0.252-0.516,0.367c-0.065-0.014-0.146-0.035-0.254-0.082
	c-0.959-0.41-1.484-1.524-1.865-2.424c-0.817-1.926-1.096-4.143-1.145-6.236c1.934-0.152,4.003-0.496,5.65-0.578
	c-0.404,2.229-0.559,4.523-0.573,6.645C257.156,175.049,257.269,175.259,257.446,175.405z M249.21,162.653
	c0.398,1.343,0.623,2.924,0.623,4.813c0,0.186,0.063,0.33,0.162,0.444c-0.015,0.019-0.037,0.028-0.051,0.048
	c-0.136,0.188-0.134,0.342-0.063,0.463c-0.408,0.156-0.711,0.361-0.709,0.605c0.023,2.896,0.371,6.761,2.589,8.883
	c0.037,0.035,0.081,0.057,0.119,0.09c-0.398,0.191-0.696,0.473-0.713,0.803c-0.276,5.328-2.854,11.145-4.261,16.238
	c-3.172,11.49-6.182,23.024-8.806,34.653c-2.814,12.476-5.206,25.118-6.185,37.884c-0.468,6.116-0.764,12.25-1.119,18.373
	c-0.065,1.128,0.051,2.535-0.093,3.77c-0.022,0.037-0.054,0.066-0.071,0.105c-0.156,0.338-0.178,0.763-0.119,1.138
	c0.081,0.522,0.623,0.614,1.215,0.5c0.054-0.011,0.105-0.015,0.16-0.028c0.663,0.717,1.315,1.762,1.906,2.807
	c0.695,1.23,1.305,2.457,1.745,3.133c1.37,2.104,2.609,4.715,4.37,6.527c0.153,0.158,0.36,0.23,0.578,0.268
	c-0.197,0.875,2.315,0.63,2.822-0.141c2.389-3.632,4.615-7.365,6.811-11.115c0.84-1.434,3.148-4.067,3.286-5.789
	c0.156-1.936,0.31-3.871,0.463-5.808c0.922-11.647,1.817-23.296,2.687-34.946c1.095-14.676,2.152-29.354,3.07-44.042
	c0.552-8.83,1.537-17.886,1.109-26.743c-0.014-0.292-0.271-0.443-0.625-0.489c0.204-0.238,0.404-0.481,0.602-0.729
	c0.175-0.221-0.245-0.253-0.624-0.241c0.069-5.894,0.879-15.498,8.39-15.81c0.123-0.006,0.239-0.025,0.351-0.052
	c10.579,39.516,16.339,80.992,16.466,121.885c0.029,9.472-0.033,18.944-0.158,28.417c-0.945,0.159-3.111,0.519-5.797,0.934
	c-6.885,0.77-13.822,1.188-20.73,1.484c-3,0.129-6.073,0.263-9.172,0.331c-4.094-0.068-8.365-0.146-11.754-0.211
	c-3.386-0.239-6.733-0.678-9.99-1.401c0.447-7.287,0.92-14.574,1.418-21.858c2.144-31.361,4.694-62.228,10.956-93.072
	c1.398-6.892,2.964-13.755,4.901-20.516C245.997,170.675,247.075,166.101,249.21,162.653z M283.255,318.259
	c-2.563,0.773-5.223,1.318-7.947,1.672C278.466,319.331,281.252,318.722,283.255,318.259z M116.627,148.089
	c0.183,0.053,0.366,0.115,0.55,0.157c-0.34,0.468-0.953,0.747-1.899-0.369C115.526,148.171,116.077,148.206,116.627,148.089z
	 M100.213,133.446c0.386-2.131,2.7-2.143,4.427-2.093c-0.15,0.169-0.189,0.34-0.038,0.486c2.757,2.669,6.073,4.671,9.017,7.118
	c0.471,0.391,1.135,0.915,1.668,1.516c-0.259,1.012-0.514,2.025-0.773,3.037c-0.016,0.063-0.017,0.118-0.007,0.169
	c-1.708,0.392-4.225,0.206-5.001,0.067c-3.457-0.615-6.683-3.321-8.409-6.297C100.403,136.257,99.963,134.824,100.213,133.446z
	 M96.216,141.61c0.677-0.17,1.022-0.552,1.097-0.938c0.054,0.043,0.113,0.086,0.189,0.125c2.899,1.484,5.677,3.309,8.006,5.599
	c1.012,0.995,1.942,2.157,2.343,3.534c0.576,1.979-1.904,2.572-3.297,2.907c-3.611,0.867-7.121-1.569-9.285-4.242
	C93.313,146.184,92.46,142.557,96.216,141.61z M98.106,160.183c-3.436-0.415-8.615-6.649-4.544-9.164
	c0.527,0.553,1.104,1.064,1.723,1.523c-0.949,0.617-1.06,1.979,0.539,1.811C98.954,154.024,102.568,160.721,98.106,160.183z
	 M100.377,161.967c3.346-1.141,3.218-4.45,1.427-6.897c0.175,0.014,0.35,0.031,0.523,0.035c3.47,0.09,9.633-1.789,8.305-6.354
	c-0.37-1.27-1.135-2.446-2.115-3.529c1.799,0.162,4.524,0.131,6.756-0.413c-0.304,0.656-0.574,1.317-0.773,1.982
	c-0.063,0.212,0.078,0.435,0.251,0.556c-0.633,0.922-0.755,2.371-0.944,3.357c-0.435,2.271-0.727,4.572-1.054,6.861
	c-0.13,0.906-0.264,1.813-0.412,2.717c-0.055,0.332-0.118,0.66-0.185,0.99c-0.135,0.667-0.418,0.619,0.231,0.256
	c-1.709,0.955,0.849,1.42,1.805,0.887c1.556-0.869,1.401-4.787,1.609-6.252c0.254-1.781,0.51-3.563,0.817-5.334
	c0.126-0.727,0.273-1.446,0.441-2.162c0.034-0.143,0.081-0.28,0.121-0.42c2.444,0.551,4.875,0.102,7.377-0.906
	c1.865-0.75,0.182-1.962-1.203-1.404c-4.74,0.982-6.416,0.389-5.025-1.781c0.308-0.579,0.652-1.135,1.033-1.67
	c1.206-1.816,2.968-3.259,4.76-4.452c4.047-2.696,9.272-1.808,10.637,3.261c1.82,6.766-2.675,14.833-3.594,21.497
	c-0.037,0.272,0.068,0.461,0.251,0.587c-6.567,1.076-13.267,3.588-19.401,6.417c-1.914,0.882-3.77,1.794-5.552,2.702
	c-0.096-0.183-0.19-0.367-0.286-0.551C104.413,168.521,102.792,164.96,100.377,161.967z M204.8,363.123
	c-1.656-1.153-2.45-3.341-4.151-4.329c-0.209-0.121-0.546-0.117-0.914-0.045c-0.654-22.484,1.013-45.086,3.225-67.444
	c2-20.214,4.763-40.392,8.534-60.368c0.045-0.037,0.094-0.072,0.139-0.109c0.701-0.577,0.578-1.078,0.139-1.365
	c1.758-9.186,3.731-18.328,5.947-27.411c0.153-0.632-2.683-0.212-2.859,0.51c-2.237,9.171-4.219,18.401-5.983,27.673
	c-20.431,16.188-52.19,19.514-73.378,2.971c-17.426-13.605-24.51-37.16-30.378-57.625c0.843,0.209,2.284-0.394,2.267-1.191
	c9.523-4.9,21.6-10.218,32.068-9.362c0.394,0.032,0.795-0.106,1.131-0.324c4.111,17.786,10.6,55.029,35.499,52.601
	c2.089-0.203,4.029-0.682,5.86-1.348c1.433-0.521,2.793-1.163,4.087-1.916c7.06-4.109,12.195-11.34,16.767-18.168
	c7.093-10.594,16.25-27.949,31.641-23.639c0.039,0.011,0.081,0.014,0.122,0.021c-0.052,0.136-0.104,0.271-0.154,0.401
	c-0.587,1.545,2.319,1.473,2.764,0.305c1.206-3.177,4.874-13.483,9.66-10.832c-3.325,4.895-4.65,11.883-6.047,17.186
	c-2.906,11.032-4.974,22.295-6.938,33.525c-2.188,12.501-3.655,24.939-4.75,37.58c-1.688,19.484-3.167,39.014-4.346,58.557
	c-1.275-0.315-3.37,1.497-1.626,1.991c0.491,0.14,0.985,0.265,1.479,0.39c-0.156,2.664-0.301,5.328-0.446,7.992
	c-0.328,0.17-0.633,0.369-0.871,0.642c-0.375,0.429,0.13,0.581,0.806,0.552c-0.537,10.001-0.999,20.004-1.348,30.006
	c-0.128,3.69-0.238,7.385-0.232,11.078c0.003,1.277-0.152,2.844,0.022,4.24c0.011,0.088,0.03,0.171,0.044,0.258
	c-0.521,0.031-1.046,0.061-1.578,0.085C215.444,366.468,209.335,366.283,204.8,363.123z M279.421,512.639
	c-0.252,0.792-0.588,1.487-0.991,2.103c-0.947,1.446-2.278,2.438-3.833,3.125c-4.604,2.034-11.178,1.394-15.658,1.889
	c-9.156,1.012-17.918,1.893-27.172,0.869c-10.478-1.16-0.156-8.34,4.189-10.682c6.455-3.479,13.68-5.773,19.795-9.852
	c0.136-0.091,0.215-0.166,0.262-0.234c4.338-0.031,8.642-0.205,12.814-0.879c2.619-0.423,5.187-1.047,7.676-1.961
	c0.002,0.004,0.001,0.009,0.003,0.014c0.037,0.076,0.074,0.154,0.111,0.232C278.927,502.05,281.119,507.31,279.421,512.639z
	 M321.141,496.411c-0.168-0.035-0.339-0.069-0.503-0.102c-0.183-0.389-0.934-0.629-1.668-0.419c1.313-0.468,1.489,0.382,0.791-0.733
	c-0.38-0.605-0.688-1.259-1.006-1.896c-0.879-1.764-1.668-3.573-2.459-5.377c-2.27-5.18-4.381-10.432-6.48-15.682
	c-4.274-10.688-7.996-21.629-12.424-32.248c-7.429-17.815-11.926-36.742-20.811-53.965c-3.063-5.938-7.301-10.881-11.893-15.668
	c-5.431-5.664-8.824-11.831-10.951-19.404c-0.306-1.087-3.201-0.302-2.898,0.777c1.954,6.955,4.87,12.9,9.727,18.26
	c0.745,0.822,1.478,1.635,2.199,2.443c-0.613-0.047-1.35,0.145-1.667,0.564c-2.628,3.479-1.832,11.336-1.992,15.365
	c-0.425,10.678,0.156,21.444,1.851,31.995c4.025,25.06,14.965,48.346,21.338,72.804c-0.423,0.082-0.805,0.191-0.978,0.313
	c-7.497,5.244-16.318,5.303-25.08,5.309c-0.056,0-0.136,0.014-0.227,0.033c-10.937-24.473-21.791-49.095-30.206-74.57
	c-5.919-17.916-11.365-37.571-9.115-56.618c2.139-0.024,4.244-0.155,6.217-0.283c0.55,0.831,3.165,0.018,2.832-0.892
	c-0.895-2.434-0.338-5.93-0.302-8.439c0.09-6.11,0.356-12.219,0.634-18.322c0.29-6.39,0.631-12.777,0.991-19.164
	c2.499,0.086,16.188,0.581,26.599,1.486c2.677,0.232,5.888,0.111,9.236-0.209c7.479,0.043,15.076-0.438,22.074-2.68
	c-0.098,5.42-0.207,10.84-0.337,16.259c-0.175,7.271-0.379,14.541-0.692,21.808c-0.093,2.172-0.2,4.346-0.351,6.515
	c-0.046,0.663-0.103,1.325-0.173,1.986c-0.119,1.113-0.416,0.872,0.306,0.475c-0.366,0.208-0.513,0.431-0.509,0.632
	c-0.115,0.212-0.067,0.424,0.26,0.594c8.079,4.189,19.295,2.51,27.928,1.513c2.226-0.257,4.496-0.532,6.781-0.851
	c-0.175,0.036-0.337,0.088-0.469,0.161c-1.817,1.003-0.992,4.212-0.783,5.798c0.897,6.813,2.565,13.559,3.979,20.275
	c2.943,13.985,5.701,27.658,10.215,41.234c4.354,13.096,9.289,25.994,14.163,38.902c1.78,4.712,3.567,9.423,5.249,14.171
	c0.442,1.249,2.134,4.493,2.08,6.294c-0.564,0.101-1.125,0.292-1.316,0.52c-0.928,1.1-2.066,1.923-3.351,2.536
	c-1.034,0.494-2.163,0.854-3.368,1.091c-6.959,1.367-16.313-1.115-22.886-2.478C321.54,496.452,321.349,496.417,321.141,496.411z
	 M370.149,516.582c-3.791,0.513-7.854-0.265-11.633-0.625c-7.391-0.706-14.651,0.323-22.027-1.188
	c-8.858-1.816-14.65-7.41-14.456-16.441c0.001-0.029,0.003-0.06,0.003-0.09c1.168,0.239,2.383,0.49,3.63,0.737
	c8.21,1.627,17.798,3.055,24.43-0.604c6.662,3.523,14.007,5.732,20.063,10.366C373.036,510.938,375.646,515.839,370.149,516.582z
	 M438.928,393.684c0.563-0.431,0.778-0.997-0.114-1.268c-3.967-1.202-13.542,1.034-10.033,6.829
	c3.599,5.945,13.855,1.729,11.29-4.992C439.91,393.833,439.442,393.672,438.928,393.684z M435.938,399.917
	c-1.757,1.266-3.976-0.809-4.729-2.305c-1.701-3.377,3.848-4.031,5.886-3.413c0.098,0.029,0.207,0.039,0.32,0.04
	c-0.238,0.224-0.355,0.496-0.243,0.789C437.853,396.81,437.552,398.754,435.938,399.917z M440.07,444.253
	c-0.16-0.42-0.628-0.581-1.143-0.569c0.563-0.431,0.778-0.997-0.114-1.268c-3.967-1.202-13.542,1.034-10.033,6.829
	C432.379,455.19,442.636,450.974,440.07,444.253z M437.095,444.199c0.098,0.029,0.207,0.039,0.32,0.04
	c-0.238,0.224-0.355,0.496-0.243,0.789c0.681,1.781,0.38,3.726-1.233,4.889c-1.757,1.266-3.976-0.809-4.729-2.305
	C429.508,444.235,435.057,443.581,437.095,444.199z M438.928,487.684c0.563-0.431,0.778-0.997-0.114-1.268
	c-3.967-1.202-13.542,1.034-10.033,6.829c3.599,5.945,13.855,1.729,11.29-4.992C439.91,487.833,439.442,487.672,438.928,487.684z
	 M435.938,493.917c-1.757,1.266-3.976-0.809-4.729-2.305c-1.701-3.377,3.848-4.031,5.886-3.413c0.098,0.029,0.207,0.039,0.32,0.04
	c-0.238,0.224-0.355,0.496-0.243,0.789C437.853,490.81,437.552,492.754,435.938,493.917z" fill="#0984E3"></path>
</svg>