<?xml version="1.0" standalone="no"?>
<svg version="1.1" id="Layer_1" xmlns="http://www.w3.org/2000/svg" xmlns:xlink="http://www.w3.org/1999/xlink" x="0px" y="0px" width="595.28px" height="595.28px" viewBox="0 0 595.28 595.28" enable-background="new 0 0 595.28 595.28" xml:space="preserve">
<path id="color_x5F_2" fill="#FBC02D" d="M493.041,288.716c-6.666,4.251-14.112,7.424-21.626,9.827
	c-11.646,3.724-31.668,7.119-34.825-8.656c16.729,0.022,34.715-2.026,48.861-10.675c3.054-1.867,5.488-4.02,7.435-6.383
	c1.198,3.821,3.371,6.972,5.595,10.479C499.679,285.198,494.678,287.673,493.041,288.716z M482.121,279.764
	c-2.078,0.901-4.825,2.099-7.566,3.315C477.178,282.174,479.738,281.084,482.121,279.764z M492.167,269.233l-5.342,7.396
	c1.557-1.262,2.961-2.672,4.148-4.26c0.474-0.633,0.902-1.281,1.312-1.936c-0.02-0.106-0.05-0.204-0.067-0.312
	c-0.032-0.196,0.027-0.377,0.142-0.541L492.167,269.233z M438.401,266.27c-0.017,0.064-0.051,0.126-0.093,0.186
	c1.827,3.271,10.792,1.072,13.409,0.515c4.974-1.059,10.026-2.397,14.651-4.55c0.121-0.056,0.236-0.123,0.355-0.182
	c2.035-1.56,5.159-4.182,7.398-7.108c1.413-2.754,1.909-5.928,0.986-9.205c-1.631-5.792-4.872-10.953-6.887-16.611
	c-1.285,0.563-2.553,1.166-3.789,1.839c-0.504,0.275-1.545,0.389-1.947-0.14c-5.815-7.639-8.397-17.188-14.582-24.558
	c-0.867-1.034,1.904-2.129,2.668-1.219c5.969,7.113,8.589,16.238,13.981,23.729c10.15-5.078,22.096-6.329,31.32-13.143
	c-6.308-9.98-10.596-23.331-20.265-30.605c-6.079-4.574-13.489-5.443-20.851-6.393c-2.483,0.213-4.345-0.215-5.686-0.824
	c-0.274-0.047-0.547-0.097-0.82-0.147c-3.131,4.611-6.406,9.115-9.95,13.42c-0.561,0.68-1.929,1.082-2.692,0.546
	c-1.071-0.751-1.923-1.565-2.59-2.423c-0.162,0.913-0.407,1.831-0.718,2.749c-0.319,0.943-1.773,1.052-2.503,0.67
	c-2.383-1.247-4.723-2.736-6.695-4.582c-0.417-0.39-1.443-1.118-1.548-1.83c-13.714-1.388-17.392,19.377-19.25,29.368
	c-0.718,3.86-1.725,8.912,0.257,12.592c2.016,3.744,5.909,4.924,9.927,5.178c1.598-0.071,3.099-0.264,4.226-0.446
	c-1.735-10.384-2.873-21.118-1.917-31.642c0.075-0.829,2.97-1.424,2.879-0.43c-0.945,10.412,0.146,21.19,1.961,31.452
	c1.464,8.277,3.313,17.015,6.964,24.755l1.587,2.165c0.434-1.361,1.07-2.619,2.248-3.569c1.602-1.292,4.818-1.316,6.339,0.125
	C439.374,258.416,439.236,263.031,438.401,266.27z M445.639,177.75c0.244-0.364,0.535-0.432,0.665-0.447
	c-0.007-0.009-0.018-0.018-0.022-0.027c-0.092-0.02-0.25-0.062-0.521-0.159c-0.734-0.263-1.477-0.529-2.178-0.876
	c-1.768-0.877-3.303-1.877-4.764-3.202c-0.161-0.146-0.153-0.313-0.044-0.477c-0.034-0.032-0.069-0.063-0.104-0.094
	c-4.354,5.129-7.019,12.186-1.73,17.133C440.006,185.777,442.907,181.821,445.639,177.75z M424.366,185.335
	c0.007,0.009,0.015,0.019,0.021,0.028c0.077,0.021,0.097,0.059,0.069,0.11c0.068,0.14,0.092,0.294,0.074,0.451
	c0.246,0.37,2.65,2.171,3.005,2.427c0.814,0.588,1.649,1.132,2.5,1.651c0.522-2.436,0.376-4.974-1.562-6.851
	c-1.361-1.319-3.056-2.182-4.805-2.895c0.449,1.556,0.669,3.202,0.718,4.876C424.39,185.204,424.379,185.27,424.366,185.335z
	 M370.656,220.879l1.011-0.646c0,0-0.033-0.032-0.083-0.081C371.277,220.394,370.966,220.636,370.656,220.879z M301.225,196.06
	c1.739-0.181,3.373-0.839,4.575-2.031C304.678,194.643,302.99,195.479,301.225,196.06z M364.638,214.214
	c-0.052-0.043-0.104-0.085-0.155-0.129c-0.707,0.027-1.248-0.075-0.518-0.43c-15.648-13.004-33.261-22.931-53.849-23.942
	c-0.071,0.033-0.14,0.064-0.202,0.095c0.255,0.734,0.5,1.472,0.718,2.22c0.101,0.346-0.519,0.71-1.211,0.913
	c-0.015,0.028-0.021,0.054-0.04,0.084c-3.298,5.216-12.845,6.411-17.71,2.406c-0.003,0.113-0.009,0.227-0.011,0.339
	c-0.029,1.358-2.975,1.76-2.941,0.2c0.011-0.508,0.05-1.052,0.096-1.608c-0.425,0.318-1.055,0.584-1.501,0.564
	c-6.395-0.296-11.808,8.177-15.001,12.755c-3.558,5.103-6.715,10.46-10.17,15.629c-0.807,1.207-4.348,4.732-2.894,5.726
	c0.45,0.307,0.92,0.583,1.388,0.863c0.31,0.022,0.505,0.109,0.453,0.282c2.057,1.181,4.251,2.141,6.432,3.044
	c3.711,1.538,7.544,2.842,11.284,4.341c0.717-0.093,1.381-0.06,1.299,0.054c-0.088,0.122-0.169,0.248-0.257,0.371
	c0.168,0.07,0.336,0.142,0.503,0.212c-2.703-6.997,2.246-13.603,2.049-20.889c-0.029-1.103,2.879-1.668,2.916-0.297
	c0.257,9.567-7.837,19.503,3.347,26.004c5.548,3.225,11.344,5.456,14.135,11.679c5.491,12.241,3.617,28.137-0.215,40.595
	c-0.093,0.302-0.384,0.547-0.745,0.723c0.021,0.012,0.045,0.02,0.063,0.034c6.679,5.042,15.078,5.836,23.408,5.629
	c0.182-2.968,0.556-5.933,0.832-8.978c0.106-1.178,3.046-1.657,2.92-0.276c-0.281,3.103-0.675,6.122-0.849,9.15
	c2.688-0.129,5.344-0.321,7.913-0.472c1.631-1.386,3.252-2.782,4.864-4.189l9.246-8.366c1.657-1.566,3.343-3.234,4.937-4.993
	c-0.039-0.038-0.08-0.073-0.113-0.118c-9.277-12.496-7.112-30.27-7.06-44.889c0.001-0.291,0.131-0.534,0.33-0.729l-0.009-0.138
	c-0.447-0.501-0.893-1.001-1.335-1.498c-0.103-0.116-0.151-0.233-0.161-0.349c-0.284,0.11-0.568,0.228-0.854,0.332
	c-6.916,2.52-12.121-9.438-14.063-14.012c-0.278-0.655,2.554-1.587,2.898-0.776c1.556,3.666,3.538,7.824,6.224,10.789
	c0.98,1.083,3.559,3.417,5.006,2.675c1.978-1.013,3.94-1.983,5.848-3.131c4.634-2.791,9.178-5.758,13.566-8.922
	c0.093-0.066,0.225-0.151,0.372-0.244c-0.12-0.792,1.036-1.359,1.957-1.252c1.351-0.946,2.561-2.097,1.605-2.947
	C367.816,216.956,366.245,215.563,364.638,214.214z M191.703,346.084c-4.864,0-9.728,0-14.591,0
	c-3.788,26.623-9.135,53.065-13.944,79.515c-2.501,13.752-5.02,27.502-7.381,41.278c-0.293,1.708-0.582,3.418-0.869,5.128
	c4.9-0.979,9.778-1.342,14.653-1.361c5.323-0.315,13.654,0.385,19.577,1.012c1.732,0.125,3.467,0.242,5.206,0.341
	c0.452-41.864-2.833-83.656-2.885-125.514C191.468,346.337,191.559,346.204,191.703,346.084z M174.213,346.084
	c-6.936,0-13.871,0-20.806,0c-0.49,0-0.468-0.14-0.215-0.321c0-2.967,0-5.934,0-8.901c-0.289-0.042-0.198-0.185,0.066-0.354
	c0.219-0.348,0.996-0.597,1.684-0.698c0.15-0.039,0.277-0.063,0.359-0.063c11.471,0,22.943,0,34.415,0
	c-0.161-7.62-1.948-15.077-1.733-22.708c-10.938-0.259-21.888-0.325-32.805-0.488c-10.941-0.164-21.885-0.305-32.828-0.325
	c-3.704-0.007-7.409-0.01-11.112,0.05c-0.366,0.006-0.732,0.013-1.098,0.02c-13.36,25.511-16.374,54.332-24.581,81.584
	c-8.186,27.181-23.764,51.904-38.077,76.246c0.192-0.025,0.413-0.042,0.623-0.021c20.149-2.508,40.244-0.369,60.462-0.455
	c9.112-0.039,18.232-0.172,27.342,0.079c4.938,0.136,11.558-0.434,16.157,1.762c0.009,0.004,0.013,0.009,0.021,0.014
	c0.056-0.256,0.099-0.464,0.122-0.602c2.353-13.942,4.897-27.853,7.426-41.764C164.654,401.511,170.267,373.894,174.213,346.084z
	 M164.689,336.875c-2.867,0-5.733,0-8.6,0c0,0.098,0,0.195,0,0.292L164.689,336.875z M174.29,107.753
	c-7.304,0.649-13.51,4.879-18.792,9.702c-0.899,0.821-3.729,0.414-2.408-0.792c1.853-1.692,3.886-3.398,6.06-4.946
	c-3.781,0.2-6.837,1.401-9.297,3.296c-0.918,0.843-1.86,1.756-2.756,2.679c-4.948,5.983-6.601,15.405-7.021,23.468
	c-0.164,3.148-0.375,19.044,5.801,11.272c2.436-3.065,4.253-6.868,6.867-9.848c-0.978-0.033-1.634-0.802-0.244-1.473
	c11.262-5.435,23.023-11.556,35.797-11.846c1.956-0.044,0.021,1.698-1.105,1.724c-2.529,0.058-5.022,0.39-7.485,0.906
	c3.949,1.871,6.657,5.427,10.124,7.984c0.163-1.43,0.311-2.861,0.449-4.292c0.072-0.753,2.954-1.346,2.869-0.467
	c-0.472,4.915-0.763,11.866-2.499,17.89c10.255-7.622,6.625-24.24,0.832-33.84C187.792,113.056,182.113,107.058,174.29,107.753z
	 M97.785,257.21c2.297-1.167,4.491-2.545,6.805-3.676c0.209-0.102,0.66-0.256,1.148-0.368l0.009-0.108
	c0.394-12.492,0.775-25.006,1.497-37.484c-4.391,4.47-9.002,8.758-12.47,14.013c-0.48,0.728-3.121,0.875-2.864,0.486
	c4.293-6.506,10.263-11.557,15.5-17.26c0.203-3.258,0.421-6.514,0.682-9.765c0.068-0.852,2.928-1.156,2.897-0.776
	c-0.015,0.188-0.026,0.376-0.041,0.564c0.147-0.073,0.315-0.14,0.519-0.189c0.825-0.2,1.643-0.34,2.457-0.453
	c-0.272-0.182-0.32-0.477,0.104-0.893c3.462-3.398,9.319-7.5,14.419-5.063c0.027-0.018,0.045-0.034,0.078-0.053
	c1.945-1.156,4.888-2.209,6.97-0.736c0.42,0.297,0.781,0.659,1.108,1.052l0.16,0.045c0.07-0.053,0.152-0.109,0.251-0.169
	c1.824-1.104,3.343-1.282,4.559-0.875c0.063,0.01,0.126,0.026,0.188,0.06c2.023,0.799,3.134,3.298,3.28,5.957
	c0.273-0.289,0.687-0.533,1.168-0.598c12.841-1.742,25.505,1.505,38.279,2.113c-0.443-0.172-0.657-0.558-0.569-0.945
	c-5.004-7.564-7.636-17.681-15.995-22.032c-3.402-1.77-7.462-3.459-9.924-6.29c-0.84,0.387-2.164,0.505-2.218,0.045
	c-0.199-1.681-0.129-3.086,0.154-4.265c-0.102-0.554-0.171-1.129-0.168-1.75c0-0.077,0.013-0.151,0.036-0.222
	c-0.408,0.106-0.802,0.139-1.044,0.037c-3.505-1.474-6.554-3.601-9.362-6.089c-1.029,2.149-2.438,4.098-4.366,5.764
	c-0.321,0.277-1.416,0.489-2.119,0.498c-8.918,4.76-19.125,5.129-28.347,9.179c-4.556,2-7.172,4.054-9.228,8.53
	c-1.685,3.669-3.035,7.479-4.258,11.324c-3.294,10.357-5.991,20.895-9.317,31.242c-2.501,7.78-6.365,16.218-6.058,24.582
	C82.088,263.094,91.052,260.632,97.785,257.21z M167.225,177.002c-1.188-0.669-2.429-1.326-3.62-1.933
	C164.738,175.773,165.977,176.398,167.225,177.002z M125.31,197.604c-1.764-0.305-3.609,0.376-5.305,1.437
	C121.966,198.337,124.245,197.825,125.31,197.604z M104.613,254.458c-0.073-0.109-0.07-0.257,0.051-0.454
	C104.515,254.245,104.52,254.384,104.613,254.458z"></path>
<path id="color_x5F_1" d="M273.488,170.135c-0.52,0.409-1.39,0.678-2.049,0.549c-3.822-0.749-5.094-3.851-3.988-7.412
	c0.274-0.881,3.153-1.288,2.883-0.418c-0.854,2.75-0.291,5.772,2.918,6.401C273.814,169.365,273.969,169.756,273.488,170.135z
	 M281.803,170.506c-0.559,0.091-1.386,0.306-1.683,0.849c-0.054,0.099-0.11,0.177-0.172,0.254c-0.013,0-0.025,0.001-0.037,0.002
	c-0.208,0.009-0.416,0.007-0.624,0.007c-0.623,0-1.494,0.252-1.931,0.722c-0.468,0.502,0.406,0.587,0.714,0.587
	c1.785-0.001,3.979-0.316,4.92-2.039C283.271,170.372,281.954,170.481,281.803,170.506z M278.299,161.497
	c0.511-0.137,1.302-0.484,1.251-1.124c-0.04-0.502-0.542-0.722-0.575-1.151c-0.048-0.62-1.319-0.435-1.646-0.348
	c-0.511,0.137-1.302,0.484-1.251,1.124c0.04,0.502,0.542,0.722,0.575,1.151C276.701,161.769,277.972,161.584,278.299,161.497z
	 M404.167,159.466c-0.028-0.097-0.054-0.192-0.077-0.274c-0.234-0.802-0.243-1.682-0.258-2.509c-0.036-2.05,0.211-4.223,0.84-6.18
	c0.276-0.86-2.6-0.463-2.883,0.418c-0.866,2.694-1.178,6-0.656,8.792c0.508,2.727,3.549,1.683,4.86,0.135
	C406.537,159.207,405.165,159.186,404.167,159.466z M414.107,160.47c-0.562,0.091-1.382,0.306-1.683,0.849
	c-0.052,0.093-0.104,0.166-0.163,0.239c-0.019,0-0.037,0.002-0.056,0.002c-0.208,0.007-0.417,0.004-0.625,0.002
	c-0.62-0.004-1.496,0.254-1.932,0.722c-0.47,0.504,0.408,0.585,0.715,0.587c1.789,0.012,3.978-0.303,4.93-2.019
	C415.58,160.338,414.255,160.446,414.107,160.47z M410.677,151.438c0.514-0.138,1.299-0.483,1.252-1.124
	c-0.037-0.502-0.537-0.725-0.568-1.156c-0.046-0.62-1.322-0.434-1.646-0.348c-0.514,0.138-1.299,0.483-1.252,1.124
	c0.037,0.502,0.537,0.726,0.568,1.156C409.076,151.709,410.353,151.524,410.677,151.438z M177.951,145.918
	c-0.187,1.501-0.417,3.028-0.969,4.445c-0.222,0.57-0.521,1.102-0.941,1.547c-0.309,0.326-0.849-0.003-1.183-0.131
	c-1.094-0.419-3.395,1.152-1.715,1.796c2.021,0.775,4.26,0.322,5.65-1.389c1.447-1.78,1.804-4.349,2.078-6.549
	C181.04,144.281,178.097,144.747,177.951,145.918z M173.401,143.932c-0.48-0.272-1.394,0.037-1.855,0.204
	c-1.716,0.622-3.615-0.94-4.819-1.979c-0.56-0.483-3.095,0.649-2.738,0.957c2.604,2.247,5.283,2.749,8.53,1.572
	C172.61,144.652,173.823,144.171,173.401,143.932z M168.961,156.276c-0.05-0.013-0.1-0.027-0.149-0.041
	c-0.014-0.004-0.019-0.005-0.029-0.007c-0.014-0.005-0.024-0.009-0.047-0.018c-0.077-0.027-0.363-0.164-0.324-0.136
	c-0.289-0.201-0.339-0.423-0.265-0.76c0.238-1.077-2.681-0.607-2.896,0.369c-0.294,1.332,0.849,1.863,1.932,2.151
	c0.653,0.174,1.553-0.114,2.049-0.549C169.714,156.864,169.533,156.428,168.961,156.276z M557.661,443.842
	c-3.114,8.885-12.499,15.469-19.532,21.344c-4.609,3.848-13.865,12.694-20.752,10.829c-3.664-0.993-3.426-5.058-2.729-8.12
	c1.132-4.975,3.563-10.105,3.752-15.284c-1.874,1.255-3.869,2.227-6.002,2.745c-0.392,0.095-1.63,0.21-1.68-0.471
	c-1.226-16.83-8.308-31.04-18.45-44.264c-8.591-11.202-17.696-21.896-24.256-34.434c-1.252,3.119-2.478,6.252-3.642,9.418
	c-5.49,14.934-5.171,31.016-6.215,46.698c-0.728,10.927-0.684,22.393-2.552,33.204c-0.066,0.389-0.766,0.708-1.458,0.841
	c-0.833,0.463-1.739,0.779-2.692,0.976c0.002,0.024,0.01,0.044,0.01,0.07c-0.011,5.907,0.372,13.059-3.431,18.015
	c-3.093,4.031-8.946,4.593-13.605,3.845c-5.144-0.826-14.267-2.695-13.87-9.696c0.352-6.201,5.269-11.523,9.439-15.772
	c-3.089-0.907-6.157-1.89-9.214-2.908c-1.831-0.61-0.383-6.99-0.256-8.181c0.748-7.001,1.667-13.983,2.565-20.966
	c1.103-8.578,2.223-17.155,3.236-25.745c1.07-9.078,1.742-18.168,4.06-27.046c3.347-12.821,8.419-25.278,12.094-38.036
	c-0.374-0.008-0.692-0.113-0.832-0.368c-7.576-13.869-13.23-34.287-8.176-49.853c0.03-0.092,0.093-0.178,0.17-0.259
	c-0.034-0.186-0.064-0.376-0.095-0.567c-1.429-0.022-2.85-0.053-4.251-0.099c-2.688-0.088-6.074-0.21-9.276-0.876
	c-0.362,1.882-0.422,4.97-0.618,6.125c-0.839,4.946-1.864,9.889-3.373,14.679c-2.802,8.888-7.082,18.56-15.834,22.864
	c-0.588,1.384-1.445,2.542-3.003,3.197c3.595,0,7.189,0,10.784,0c0.481,0,0.468,0.135,0.228,0.311
	c0.746-0.126,1.477-0.092,1.389,0.16c-0.351,1.005-0.188,2.449-0.23,3.499c-0.066,1.638-0.114,3.276-0.119,4.916
	c-0.002,0.372-0.644,0.654-1.322,0.808c-0.572,0.306-1.524,0.644-1.839,0.644c-4.362,0-8.724,0-13.085,0
	c0.055,0.085,0.099,0.181,0.115,0.297c4,28.329,9.734,56.457,14.845,84.599c2.504,13.785,5.037,27.568,7.348,41.387
	c0.338,2.023,4.055,15.075,1.17,16.254c-1.479,0.605-3.116-0.918-1.273-1.672c-1.24,0.507-0.662,0.573-0.871-1.207
	c-0.16-1.364-0.353-2.724-0.557-4.082c-0.694-4.619-1.476-9.225-2.271-13.827c-2.395-13.879-4.925-27.734-7.445-41.59
	c-4.786-26.306-10.104-52.604-13.844-79.086c-0.063-0.441,0.198-0.813,0.585-1.074c-8.755,0-17.509,0-26.264,0
	c0.034,0.087,0.059,0.182,0.059,0.292c-0.026,41.874-1.779,84.902,17.438,123.296c3.525,2.927,12.943,9.776,10.779,15.522
	c-1.095,2.906-5.803,3.18-8.334,2.905c-7.436-0.807-22.283-4.888-24.092-13.793c-0.096-0.008-0.187-0.027-0.271-0.053
	c-0.711,15.553-24.574,14.056-35.086,12.338c-1.376-0.225-13.028-1.76-10.04-5.402c2.038-2.483,5.793-3.568,8.719-4.513
	c3.468-1.121,6.99-2.041,10.508-2.982c-20.692-39.329-35.502-82.026-35.701-126.88c-0.001-0.29,0.188-0.54,0.472-0.73
	c-34.873,0-69.746,0-104.618,0c0.072,41.782,3.342,83.499,2.882,125.287c0.178,0.03,0.337,0.087,0.459,0.184
	c2.796,2.205,7.708,5.676,7.033,9.858c-0.451,2.795-4.909,3.79-7.108,4.031c-12.781,1.403-21.801-5.035-30.806-13.281
	c-0.113-0.104-0.165-0.213-0.171-0.323c-3.966,0.079-7.934,0.429-11.914,1.195c-0.407,2.451-0.803,4.903-1.162,7.361
	c-0.204,1.392-0.412,2.785-0.548,4.185c-0.126,1.297,0.305,1.37-0.622,0.991c1.702,0.696-0.479,2.417-1.68,1.927
	c-2.178-0.891,0.252-11.155,1.172-15.189c-0.612,0.398-1.719,0.708-2.17,0.492c-5.092-2.431-12.74-1.57-18.202-1.651
	c-8.767-0.13-17.533-0.023-26.3-0.005c-9.295,0.019-18.549-0.442-27.796-0.662c-0.001,0.002-0.001,0.004-0.002,0.006
	c-3.452,6.66-10.486,10.575-17.547,12.435c-5.802,1.528-14.694,3.494-20.419,0.765c-3.362-1.602-2.157-4.626-0.131-6.915
	c1.364-1.541,2.904-2.903,4.516-4.179c0.32-0.253,0.643-0.503,0.965-0.754c-0.448-0.036-0.882-0.207-0.585-0.713
	c15.002-25.567,31.427-51.452,39.421-80.234c7.321-26.358,10.852-54.041,23.768-78.514c-0.614,0.042-0.976,0.146-1.103,0.196
	c0.129-0.061,0.455-0.241,0.979-0.657c-0.536,0.426-3.227,0.715-2.619,0.231c0.026-0.021,0.059-0.036,0.085-0.056
	c-0.083-0.035-0.157-0.079-0.208-0.146c-0.65-0.858-0.218-3.54-0.22-4.521c-0.007-3.579,0.053-7.157,0.125-10.735
	c0.228-11.321,0.582-22.639,0.971-33.956c0.092-2.684,0.179-5.369,0.264-8.056c-0.041,0.004-0.082,0.01-0.121,0.012
	c-0.407,0.222-0.813,0.446-1.217,0.673c-1.438,0.807-2.875,1.615-4.345,2.362c-3.214,1.634-6.534,3.13-10.074,3.89
	c-8.403,1.802-11.927-3.67-10.967-11.662c1.204-10.024,5.404-19.533,8.244-29.159c2.928-9.922,5.416-20.069,9.092-29.75
	c2.53-6.663,4.842-11.142,11.362-14.358c10.064-4.965,21.808-4.75,31.456-10.8c0.259-0.163,0.668-0.252,1.072-0.272
	c1.486-1.763,2.535-3.753,3.269-5.908c-0.155-0.214-0.045-0.452,0.215-0.664c0.25-0.813,0.467-1.642,0.644-2.492
	c-0.491,0.176-1.005,0.306-1.551,0.366c-6.679,0.743-5.893-10.195-5.674-14.391c0.822-15.784,6.171-33.414,24.989-32.737
	c3.855-2.31,8.069-3.952,12.48-4.076c8.326-0.233,14.78,4.262,19.02,11.287c6.775,11.228,10.497,28.665-1.229,37.346
	c1.357,0.444,2.578,1.261,3.012,2.731c0.449,1.519,0.102,3.262-0.778,4.569c-2.458,3.655-7.048,4.206-10.565,1.822
	c-0.859,0.578-1.805,1.055-2.852,1.407c-3.792,1.275-7.994,0.861-11.897,0.512c-2.436-0.218-5.153-0.69-7.573-0.177
	c-1.787,0.379-2.625,1.626-2.978,3.121c0.281,3.121,2.3,5.133,4.875,6.732c1.134,0.705,2.373,1.33,3.62,1.933
	c2.38,1.152,4.783,2.229,6.504,3.643c6.069,4.984,8.5,13.515,12.791,20.099c3.721-1.295,7.274-3.699,11.332-3.438
	c1.537,0.099,2.902,0.661,3.913,1.571c2.079-1.31,4.734-2.32,6.747-0.783c0.369,0.282,0.655,0.629,0.899,1.004
	c0.167-0.069,0.346-0.121,0.531-0.145c2.195-0.287,4.925-0.042,6.243,2.021c1.112,1.741,1.333,3.954,0.707,5.925
	c-0.256,0.808-0.624,1.511-1.066,2.122c0.573-0.076,1.063-0.039,1.07,0.157c0.25,7.188-0.277,14.411-0.606,21.589
	c-0.156,3.404-0.34,6.812-0.377,10.219c-0.01,0.924-0.453,3.685,0.242,4.47c0.002,0.002,0.001,0.004,0.003,0.006
	c7.255,2.939,14.715,5.474,21.959,8.014c6.619-7.416,13.226-14.846,19.71-22.379c-0.827-0.575-1.624-1.187-2.37-1.864
	c-0.164-0.148-0.13-0.409,0.006-0.562c6.384-7.191,10.412-16.312,16.292-23.917c4.022-5.202,9.434-11.729,16.706-11.393
	c0.181,0.008,0.317,0.032,0.433,0.063c0.248-2.66,0.561-5.61-0.41-7.825c-2.232-5.088-7.94-3.354-12.186-3.287
	c-4.059,0.064-7.838-2.706-9.859-6.098c-1.504-2.524-2.48-5.221-3.117-8.011c-0.469,0.096-0.89,0.086-1.059-0.149
	c-7.127-9.905-13.567-28.381,0.916-35.322c7.547-3.617,16.981-4.915,25.261-5.334c8.351-0.424,17.189,1.433,23.263,7.552
	c7.079,7.133,13.529,15.165,21.479,21.374c7.416,5.792,17.089,8.399,23.764,15.023c6.352,6.303,11.605,14.718,12.817,23.73
	c0.303,2.25,0.532,4.557,0.269,6.826c-0.238,2.047-1.086,4.37-1.06,6.402c0.03,2.33-0.138,3.65-1.494,4.674
	c-0.007,0.124-0.013,0.242-0.019,0.344c1.965,1.641,3.905,3.326,5.819,5.05c0.252,0.227-0.057,0.488-0.231,0.626
	c-0.482,0.38-0.971,0.765-1.463,1.151c-0.307,0.241-0.618,0.483-0.928,0.726c-0.578,0.452-1.161,0.905-1.751,1.36
	c0.665,1.297,2.593,3.357,3.528,4.677c2.428,3.424,4.756,6.93,6.84,10.575c4.729,8.266,9.118,17.495,9.729,27.144
	c1.005,15.885-9.712,27.791-21.62,37.918c3.041,10.466,0.214,21.996-1.017,32.542c-0.034,0.287-0.39,0.502-0.839,0.651
	c4.701,0,9.401,0,14.103,0c-0.704-0.373-1.228-1.001-1.469-1.982c-0.685-2.773,0.524-5.774,2.323-8.379
	c0.05-0.104,0.115-0.213,0.22-0.332c0.062-0.069,0.114-0.143,0.175-0.213c0.525-0.713,1.086-1.391,1.661-2.021
	c8.713-11.38,11.241-26.578,14.321-40.314c3.646-16.262,6.479-32.965,5.631-49.687c-0.005-0.103,0.015-0.199,0.044-0.291
	c-1.224-0.818-2.231-1.909-2.87-3.383c-2.41-5.557-0.395-12.283,0.868-17.897c2.658-11.809,7.495-25.969,20.901-26.079
	c-0.147-3.936-1.436-7.656-4.792-10.022c-2.835-1.999-5.026-1.998-8.207-2.482c-3.987-0.606-7.666-3.071-9.725-6.582
	c-4.45-7.588-4.212-16.668-4.048-25.26c-0.424,0.1-0.811,0.116-1.008-0.034c-3.653-2.778-10.633-8.568-6.937-13.894
	c2.148-3.096,5.799-4.94,9.384-5.87c0.602-0.156,1.219-0.284,1.841-0.398c-1.402-3.362-3.775-10.615,3.223-7.894
	c9,3.5,14,5.5,14,5.5s1.5-9.5,6-6s8.5,10,8.5,10s1.5-7,6-3.5s6,10.5,6,10.5s4-3,5.5,4c1.304,6.087-2.303,11.412-3.267,12.7
	c-0.021,0.093-0.046,0.187-0.068,0.28c0.959-0.109,6.061-0.477,3.335,4.52c-3,5.5-7,7.5-7,7.5s2,3.5-0.5,5
	c-1.099,0.659-2.681,0.835-4.109,0.826c1.694,3.331,4.13,6.01,7.59,8.936c0.086,0.073,0.082,0.164,0.023,0.263
	c1.531,1.088,3.203,1.905,5.003,2.519c0.138-0.014,0.271-0.015,0.388,0.01c9.58,2.017,21.363,1.189,29.312,7.872
	c9.867,8.298,14.189,20.999,21.048,31.557c0.308,0.474-0.019,0.878-0.398,1.176c-1.218,0.958-2.485,1.811-3.789,2.585
	c0.038,0.205,0.076,0.411,0.114,0.616c3.076,15.911,8.758,35.908,0.323,49.999c0.969,5.357,4.095,9.356,6.826,13.947
	c0.197,0.332,0.113,0.616-0.163,0.884c-0.18,0.175-0.375,0.339-0.559,0.511c0.051,0.044,0.088,0.096,0.091,0.162
	c0.771,17.732-7.501,35.004-15.067,50.633c0.023,0.038,0.051,0.074,0.067,0.117c2.764,7.091,7.328,13.643,11.466,19.981
	c5.28,8.087,10.765,16.042,16.351,23.92c9.614,13.561,20.248,26.458,29.32,40.383c0.149,0.229,0.176,0.457,0.031,0.702
	c-0.864,1.466-1.755,2.921-2.664,4.364c0.318-0.032,0.616,0.001,0.827,0.136C547.173,428.814,560.711,435.143,557.661,443.842z
	 M485.451,279.211c-14.146,8.649-32.133,10.698-48.861,10.675c3.157,15.775,23.179,12.38,34.825,8.656
	c7.514-2.402,14.96-5.576,21.626-9.827c1.637-1.043,6.638-3.518,5.439-5.409c-2.224-3.507-4.396-6.658-5.595-10.479
	C490.939,275.192,488.505,277.344,485.451,279.211z M454.759,178.828c-1.907-0.246-3.81-0.501-5.686-0.824
	c-0.274-0.047-0.547-0.097-0.82-0.147c-3.131,4.611-6.406,9.115-9.95,13.42c-0.561,0.68-1.929,1.082-2.692,0.546
	c-1.071-0.751-1.923-1.565-2.59-2.423c-0.162,0.913-0.407,1.831-0.718,2.749c-0.319,0.943-1.773,1.052-2.503,0.67
	c-2.383-1.247-4.723-2.736-6.695-4.582c-0.417-0.39-1.443-1.118-1.548-1.83c-13.714-1.388-17.392,19.377-19.25,29.368
	c-0.718,3.86-1.725,8.912,0.257,12.592c2.016,3.744,5.909,4.924,9.927,5.178c1.445,0.092,2.903,0.067,4.3-0.007
	c-0.016-0.094-0.033-0.188-0.049-0.282c-0.009-0.052-0.017-0.105-0.025-0.157c-1.735-10.384-2.873-21.118-1.917-31.642
	c0.075-0.829,2.97-1.424,2.879-0.43c-0.945,10.412,0.146,21.19,1.961,31.452c1.464,8.277,3.313,17.015,6.964,24.755
	c0.441,0.936,0.911,1.856,1.407,2.76c0.056-0.201,0.117-0.398,0.18-0.596c0.434-1.361,1.07-2.619,2.248-3.569
	c1.602-1.292,4.818-1.316,6.339,0.125c2.598,2.46,2.46,7.075,1.625,10.313c-0.017,0.064-0.051,0.126-0.093,0.186
	c1.827,3.271,10.792,1.072,13.409,0.515c4.974-1.059,10.026-2.397,14.651-4.55c0.121-0.056,0.236-0.123,0.355-0.182
	c3.17-1.564,5.843-4.077,7.398-7.108c1.413-2.754,1.909-5.928,0.986-9.205c-1.631-5.792-4.872-10.953-6.887-16.611
	c-1.285,0.563-2.553,1.166-3.789,1.839c-0.504,0.275-1.545,0.389-1.947-0.14c-5.815-7.639-8.397-17.188-14.582-24.558
	c-0.867-1.034,1.904-2.129,2.668-1.219c5.969,7.113,8.589,16.238,13.981,23.729c10.15-5.078,22.096-6.329,31.32-13.143
	c-6.308-9.98-10.596-23.331-20.265-30.605C469.53,180.646,462.12,179.777,454.759,178.828z M422.471,265.359
	c1.731-0.563,3.355-1.194,4.252-1.888c-1.322-2.084-2.482-4.273-3.496-6.542C423.009,259.745,422.968,262.585,422.471,265.359z
	 M445.76,177.118c-0.734-0.263-1.477-0.529-2.178-0.876c-1.768-0.877-3.303-1.877-4.764-3.202c-0.161-0.146-0.153-0.313-0.044-0.477
	c-0.034-0.032-0.069-0.063-0.104-0.094c-4.354,5.129-7.019,12.186-1.73,17.133c3.065-3.825,5.967-7.781,8.698-11.852
	c0.244-0.364,0.535-0.432,0.665-0.447c-0.007-0.009-0.018-0.018-0.022-0.027C446.189,177.257,446.031,177.215,445.76,177.118z
	 M424.531,185.925c0.246,0.37,2.65,2.171,3.005,2.427c0.814,0.588,1.649,1.132,2.5,1.651c0.522-2.436,0.376-4.974-1.562-6.851
	c-1.361-1.319-3.056-2.182-4.805-2.895c0.449,1.556,0.669,3.202,0.718,4.876c0.002,0.07-0.009,0.136-0.021,0.202
	c0.007,0.009,0.015,0.019,0.021,0.028c0.077,0.021,0.097,0.059,0.069,0.11C424.525,185.613,424.549,185.768,424.531,185.925z
	 M422.51,177.464c0.26-0.046,0.518-0.039,0.744,0.043c2.703,0.987,5.992,2.182,7.979,4.455c0.614-3.879,3.121-7.819,5.992-10.882
	c-3.704-3.743-5.79-7.505-6.943-13.509c-0.075-0.395,0.673-0.687,0.932-0.777c9.354-3.248,1.64-13.95-2.119-10.077
	c-0.365,0.376-1.88,0.645-2.487,0.521c-0.231,0.09-0.446,0.154-0.602,0.168c-6.09,0.553-9.983-3.113-12.278-7.927
	c-2.191,1.18-4.646,2.33-6.56,2.755c-3.576,0.795-1.472-1.878-0.456-3.012c-0.944,0.863-3.385,2.402-7.544,0.512
	c-0.626-0.285-0.996-0.657-1.178-1.087c-0.095,0.077-0.216,0.146-0.356,0.207c-0.066,3.115-0.267,6.877-0.166,10.713
	c0.379-0.211,0.866-0.334,1.118-0.364c0.519-0.062,1.268,0.01,1.263,0.667c-0.002,0.383-0.005,0.767-0.009,1.151
	c-0.005,0.627-1.194,0.958-1.64,1.01c-0.192,0.023-0.417,0.027-0.623-0.01c0.443,6.837,2.136,13.513,7.55,16.774
	c3.063,1.845,5.519,1.192,8.656,2.072c2.361,0.662,4.206,1.841,6.09,3.402C420.999,175.202,421.85,176.287,422.51,177.464z
	 M364.849,304.674c-4.7,3.865-9.464,7.48-13.673,10.979c3.238,4.748,0.945,10.992-3.273,14.65c-3.04,2.636-8.981,4.858-10.673-0.11
	c-0.214,0.138-0.427,0.284-0.64,0.414c-1.34,0.822-3.235,1.935-4.867,1.334c-0.738-0.272-1.031-0.843-1.089-1.516
	c-0.716,0.416-1.451,0.79-2.206,1.113c0.313,0.543,0.332,1.199-0.053,1.986c-0.57,1.169-1.729,1.838-3.103,2.221
	c12.737,0,25.474,0,38.211,0C364.67,325.684,367.282,314.735,364.849,304.674z M191.468,346.484c0-0.147,0.091-0.28,0.235-0.399
	c-4.864,0-9.728,0-14.591,0c-3.788,26.623-9.135,53.065-13.944,79.515c-2.501,13.752-5.02,27.502-7.381,41.278
	c-0.293,1.708-0.582,3.418-0.869,5.128c4.9-0.979,9.778-1.342,14.653-1.361c6.512-0.026,13.021,0.539,19.577,1.012
	c1.732,0.125,3.467,0.242,5.206,0.341C194.805,430.134,191.521,388.342,191.468,346.484z M189.715,335.747
	c-0.161-7.62-1.948-15.077-1.733-22.708c-10.938-0.259-21.888-0.325-32.805-0.488c-10.941-0.164-21.885-0.305-32.828-0.325
	c-3.704-0.007-7.409-0.01-11.112,0.05c-0.366,0.006-0.732,0.013-1.098,0.02c-13.36,25.511-16.374,54.332-24.581,81.584
	c-8.186,27.181-23.764,51.904-38.077,76.246c0.192-0.025,0.413-0.042,0.623-0.021c20.149-2.508,40.244-0.369,60.462-0.455
	c9.112-0.039,18.232-0.172,27.342,0.079c4.938,0.136,11.558-0.434,16.157,1.762c0.009,0.004,0.013,0.009,0.021,0.014
	c0.056-0.256,0.099-0.464,0.122-0.602c2.353-13.942,4.897-27.853,7.426-41.764c5.021-27.627,10.633-55.244,14.579-83.054
	c-6.936,0-13.871,0-20.806,0c-0.49,0-0.468-0.14-0.215-0.321c0-2.967,0-5.934,0-8.901c-0.289-0.042-0.198-0.185,0.066-0.354
	c0.219-0.348,0.996-0.597,1.684-0.698c0.15-0.039,0.277-0.063,0.359-0.063C166.771,335.747,178.243,335.747,189.715,335.747z
	 M192.66,335.636c0.001,0.039-0.009,0.074-0.013,0.111c16.355,0,32.712,0,49.067,0c-0.061-0.05-0.132-0.091-0.184-0.151
	c-0.713-0.831-0.845-3.788-1.682-4.076c-0.871-0.3-0.748-0.893-0.256-1.354c-0.137-0.116-0.221-0.257-0.255-0.412
	c-0.293-0.091-0.54-0.26-0.673-0.537c-2.705-5.598-28.269-43.928-13.026-45.151c0.375-0.252,0.83-0.44,1.209-0.439
	c18.903,0.028,37.782,1.084,56.684,1.144c0.146-0.056,0.301-0.099,0.47-0.117c6.833-0.731,12.001,4.206,15.868,10.243
	c1.975-6.644,3.087-13.657,3.182-20.583c0.098-7.162-0.328-16.381-5.216-22.171c-4.164-4.933-12.183-6.065-16.016-11.244
	c-0.338,0.063-0.648,0.063-0.847-0.031c-0.775-0.37-1.577-0.714-2.391-1.048c-5.292,7.757-9.673,16.123-15.409,23.581
	c-4.73,6.152-10.643,12.735-18.515,14.64c-9.938,2.404-18.329-3.353-26.671-8.142c-1.77-1.016-3.528-2.05-5.28-3.095
	c-0.684,9.497-0.98,19.033-1.087,28.551c-0.047,4.204-0.089,8.414,0.046,12.617c0.036,1.12-0.22,3.385,0.208,4.782
	c0.122,0.007,0.244,0.012,0.366,0.02c0.68,0.042,0.423,0.314-0.096,0.584c0.023,0.036,0.038,0.085,0.064,0.118
	c0.204,0.266-2.363,1.472-2.897,0.776c-0.082-0.107-0.14-0.249-0.204-0.383c-6.053-0.354-12.118-0.591-18.188-0.756
	C190.755,320.669,192.514,328.083,192.66,335.636z M287.313,194.926c-6.395-0.296-11.808,8.177-15.001,12.755
	c-3.558,5.103-6.715,10.46-10.17,15.629c-0.807,1.207-4.348,4.732-2.894,5.726c0.45,0.307,0.92,0.583,1.388,0.863
	c0.31,0.022,0.505,0.109,0.453,0.282c2.057,1.181,4.251,2.141,6.432,3.044c3.711,1.538,7.544,2.842,11.284,4.341
	c0.717-0.093,1.381-0.06,1.299,0.054c-0.088,0.122-0.169,0.248-0.257,0.371c0.168,0.07,0.336,0.142,0.503,0.212
	c-2.703-6.997,2.246-13.603,2.049-20.889c-0.029-1.103,2.879-1.668,2.916-0.297c0.257,9.567-7.837,19.503,3.347,26.004
	c5.548,3.225,11.344,5.456,14.135,11.679c5.491,12.241,3.617,28.137-0.215,40.595c-0.093,0.302-0.384,0.547-0.745,0.723
	c0.021,0.012,0.045,0.02,0.063,0.034c6.679,5.042,15.078,5.836,23.408,5.629c0.182-2.968,0.556-5.933,0.832-8.978
	c0.106-1.178,3.046-1.657,2.92-0.276c-0.281,3.103-0.675,6.122-0.849,9.15c2.688-0.129,5.344-0.321,7.913-0.472
	c1.631-1.386,3.252-2.782,4.864-4.189c1.531-1.338,3.06-2.679,4.56-4.052c1.457-1.334,3.059-2.775,4.687-4.314
	c1.657-1.566,3.343-3.234,4.937-4.993c-0.039-0.038-0.08-0.073-0.113-0.118c-9.277-12.496-7.112-30.27-7.06-44.889
	c0.001-0.291,0.131-0.534,0.33-0.729c0.021-0.02,0.042-0.039,0.063-0.057c-0.024-0.027-0.049-0.054-0.072-0.081
	c-0.447-0.501-0.893-1.001-1.335-1.498c-0.103-0.116-0.151-0.233-0.161-0.349c-0.284,0.11-0.568,0.228-0.854,0.332
	c-6.916,2.52-12.121-9.438-14.063-14.012c-0.278-0.655,2.554-1.587,2.898-0.776c1.556,3.666,3.538,7.824,6.224,10.789
	c0.98,1.083,3.559,3.417,5.006,2.675c1.978-1.013,3.94-1.983,5.848-3.131c4.634-2.791,9.178-5.758,13.566-8.922
	c0.093-0.066,0.225-0.151,0.372-0.244c-0.12-0.792,1.036-1.359,1.957-1.252c1.351-0.946,2.561-2.097,1.605-2.947
	c-1.567-1.395-3.139-2.788-4.746-4.137c-0.052-0.043-0.104-0.085-0.155-0.129c-0.707,0.027-1.248-0.075-0.518-0.43
	c-15.648-13.004-33.261-22.931-53.849-23.942c-0.08-0.004-0.159-0.009-0.24-0.013c0.013,0.036,0.026,0.072,0.038,0.108
	c0.255,0.734,0.5,1.472,0.718,2.22c0.101,0.346-0.519,0.71-1.211,0.913c-0.015,0.028-0.021,0.054-0.04,0.084
	c-3.298,5.216-12.845,6.411-17.71,2.406c-0.003,0.113-0.009,0.227-0.011,0.339c-0.029,1.358-2.975,1.76-2.941,0.2
	c0.011-0.508,0.05-1.052,0.096-1.608C288.389,194.681,287.759,194.947,287.313,194.926z M301.02,167.021
	c-0.029,0.013-0.058,0.028-0.086,0.041c0.005,0.021,0.01,0.042,0.015,0.063C300.972,167.092,300.996,167.054,301.02,167.021z
	 M363.603,263.785c-1.202-9.039-6.792-16.396-12.681-23.155c-0.224,13.454-1.696,29.208,6.197,40.667
	C361.363,276.09,364.453,270.179,363.603,263.785z M323.125,312.236c0.806-0.712,1.627-1.408,2.439-2.112
	c-0.35-2.374-0.408-4.696-0.322-7.008c-7.965,0.265-16.074-0.208-22.922-3.962c1.718,3.292,3.104,6.599,4.206,9.271
	c1.777,4.312,3.995,8.419,6.048,12.605c0.575,1.174,4.082,6.528,3.378,8.42c2.325-0.38,7.21-0.442,10.203,0.57
	c0.002-0.891,0.009-1.781,0.021-2.671c-0.526,0.176-1.104,0.198-1.437-0.054C318.966,322.918,317.283,317.401,323.125,312.236z
	 M324.607,332.066c-2.007-1.011-4.303-0.865-6.488-0.719c-0.336,0.022-2.901,0.458-1.968,0.045
	c-1.067,0.472-2.204-0.196-2.063-0.907c-0.147-0.009-0.294-0.033-0.436-0.09c-0.046-0.019-0.092-0.037-0.137-0.055
	c-0.074-0.03-0.132-0.063-0.191-0.097c-0.228,0.125-0.504,0.204-0.821,0.204c-23.266,0-46.531,0-69.796,0
	c1.008,1.401,0.396,3.667,3.16,3.667c4.143,0,8.286,0,12.429,0c9.686,0,19.371,0,29.057,0c8.915,0,17.83,0,26.745,0
	c1.737,0,3.475,0,5.213,0C320.271,334.115,327.572,333.561,324.607,332.066z M229.551,306.343
	c3.835,7.417,8.334,14.502,11.971,22.017c23.75,0,47.498,0,71.247,0c0.062,0,0.112,0.008,0.168,0.012
	c-0.984-1.959-3.691-7.443-4.166-8.396c-1.51-3.032-3.22-6.034-4.49-9.178c-3.149-7.798-9.85-25.278-20.566-24.131
	c-0.412,0.044-0.702-0.014-0.899-0.128c-18.436-0.045-36.85-1.044-55.285-1.133c-0.226,0.399-0.707,0.73-1.362,0.729
	C218.745,286.122,228.165,303.662,229.551,306.343z M334.348,302.625c-2.029,0.121-4.106,0.258-6.207,0.366
	c-0.05,1.581-0.011,3.171,0.143,4.779C330.299,306.05,332.324,304.339,334.348,302.625z M366.493,224.08
	c-5.376,4.047-11.172,7.996-17.136,10.7c0.115,0.05,0.221,0.114,0.3,0.203c6.601,7.424,15.271,16.2,16.647,26.559
	c1.215,9.134-3.274,16.337-9.219,22.888c-7.475,8.24-16.205,15.151-24.567,22.445c-2.482,2.165-5.38,4.249-7.661,6.637
	c-4.118,4.311-2.744,8.197,1.359,11.616c0.068-2.352,0.209-4.7,0.516-7.035c0.119-0.905,3.027-1.455,2.889-0.399
	c-0.519,3.949-0.563,7.931-0.568,11.908c0.652-0.379,1.285-0.805,1.902-1.265c0.125-0.406,0.262-0.783,0.369-1.085
	c0.222-0.627,1.296-1.008,2.086-0.999c2.319-2.211,4.35-4.811,6.089-7.204c0.513-0.705,3.41-1.013,2.68-0.008
	c-2.338,3.218-5.125,6.581-8.376,9.195c-0.148,0.499-0.258,1.008-0.249,1.507c0.002,0.099,0.009,0.27,0.053,0.402
	c1.378-0.507,2.668-1.635,3.784-2.54c2.413-1.956,4.952-4.118,6.868-6.583c0.694-0.892,3.466-0.758,2.371,0.651
	c-1.95,2.508-4.526,4.978-7.213,7c0.294,0.033,0.514,0.139,0.569,0.345c1.423,5.251,5.907,1.36,7.77-1.468
	c2.503-3.8,3.089-8.488-0.214-12.004c-0.417-0.444,0.722-1.068,1.675-1.22c4.544-3.777,9.824-7.748,14.955-12.05
	c-0.012-0.036-0.02-0.073-0.032-0.109c-0.08-0.24,0.435-0.542,1.053-0.75c12.403-10.56,23.527-23.14,20.453-39.758
	c-1.828-9.881-6.405-19.064-11.81-27.459C371.77,230.987,368.346,227.595,366.493,224.08z M290.113,182.499
	c1.974,2.908,1.936,6.256,1.737,9.617c0.372-0.006,0.691,0.083,0.834,0.309c1.673,2.646,5.275,3.974,8.54,3.635
	c1.739-0.181,3.373-0.839,4.575-2.031c0.324-0.322,0.628-0.668,0.882-1.069c0.15-0.238,0.513-0.428,0.928-0.55
	c-2.592-8.58-7.766-16.102-9.66-24.929c-0.084-0.393,0.679-0.688,0.931-0.777c1.642-0.583,2.743-1.398,3.439-2.319
	c0.567-1.676,0.829-3.715,0.227-5.672c-1.303-2.441-4.042-3.955-5.857-2.057c-0.363,0.379-1.879,0.65-2.487,0.524
	c-0.232,0.092-0.448,0.157-0.603,0.172c-1.895,0.186-3.568-0.059-5.061-0.602c-0.042-0.006-0.08-0.01-0.122-0.016
	c-1.379-0.197-2.618-1.122-3.699-2.374c-2.64-2.493-4.331-6.204-5.281-9.992c-0.462-0.284-1.293-0.644-2.608-0.76
	c-0.292,0.087-0.568,0.13-0.767,0.093c-0.258-0.048-0.512-0.082-0.764-0.108c-1.01,0.057-2.205,0.241-3.631,0.641
	c-0.755,0.211-1.434,0.446-2.05,0.692c-1.514,0.926-2.841,2.25-3.98,3.776c-0.096,0.128-0.263,0.239-0.465,0.334
	c-0.048,3.017-0.227,6.799-0.107,10.686c0.383-0.219,0.885-0.345,1.138-0.375c0.523-0.062,1.263,0.011,1.263,0.667
	c0,0.383,0,0.767,0,1.151c0,0.625-1.199,0.958-1.639,1.01c-0.201,0.024-0.432,0.027-0.642-0.014
	c0.476,6.972,2.208,13.822,7.697,16.738C277.84,181.534,286.364,176.976,290.113,182.499z M239.707,254.502
	c-0.486,0.544-1.808,0.915-2.502,0.671c-13.332-4.699-27.47-9.294-39.832-16.318c-0.734,0.222-1.619,0.105-1.877-0.579
	c-1.4-3.708-4.22-8.047-8.175-9.419c-2.126-0.738-4.075-0.34-5.197,1.805c-0.629,1.203-1.115,2.433-1.362,3.779
	c-0.394,2.143,3.686-0.125,4.025-0.303c1.47-0.769,3.043,0.83,1.293,1.745c-0.746,0.39-1.43,0.719-2.085,0.969
	c2.137,2.249,1.833,6.236-0.228,8.403c4.625,3.192,9.273,6.354,13.964,9.453c0.826-0.218,1.814,0.02,1.834,0.922
	c0.002,0.095-0.006,0.184-0.006,0.278c4.978,3.26,10.003,6.444,15.113,9.488c5.386,3.208,10.83,6.342,16.439,9.147
	c4.819,2.41,10.04,4.47,15.334,1.96c14.511-6.877,21.391-24.847,30.174-37.453c-5.72-2.145-12.012-3.815-17.193-6.915
	C252.931,239.657,246.326,247.088,239.707,254.502z M183.41,273.039c5.538-4.609,12.829-8.567,13.185-16.338
	c-5.058-3.308-10.066-6.693-15.042-10.123c-0.113,0.03-0.22,0.072-0.337,0.094c-2.543,0.48-5.364-0.837-7-2.774
	c-2.214-2.622-2.785-5.849-2.288-9.182c-0.479-0.084-0.968-0.139-1.476-0.147c-0.251-0.004-0.728-0.077-0.836-0.304
	c-3.753-0.844-8.651-3.87-4.612-7.323c1.895-1.621,4.813-2.805,7.289-1.895c2.839,1.043,5.132,3.29,8.067,4.054
	c1.617-2.037,3.942-3.245,7.172-2.648c0.89,0.165,1.733,0.462,2.535,0.85c-12.789-17.85-41.127-13.13-51.832,5.137
	c-6.022,10.277-4.311,22.343,3.194,31.32c5.598,6.696,15.296,9.79,17.41,18.37c1.073,0,2.146,0,3.218,0
	c1.542-4.72-0.9-6.65-3.951-10.359c-2.204-2.68-4.306-6.684-2.917-10.238c2.19-5.607,7.276-5.125,10.219-1.052
	c3.529-2.093,8.056-3.039,9.16,1.406c1.609-0.879,3.471-1.495,5.031-1.002c1.616,0.51,2.939,1.921,2.677,3.709
	c-0.907,6.174-7.583,10.426-7.472,16.879c0.004,0.253-0.163,0.478-0.415,0.657c0.432,0,0.864,0,1.296,0
	c0.014,0,0.022,0.001,0.036,0.001C177.136,278.399,179.851,276.001,183.41,273.039z M164.84,282.129c2.382,0,4.765,0,7.147,0
	c-0.055-0.096-0.093-0.205-0.096-0.338c-0.074-4.322,3.128-8.146,5.223-11.674c0.887-1.493,2.88-4.18,2.177-6.047
	c-0.929-2.465-3.311-1.093-5.026,0.223c-0.374,0.287-2.307,0.804-2.367-0.115c0.015-0.757-0.087-1.497-0.308-2.22
	c-2.252-1.446-4.151-1.312-5.698,0.403c-0.645,0.512-2.115,1.051-2.626,0.09c-0.976-1.833-4.146-5.443-5.168-1.237
	c-0.403,1.657-0.52,3.409,0.122,5.042c1.007,2.566,2.571,4.354,4.425,6.318C165.572,275.675,166.094,278.439,164.84,282.129z
	 M181.149,237.374c-0.971-0.045-1.987-0.336-3.161-0.942c-0.178-0.092-0.313-0.313-0.352-0.527c-0.134,0.077-0.25,0.133-0.297,0.151
	c-0.552,0.217-1.355,0.41-1.894,0.062c-0.23-0.149-0.468-0.267-0.703-0.395c-0.088,3.78,1.56,8.926,5.921,9.131
	c2.749,0.128,1.818-5.629,0.603-6.86C181.065,237.789,181.051,237.575,181.149,237.374z M179.464,230.422
	c-0.323,0.053-0.652,0.063-0.967,0.001c-2.09-0.405-3.831-1.579-5.619-2.67c-1.924-1.175-5.196-2.853-6.398,0.352
	c-1.198,3.194,4.346,5.035,6.644,5.116c0.194,0.007,0.314,0.035,0.379,0.077c1.522,0.226,2.938,0.723,4.306,1.547
	C178.163,233.278,178.706,231.749,179.464,230.422z M208.146,209.189c0.331-0.034,0.63-0.005,0.828,0.124
	c1.149,0.75,2.598,1.486,3.705,0.361c0.959-0.976,1.479-2.423,1.603-3.768c0.262-2.874-1.253-5.584-4.263-5.481
	c0.378,1.271,0.375,2.71,0.197,3.935C209.96,206.113,209.327,207.888,208.146,209.189z M202.9,200.326
	c0.508,0.946,0.751,2.072,0.626,3.334c-0.128,1.297-0.536,2.581-1.194,3.689c0.61,0.725,1.348,1.477,2.215,1.75
	c0.468,0.147,0.411,0.151,0.708,0.095c-0.315,0.06,0.038-0.071,0.057-0.087c1.261-1.083,1.824-2.94,2.015-4.588
	c0.176-1.521,0.163-3.567-0.955-4.768c-0.222-0.239-0.417-0.4-0.744-0.528c-0.15-0.059-0.268-0.075-0.567-0.028
	c0.299-0.047-0.473,0.145-0.336,0.09c-0.239,0.096-0.477,0.197-0.705,0.317C203.63,199.808,203.26,200.062,202.9,200.326z
	 M187.61,202.313c0.103,0.139,0.2,0.284,0.306,0.42c0.104,0.134,0.152,0.268,0.161,0.397c1.946,0.007,3.896-0.061,5.849-0.236
	c0.496-0.044,0.815,0.036,0.995,0.184c0.657-0.111,1.3,0.052,1.394,0.624c0.229,1.391,1.222,5.717,2.779,4.092
	c-0.141-0.373,0.179-0.737,0.654-0.987c0.818-1.59,1.247-3.579,0.464-5.268c-0.079-0.17-0.164-0.329-0.254-0.477
	c-0.075-0.07-0.13-0.151-0.165-0.239C197.367,197.408,191.578,200.631,187.61,202.313z M134.872,208.765
	c0.319-0.545,0.567-1.127,0.709-1.745c0.358-1.552,0.388-3.188,0.125-4.76c-0.311-1.853-2.037-7.638-4.941-5.912
	c-0.247,0.147-0.945,0.277-1.549,0.315c4.231,2.619,4.394,8.045,3.22,12.524c0.543-0.194,1.129-0.307,1.403-0.202
	c0.388,0.148,0.656,0.137,0.752,0.145C134.699,209.018,134.796,208.896,134.872,208.765z M127.214,204.017
	c-0.197,2.368,0.208,4.808,2.289,5.592c0.938-3.343,1.329-7.498-1.094-10.191c-0.964-1.072-2.016-1.626-3.1-1.813
	c-1.764-0.305-3.609,0.376-5.305,1.437c-1.334,0.835-2.576,1.901-3.605,2.911c-0.011,0.011-0.026,0.02-0.038,0.03
	c2.903-0.085,5.756,0.41,8.602,1.537C125.848,203.051,127.293,203.07,127.214,204.017z M104.613,254.458
	c-0.073-0.109-0.07-0.257,0.051-0.454C104.515,254.245,104.52,254.384,104.613,254.458z M137.902,207.426
	c0.449-0.125,0.886-0.172,1.118-0.069c1.48,0.66,1.991,0.62,2.646-1.054c0.514-1.312,0.708-2.737,0.596-4.142
	c-0.129-1.61-1.287-6.551-3.523-5.198c-0.348,0.21-1.061,0.315-1.596,0.279c0.876,1.382,1.342,3.077,1.516,4.637
	C138.859,203.668,138.627,205.744,137.902,207.426z M158,173.766c-0.84,0.387-2.164,0.505-2.218,0.045
	c-0.199-1.681-0.129-3.086,0.154-4.265c-0.102-0.554-0.171-1.129-0.168-1.75c0-0.077,0.013-0.151,0.036-0.222
	c-0.408,0.106-0.802,0.139-1.044,0.037c-3.505-1.474-6.554-3.601-9.362-6.089c-1.029,2.149-2.438,4.098-4.366,5.764
	c-0.321,0.277-1.416,0.489-2.119,0.498c-8.918,4.76-19.125,5.129-28.347,9.179c-4.556,2-7.172,4.054-9.228,8.53
	c-1.685,3.669-3.035,7.479-4.258,11.324c-3.294,10.357-5.991,20.895-9.317,31.242c-2.501,7.78-6.365,16.218-6.058,24.582
	c0.384,10.454,9.348,7.992,16.081,4.569c2.297-1.167,4.491-2.545,6.805-3.676c0.209-0.102,0.66-0.256,1.148-0.368
	c0.002,0,0.004-0.001,0.006-0.001c0.001-0.036,0.002-0.071,0.003-0.107c0.394-12.492,0.775-25.006,1.497-37.484
	c-4.391,4.47-9.002,8.758-12.47,14.013c-0.48,0.728-3.121,0.875-2.864,0.486c4.293-6.506,10.263-11.557,15.5-17.26
	c0.203-3.258,0.421-6.514,0.682-9.765c0.068-0.852,2.928-1.156,2.897-0.776c-0.015,0.188-0.026,0.376-0.041,0.564
	c0.147-0.073,0.315-0.14,0.519-0.189c0.825-0.2,1.643-0.34,2.457-0.453c-0.272-0.182-0.32-0.477,0.104-0.893
	c3.462-3.398,9.319-7.5,14.419-5.063c0.027-0.018,0.045-0.034,0.078-0.053c1.945-1.156,4.888-2.209,6.97-0.736
	c0.42,0.297,0.781,0.659,1.108,1.052c0.03,0.036,0.063,0.068,0.092,0.104c0.023-0.02,0.041-0.038,0.068-0.059
	c0.07-0.053,0.152-0.109,0.251-0.169c1.824-1.104,3.343-1.282,4.559-0.875c0.063,0.021,0.127,0.036,0.188,0.06
	c2.023,0.799,3.134,3.298,3.28,5.957c0.273-0.289,0.687-0.533,1.168-0.598c12.841-1.742,25.505,1.505,38.279,2.113
	c-0.443-0.172-0.657-0.558-0.569-0.945c-5.004-7.564-7.636-17.681-15.995-22.032C164.522,178.286,160.461,176.597,158,173.766z
	 M147.479,154.523c-0.049,0.303-0.114,0.599-0.17,0.898c0.194,0.066,0.351,0.176,0.436,0.347c0.427,0.862,1.706,3.042,3.023,2.666
	c1.064-0.304,1.892-1.442,2.364-2.384c1.388-2.771,0.762-5.72-1.225-7.897c-1.341,2.286-2.722,4.626-4.432,6.322
	C147.475,154.491,147.481,154.505,147.479,154.523z M186.814,155.408c0.797-2.541,1.399-5.124,1.883-7.731
	c-0.567,0.269-1.361,0.505-1.982,0.34c-1.211-0.322-2.392-0.697-3.365-1.518c-0.416-0.351,0.668-0.79,0.854-0.859
	c0.426-0.156,1.451-0.499,1.872-0.144c0.822,0.694,1.764,1.022,2.775,1.301c0.274-1.57,0.509-3.148,0.713-4.731
	c-0.336,0.053-0.64,0.042-0.835-0.073c-4.268-2.505-7.12-6.999-11.688-9.021c-0.238-0.105-0.267-0.247-0.172-0.396
	c-6.89,1.863-13.518,5.087-19.902,8.211c0.146,0.256,0.065,0.601-0.427,1.005c-1.283,1.053-2.387,2.638-3.461,4.392
	c0.366-0.028,0.697,0.024,0.894,0.2c3.455,3.075,3.864,8.453,0.342,11.707c-1.421,1.313-3.341,2.146-5.3,1.933
	c-1.042-0.114-1.878-0.564-2.563-1.206c-0.006,0.018-0.012,0.036-0.018,0.054c3.155,3.048,6.566,5.654,10.639,7.368
	c0.268,0.113,0.331,0.264,0.269,0.425c0.016-0.001,0.032-0.002,0.048-0.003c2.763-3.123,8.418-3.035,13.739-2.566
	c3.031,0.267,6.87,0.954,9.755-0.281C184.173,162.404,185.808,158.619,186.814,155.408z M190.088,155.966
	c-0.078-0.014-0.141-0.034-0.208-0.052c-0.085,0.034-0.171,0.061-0.256,0.081c-0.891,2.199-2.047,4.176-3.565,5.758
	c2.109,1.527,4.673,1.934,6.033-0.735C193.136,158.972,192.625,156.419,190.088,155.966z M147.097,117.692
	c-4.948,5.983-6.601,15.405-7.021,23.468c-0.164,3.148-0.375,19.044,5.801,11.272c2.436-3.065,4.253-6.868,6.867-9.848
	c-0.978-0.033-1.634-0.802-0.244-1.473c11.262-5.435,23.023-11.556,35.797-11.846c1.956-0.044,0.021,1.698-1.105,1.724
	c-2.529,0.058-5.022,0.39-7.485,0.906c3.949,1.871,6.657,5.427,10.124,7.984c0.163-1.43,0.311-2.861,0.449-4.292
	c0.072-0.753,2.954-1.346,2.869-0.467c-0.472,4.915-0.763,11.866-2.499,17.89c10.255-7.622,6.625-24.24,0.832-33.84
	c-3.689-6.114-9.368-12.112-17.191-11.417c-7.304,0.649-13.51,4.879-18.792,9.702c-0.899,0.821-3.729,0.414-2.408-0.792
	c1.853-1.692,3.886-3.398,6.06-4.946c-3.781,0.2-6.837,1.401-9.297,3.296C148.836,115.796,147.92,116.696,147.097,117.692z
	 M107.39,311.045c3.425-0.675,8.216,0.032,10.719,0.022c10.818-0.042,21.639,0.08,32.456,0.227
	c12.497,0.17,25.036,0.218,37.559,0.511c0.553-0.954,2.677-1.125,2.797,0.073c5.954,0.158,11.902,0.386,17.841,0.708
	c-0.209-1.58,0.005-3.618-0.017-4.675c-0.092-4.34-0.076-8.682-0.008-13.021c0.155-9.897,0.449-19.81,1.231-29.68
	c0.001-0.018,0.011-0.034,0.015-0.051c-3.579-2.174-7.125-4.398-10.643-6.668c-2.213,12.22-20.27,14.603-21.646,27.645
	c-0.143,1.354-3.102,1.732-2.94,0.202c0.122-1.149,0.328-2.183,0.608-3.135c-0.329,0.138-0.664,0.234-0.896,0.234
	c-3.374,0-6.748,0-10.122,0c-0.398,0.922-3.068,1.205-2.762,0c-0.831,0-1.661,0-2.491,0c0.111,0.762,0.173,1.561,0.165,2.411
	c-0.002,0.195-0.16,0.366-0.396,0.51c4.915,0.958,9.867,1.052,14.863,1.054c1.383,0-1.342,1.103-1.9,1.103
	c-3.615-0.001-7.208-0.054-10.781-0.421c0.916,5.37,11.28,6.014,12.581,0.61c0.253-1.053,3.186-1.491,2.906-0.33
	c-1.742,7.236-17.991,8.354-18.443-0.022c-0.012-0.223,0.082-0.426,0.241-0.602c-0.765-0.118-1.53-0.249-2.293-0.405
	c-0.331-0.068-0.005-0.319,0.511-0.562c-0.114-0.034-0.186-0.085-0.185-0.159c0.012-1.174-0.111-2.253-0.328-3.268
	c-0.195-0.08-0.198-0.21-0.078-0.36c-1.304-5.397-5.631-8.727-10.347-12.187c-5.152-3.779-9.939-8.472-12.258-14.596
	c-4.129-10.906-0.551-22.872,8.046-30.47c14.897-13.166,40.368-16.772,52.396,1.971c0.146,0.228-0.742,0.716-1.584,0.922
	c2.644,2.048,4.646,5.146,5.879,8.089c0.083,0.016,0.16,0.039,0.222,0.076c4.627,2.76,9.54,5.144,14.584,7.301
	c0.008-0.88,0.114-1.775,0.125-2.34c0.063-3.408,0.22-6.814,0.377-10.219c0.32-6.919,0.811-13.882,0.623-20.813
	c-2.179,1.366-5.077,1.348-7.596-0.225c-2.165,1.07-4.241,0.288-5.887-1.139c-0.532,0.387-1.127,0.7-1.8,0.896
	c-3.492,1.018-4.805-2.908-5.275-5.561c-15.96,1.397-31.67-4.143-47.593-1.983c-0.365,0.049-0.632,0.026-0.82-0.044
	c-0.21,4.141-2.773,8.091-7.908,6.102c-1.074,1.459-2.726,2.244-5.042,1.578c-0.032,0.098-0.061,0.2-0.093,0.296
	c-0.278,0.817-1.211,1.076-1.993,1.078c-4.271,0.013-5.906-3.083-5.736-6.916c-0.54,0.21-1.139,0.316-1.482,0.178
	c-3.574-1.44-7.163-1.758-10.922-0.849c-0.421,0.102-0.761,0.088-1.016,0.009c-0.206,2.7-0.392,5.402-0.56,8.106
	c0,0.006-0.001,0.012-0.001,0.019c-1.049,16.897-1.428,33.87-2,50.77c-0.379,11.212-0.74,22.426-0.949,33.643
	c-0.065,3.472-0.133,6.946-0.108,10.418C107.242,307.964,106.903,310.167,107.39,311.045z M74.673,470.425
	c-8.719-0.154-17.433-0.02-26.171,1.003c-0.781,0.981-2.724,2.087-3.186,2.475c-1.5,1.257-5.776,4.352-5.141,6.723
	c1.191,4.445,13.673,2.031,16.682,1.336C64.006,480.312,71.115,477.209,74.673,470.425z M195.665,473.252
	c-0.333,0.055-0.638,0.079-0.807,0.071c-8.194-0.368-16.304-1.346-24.41-1.483c6.156,5.62,13.237,11.741,21.972,12.016
	c2.771,0.087,12.256,0.185,8.746-5.006C199.671,476.641,197.724,474.907,195.665,473.252z M301.433,346.528
	c0.193,43.68,14.432,85.473,34.379,123.893c7.308,2.937,15.396,4.228,22.988,1.851c-20.302-38.935-34.764-81.143-34.96-125.457
	c-0.001-0.29,0.189-0.54,0.471-0.73c-7.672,0-15.344,0-23.016,0C301.381,346.203,301.432,346.349,301.433,346.528z M359.573,473.757
	c-0.073-0.138-0.144-0.277-0.216-0.415c-6.69,2.08-13.701,1.918-20.416,0.146c-0.187,0.147-0.449,0.288-0.824,0.393
	c-3.561,0.998-7.158,1.862-10.704,2.913c-1.897,0.563-9.397,2.012-9.866,4.549c-0.556,3.01,8.458,3.766,10.104,3.999
	c9.247,1.312,29.136,3.183,29.582-10.504C357.256,474.13,358.738,473.702,359.573,473.757z M381.754,472.85
	c-0.664,0.139-1.385,0.043-1.649-0.466c-0.082-0.157-0.156-0.316-0.237-0.474c-4.477,3.822-10.766,4.362-16.309,2.565
	c2.216,6.31,11.939,9.763,17.565,11.095c2.315,0.548,10.985,2.46,8.797-2.815C388.289,478.82,385.032,475.656,381.754,472.85z
	 M361.677,346.663c0-0.218,0.109-0.414,0.283-0.579c-11.78,0-23.56,0-35.339,0c0.085,0.118,0.136,0.264,0.137,0.444
	c0.195,44.024,14.657,86.133,34.853,124.802c0.205-0.001,0.389,0.028,0.524,0.104c5.445,3.052,12.338,3.613,16.799-1.385
	C359.858,431.617,361.648,388.529,361.677,346.663z M164.689,336.875c-2.867,0-5.733,0-8.6,0c0,0.098,0,0.195,0,0.292
	c0,2.596,0,5.192,0,7.788c6.207,0,12.414,0,18.621,0c0.725-0.582,2.128-0.68,2.446,0c76.399,0,152.798,0,229.196,0
	c0.014-1.776,0.063-3.553,0.151-5.326c0.044-0.892-0.063-2.022,0.236-2.88c0.004-0.011,0.014-0.021,0.018-0.031
	c-0.288,0.095-0.541,0.158-0.675,0.158C325.618,336.875,245.154,336.875,164.689,336.875z M391.953,335.747
	c-0.779-0.512-1.363-1.292-1.788-2.248c-1.532,0.772-3.611,1.708-5.619,2.248C387.016,335.747,389.484,335.747,391.953,335.747z
	 M417.449,288.199c-2.507-0.832-4.723-2.13-6.138-4.205c-4.23-6.205-0.975-13.484,5.136-16.67c0.573-0.299,1.697-0.647,3.008-1.04
	c0.909-4.426,0.484-9.043,1.471-13.457c0.049-0.218,0.217-0.409,0.444-0.566c-2.046-5.747-3.377-11.806-4.403-17.699
	c-3.295,0.24-7.797,0.462-11.492-0.676c0.717,17.99-2.61,36.081-6.87,53.483c-2.763,11.287-4.981,22.746-11.014,32.499
	c0.219,0.033,0.306,0.112,0.137,0.254c-0.229,0.192-0.459,0.395-0.688,0.602c-1.163,1.792-2.445,3.531-3.909,5.19
	c-0.162,0.184-0.392,0.317-0.648,0.403c-0.807,1.46-1.372,3.011-1.53,4.582c-0.124,1.235-0.058,2.906,1.196,3.584
	c2.343,1.269,5.641-0.915,7.633-2.033c-0.929-3.063-0.685-7.249-0.313-10.079c0.11-0.834,2.935-1.049,2.898-0.776
	c-0.39,2.957-0.57,6.134,0.03,9.076c0.331,1.625,2.674,7.338,4.484,3.455c0.182-0.389,0.326-0.79,0.484-1.188
	c-0.266-0.226-0.246-0.56,0.355-0.893c1.653-4.703,1.988-9.862,4.049-14.398c0.322-0.71,3.022-0.914,2.852-0.537
	c-1.716,3.776-2.203,8.155-3.354,12.122c-0.101,0.347-0.197,0.693-0.296,1.037c7.877-5.302,11.414-16.483,13.535-25.145
	c1.016-4.15,1.825-8.345,2.448-12.572C417.097,291.594,417.024,289.478,417.449,288.199z M434.356,288.287
	c0.638-0.278,1.44-0.334,1.811-0.037c0.863-0.023,1.697-0.053,2.481-0.083c7.592-0.295,15.189-0.525,22.696-1.821
	c4.145-0.716,8.756-1.731,13.21-3.267c2.623-0.905,5.184-1.995,7.566-3.315c1.673-0.927,3.258-1.961,4.704-3.134
	c1.557-1.262,2.961-2.672,4.148-4.26c0.474-0.633,0.902-1.281,1.312-1.936c-0.02-0.106-0.05-0.204-0.067-0.312
	c-0.032-0.196,0.027-0.377,0.142-0.541c0.16-0.229,0.433-0.418,0.751-0.554c7.871-14.394,1.854-33.314-1.135-48.562
	c-6.641,3.305-14.028,5.027-20.992,7.712c2.55,7.242,9.714,16.239,7.126,24.228c-2.088,6.444-6.954,10.295-13.063,12.596
	c-6.195,2.333-12.822,4.259-19.45,4.779c-3.088,0.242-9.052,0.871-10.379-2.908c-0.138-0.392,0.098-0.741,0.483-0.991
	c0.365-1.786,0.446-3.722,0.03-5.482c-0.452-1.909-3.019-5.965-4.333-2.379c-0.582,1.589-0.578,3.714-1.422,5.162
	c-0.996,1.708-4.922,2.268-6.626,2.853c-0.349,0.12-0.717,0.243-1.091,0.37c-0.27,0.693-1.694,1.089-2.438,0.869
	c-2.993,1.161-5.967,2.815-6.746,5.904C409.597,286.961,423.699,288.414,434.356,288.287z M448.561,467.603
	c-2.989,0.009-6.125-0.699-8.667-1.254c-2.531-0.553-5.034-1.206-7.526-1.9c-3.502,3.551-7.949,8.086-8.72,13.157
	c-1.041,6.842,6.31,9.121,11.846,9.779c5.756,0.685,10.584-0.664,12.037-6.804c0.999-4.222,1.009-8.575,1.017-12.891
	C448.547,467.66,448.557,467.632,448.561,467.603z M482.925,337.212c7.396-15.367,15.824-32.384,15.56-49.867
	c-9.91,7.916-23.689,12.729-35.632,15.102c-9.993,1.985-22.868,1.749-27.668-7.455c-2.521,13.807,2.02,30.353,8.216,42.58
	c1.899-7.145,3.289-14.399,3.6-21.885c0.057-1.373,3.007-1.76,2.941-0.195c-0.8,19.312-8.776,36.978-14.326,55.208
	c-4.971,16.325-6.049,33.212-8.198,50.059c-1.544,12.096-3.678,24.288-4.372,36.472c-0.126,2.222-0.331,1.727,1.596,2.357
	c2.719,0.889,5.446,1.76,8.199,2.538c3.785,1.07,7.617,2.11,11.516,2.681c2.448,0.358,6.291,1.268,8.515-0.271
	c0.026-0.018,0.055-0.03,0.081-0.046c1.748-11.102,1.746-22.765,2.473-33.936c0.972-14.937,0.686-30.312,6.072-44.499
	C467.843,369.341,475.176,353.312,482.925,337.212z M513.523,453.118c5.268-2.075,9.635-7.688,12.989-11.834
	c4.167-5.149,7.976-10.585,11.524-16.177c0.871-1.372,1.734-2.75,2.566-4.146c-0.037-0.045-0.071-0.082-0.118-0.152
	c-0.482-0.729-0.968-1.456-1.459-2.179c-4.747-6.979-9.939-13.58-14.973-20.346c-7.617-10.241-15.02-20.657-22.194-31.213
	c-5.984-8.804-12.896-17.929-17.273-27.791c-5.316,11.027-10.475,22.059-15.136,33.344c0.065,0.063,0.124,0.134,0.166,0.22
	c7.136,14.725,18.118,26.548,27.642,39.668C506.165,424.785,512.203,437.924,513.523,453.118z M539.681,427.028
	c-2.526,3.901-5.194,7.716-8.014,11.392c-2.912,3.797-6.328,8.428-10.375,11.956c0.199,3.914-1.031,7.655-2.139,11.367
	c-0.65,2.181-4.057,10.749-0.808,12.249c3.162,1.46,8.325-2.654,10.723-4.35c3.37-2.383,6.588-4.966,9.696-7.683
	c5.502-4.809,14.92-11.012,16.183-18.602C556.252,435.515,545.181,430.463,539.681,427.028z" fill="#0984E3"></path>
</svg>